%TF.GenerationSoftware,KiCad,Pcbnew,9.0.4*%
%TF.CreationDate,2025-09-07T12:41:53+05:30*%
%TF.ProjectId,STEREO  CLASS D AMP,53544552-454f-4202-9043-4c4153532044,rev?*%
%TF.SameCoordinates,Original*%
%TF.FileFunction,Copper,L2,Bot*%
%TF.FilePolarity,Positive*%
%FSLAX46Y46*%
G04 Gerber Fmt 4.6, Leading zero omitted, Abs format (unit mm)*
G04 Created by KiCad (PCBNEW 9.0.4) date 2025-09-07 12:41:53*
%MOMM*%
%LPD*%
G01*
G04 APERTURE LIST*
G04 Aperture macros list*
%AMRoundRect*
0 Rectangle with rounded corners*
0 $1 Rounding radius*
0 $2 $3 $4 $5 $6 $7 $8 $9 X,Y pos of 4 corners*
0 Add a 4 corners polygon primitive as box body*
4,1,4,$2,$3,$4,$5,$6,$7,$8,$9,$2,$3,0*
0 Add four circle primitives for the rounded corners*
1,1,$1+$1,$2,$3*
1,1,$1+$1,$4,$5*
1,1,$1+$1,$6,$7*
1,1,$1+$1,$8,$9*
0 Add four rect primitives between the rounded corners*
20,1,$1+$1,$2,$3,$4,$5,0*
20,1,$1+$1,$4,$5,$6,$7,0*
20,1,$1+$1,$6,$7,$8,$9,0*
20,1,$1+$1,$8,$9,$2,$3,0*%
G04 Aperture macros list end*
%TA.AperFunction,ComponentPad*%
%ADD10C,0.700000*%
%TD*%
%TA.AperFunction,ComponentPad*%
%ADD11C,4.400000*%
%TD*%
%TA.AperFunction,ComponentPad*%
%ADD12R,1.905000X2.000000*%
%TD*%
%TA.AperFunction,ComponentPad*%
%ADD13O,1.905000X2.000000*%
%TD*%
%TA.AperFunction,ComponentPad*%
%ADD14RoundRect,0.250001X-1.149999X-1.149999X1.149999X-1.149999X1.149999X1.149999X-1.149999X1.149999X0*%
%TD*%
%TA.AperFunction,ComponentPad*%
%ADD15C,2.800000*%
%TD*%
%TA.AperFunction,ComponentPad*%
%ADD16C,1.440000*%
%TD*%
%TA.AperFunction,ComponentPad*%
%ADD17RoundRect,0.250000X0.550000X0.550000X-0.550000X0.550000X-0.550000X-0.550000X0.550000X-0.550000X0*%
%TD*%
%TA.AperFunction,ComponentPad*%
%ADD18C,1.600000*%
%TD*%
%TA.AperFunction,ComponentPad*%
%ADD19RoundRect,0.250001X1.149999X-1.149999X1.149999X1.149999X-1.149999X1.149999X-1.149999X-1.149999X0*%
%TD*%
%TA.AperFunction,ComponentPad*%
%ADD20RoundRect,0.250000X0.550000X-0.550000X0.550000X0.550000X-0.550000X0.550000X-0.550000X-0.550000X0*%
%TD*%
%TA.AperFunction,ComponentPad*%
%ADD21R,2.000000X1.905000*%
%TD*%
%TA.AperFunction,ComponentPad*%
%ADD22O,2.000000X1.905000*%
%TD*%
%TA.AperFunction,ViaPad*%
%ADD23C,0.600000*%
%TD*%
%TA.AperFunction,Conductor*%
%ADD24C,0.700000*%
%TD*%
%TA.AperFunction,Conductor*%
%ADD25C,0.200000*%
%TD*%
%TA.AperFunction,Conductor*%
%ADD26C,0.400000*%
%TD*%
G04 APERTURE END LIST*
D10*
%TO.P,REF\u002A\u002A,1*%
%TO.N,N/C*%
X190426726Y-141806726D03*
X190910000Y-140640000D03*
X190910000Y-142973452D03*
X192076726Y-140156726D03*
D11*
X192076726Y-141806726D03*
D10*
X192076726Y-143456726D03*
X193243452Y-140640000D03*
X193243452Y-142973452D03*
X193726726Y-141806726D03*
%TD*%
%TO.P,REF\u002A\u002A,1*%
%TO.N,N/C*%
X193550560Y-57543169D03*
X193067286Y-58709895D03*
X193067286Y-56376443D03*
X191900560Y-59193169D03*
D11*
X191900560Y-57543169D03*
D10*
X191900560Y-55893169D03*
X190733834Y-58709895D03*
X190733834Y-56376443D03*
X190250560Y-57543169D03*
%TD*%
%TO.P,REF\u002A\u002A,1*%
%TO.N,N/C*%
X89591736Y-141570000D03*
X89108462Y-142736726D03*
X89108462Y-140403274D03*
X87941736Y-143220000D03*
D11*
X87941736Y-141570000D03*
D10*
X87941736Y-139920000D03*
X86775010Y-142736726D03*
X86775010Y-140403274D03*
X86291736Y-141570000D03*
%TD*%
%TO.P,REF\u002A\u002A,1*%
%TO.N,N/C*%
X89561736Y-57521736D03*
X89078462Y-58688462D03*
X89078462Y-56355010D03*
X87911736Y-59171736D03*
D11*
X87911736Y-57521736D03*
D10*
X87911736Y-55871736D03*
X86745010Y-58688462D03*
X86745010Y-56355010D03*
X86261736Y-57521736D03*
%TD*%
D12*
%TO.P,Q4,1,G*%
%TO.N,Net-(D4-A)*%
X126211250Y-93800000D03*
D13*
%TO.P,Q4,2,D*%
%TO.N,Net-(Q3-S)*%
X123671250Y-93800000D03*
%TO.P,Q4,3,S*%
%TO.N,GND*%
X121131250Y-93800000D03*
%TD*%
D14*
%TO.P,J2,1,Pin_1*%
%TO.N,Net-(J2-Pin_1)*%
X165271250Y-136630000D03*
D15*
%TO.P,J2,2,Pin_2*%
%TO.N,GND*%
X170271250Y-136630000D03*
%TD*%
D12*
%TO.P,Q2,1,G*%
%TO.N,Net-(D2-A)*%
X142851250Y-93380000D03*
D13*
%TO.P,Q2,2,D*%
%TO.N,Net-(Q1-S)*%
X140311250Y-93380000D03*
%TO.P,Q2,3,S*%
%TO.N,GND*%
X137771250Y-93380000D03*
%TD*%
D14*
%TO.P,J3,1,Pin_1*%
%TO.N,Net-(J3-Pin_1)*%
X95911250Y-136667500D03*
D15*
%TO.P,J3,2,Pin_2*%
%TO.N,GND*%
X100911250Y-136667500D03*
%TD*%
D12*
%TO.P,Q3,1,G*%
%TO.N,Net-(D3-A)*%
X113501250Y-93890000D03*
D13*
%TO.P,Q3,2,D*%
%TO.N,+12V*%
X110961250Y-93890000D03*
%TO.P,Q3,3,S*%
%TO.N,Net-(Q3-S)*%
X108421250Y-93890000D03*
%TD*%
D16*
%TO.P,RV1,1,1*%
%TO.N,GND*%
X145941250Y-61830000D03*
%TO.P,RV1,2,2*%
%TO.N,Net-(U3A-+)*%
X143401250Y-64370000D03*
%TO.P,RV1,3,3*%
%TO.N,+5V*%
X145941250Y-66910000D03*
%TD*%
D12*
%TO.P,Q1,1,G*%
%TO.N,Net-(D1-A)*%
X156731250Y-93380000D03*
D13*
%TO.P,Q1,2,D*%
%TO.N,+12V*%
X154191250Y-93380000D03*
%TO.P,Q1,3,S*%
%TO.N,Net-(Q1-S)*%
X151651250Y-93380000D03*
%TD*%
D16*
%TO.P,RV2,1,1*%
%TO.N,GND*%
X122641250Y-61890000D03*
%TO.P,RV2,2,2*%
%TO.N,Net-(U4A-+)*%
X120101250Y-64430000D03*
%TO.P,RV2,3,3*%
%TO.N,+5V*%
X122641250Y-66970000D03*
%TD*%
D17*
%TO.P,U4,1*%
%TO.N,Net-(U6-LI)*%
X114041250Y-68510000D03*
D18*
%TO.P,U4,2,-*%
%TO.N,Net-(U2-THR)*%
X114041250Y-65970000D03*
%TO.P,U4,3,+*%
%TO.N,Net-(U4A-+)*%
X114041250Y-63430000D03*
%TO.P,U4,4,V-*%
%TO.N,GND*%
X114041250Y-60890000D03*
%TO.P,U4,5,+*%
%TO.N,Net-(U2-THR)*%
X106421250Y-60890000D03*
%TO.P,U4,6,-*%
%TO.N,Net-(U4A-+)*%
X106421250Y-63430000D03*
%TO.P,U4,7*%
%TO.N,Net-(U6-HI)*%
X106421250Y-65970000D03*
%TO.P,U4,8,V+*%
%TO.N,+5V*%
X106421250Y-68510000D03*
%TD*%
D19*
%TO.P,J1,1,Pin_1*%
%TO.N,GND*%
X183878750Y-105975000D03*
D15*
%TO.P,J1,2,Pin_2*%
%TO.N,+12V*%
X183878750Y-100975000D03*
%TD*%
D20*
%TO.P,U2,1,GND*%
%TO.N,GND*%
X166461250Y-89150000D03*
D18*
%TO.P,U2,2,TR*%
%TO.N,Net-(U2-THR)*%
X169001250Y-89150000D03*
%TO.P,U2,3,Q*%
%TO.N,Net-(U2-Q)*%
X171541250Y-89150000D03*
%TO.P,U2,4,R*%
%TO.N,+5V*%
X174081250Y-89150000D03*
%TO.P,U2,5,CV*%
%TO.N,unconnected-(U2-CV-Pad5)*%
X174081250Y-81530000D03*
%TO.P,U2,6,THR*%
%TO.N,Net-(U2-THR)*%
X171541250Y-81530000D03*
%TO.P,U2,7,DIS*%
%TO.N,unconnected-(U2-DIS-Pad7)*%
X169001250Y-81530000D03*
%TO.P,U2,8,VCC*%
%TO.N,+5V*%
X166461250Y-81530000D03*
%TD*%
D21*
%TO.P,U1,1,IN*%
%TO.N,+12V*%
X184341250Y-114295000D03*
D22*
%TO.P,U1,2,GND*%
%TO.N,GND*%
X184341250Y-116835000D03*
%TO.P,U1,3,OUT*%
%TO.N,+5V*%
X184341250Y-119375000D03*
%TD*%
D17*
%TO.P,U3,1*%
%TO.N,Net-(U5-HI)*%
X161621250Y-68550000D03*
D18*
%TO.P,U3,2,-*%
%TO.N,Net-(U2-THR)*%
X161621250Y-66010000D03*
%TO.P,U3,3,+*%
%TO.N,Net-(U3A-+)*%
X161621250Y-63470000D03*
%TO.P,U3,4,V-*%
%TO.N,GND*%
X161621250Y-60930000D03*
%TO.P,U3,5,+*%
%TO.N,Net-(U2-THR)*%
X154001250Y-60930000D03*
%TO.P,U3,6,-*%
%TO.N,Net-(U3A-+)*%
X154001250Y-63470000D03*
%TO.P,U3,7*%
%TO.N,Net-(U5-LI)*%
X154001250Y-66010000D03*
%TO.P,U3,8,V+*%
%TO.N,+5V*%
X154001250Y-68550000D03*
%TD*%
D23*
%TO.N,GND*%
X162531250Y-77120000D03*
X102661250Y-71990000D03*
X164331250Y-79650000D03*
X164041250Y-68810000D03*
X106111250Y-73380000D03*
%TO.N,Net-(U2-THR)*%
X151361250Y-62670000D03*
%TO.N,+12V*%
X103161250Y-70510000D03*
X113701250Y-77390000D03*
X110231250Y-71210000D03*
X172811250Y-69060000D03*
%TO.N,Net-(U4A-+)*%
X116381250Y-78140000D03*
X117671250Y-76520000D03*
%TO.N,Net-(D2-K)*%
X133766250Y-57075000D03*
X172401250Y-60110000D03*
%TO.N,Net-(D2-A)*%
X139050000Y-83570000D03*
X141960000Y-82560000D03*
%TO.N,Net-(D4-K)*%
X102741250Y-76150000D03*
X118101250Y-83850000D03*
X121401250Y-88030000D03*
X113311250Y-79920000D03*
%TO.N,Net-(U5-HI)*%
X177651250Y-59460000D03*
X172991250Y-58420000D03*
%TO.N,Net-(U6-LI)*%
X112291250Y-74020000D03*
X97141250Y-71180000D03*
%TD*%
D24*
%TO.N,GND*%
X147891250Y-57320000D02*
X145941250Y-59270000D01*
D25*
X162531250Y-77120000D02*
X162531250Y-77490000D01*
D24*
X144541250Y-61830000D02*
X145941250Y-61830000D01*
X142591250Y-59880000D02*
X144541250Y-61830000D01*
X135731250Y-91340000D02*
X137771250Y-93380000D01*
X114041250Y-60890000D02*
X121641250Y-60890000D01*
D25*
X164331250Y-79290000D02*
X164331250Y-79650000D01*
D24*
X161621250Y-60930000D02*
X158011250Y-57320000D01*
X176416250Y-116835000D02*
X170271250Y-122980000D01*
X170271250Y-122980000D02*
X170271250Y-136630000D01*
X158011250Y-57320000D02*
X147891250Y-57320000D01*
D25*
X164041250Y-68810000D02*
X164041250Y-75610000D01*
D24*
X181361250Y-115460000D02*
X182736250Y-116835000D01*
X161621250Y-60490000D02*
X161621250Y-60930000D01*
D25*
X102661250Y-71990000D02*
X104051250Y-73380000D01*
D24*
X122641250Y-60820000D02*
X123581250Y-59880000D01*
X121131250Y-93800000D02*
X123591250Y-91340000D01*
X123581250Y-59880000D02*
X142591250Y-59880000D01*
D25*
X104051250Y-73380000D02*
X106111250Y-73380000D01*
X164041250Y-75610000D02*
X162531250Y-77120000D01*
D24*
X145941250Y-59270000D02*
X145941250Y-61830000D01*
D25*
X162531250Y-77490000D02*
X164331250Y-79290000D01*
D24*
X181361250Y-107750000D02*
X181361250Y-115460000D01*
X183136250Y-105975000D02*
X181361250Y-107750000D01*
X121641250Y-60890000D02*
X122641250Y-61890000D01*
X123591250Y-91340000D02*
X135731250Y-91340000D01*
X182736250Y-116835000D02*
X184341250Y-116835000D01*
X183878750Y-105975000D02*
X183136250Y-105975000D01*
X184341250Y-116835000D02*
X176416250Y-116835000D01*
X122641250Y-61890000D02*
X122641250Y-60820000D01*
%TO.N,+5V*%
X119321250Y-70290000D02*
X120941250Y-68670000D01*
X147521250Y-68080000D02*
X121531250Y-68080000D01*
X160851250Y-88220000D02*
X160851250Y-88860000D01*
X160851250Y-82870000D02*
X160851250Y-85590000D01*
X111071250Y-70290000D02*
X119321250Y-70290000D01*
X152431250Y-70120000D02*
X152431250Y-77920000D01*
X153821250Y-79310000D02*
X157291250Y-79310000D01*
X166461250Y-81530000D02*
X162060136Y-81530000D01*
X145941250Y-66910000D02*
X147111250Y-68080000D01*
X147111250Y-68080000D02*
X147521250Y-68080000D01*
X163951250Y-91960000D02*
X164231250Y-91960000D01*
X109291250Y-68510000D02*
X111071250Y-70290000D01*
X121531250Y-68080000D02*
X120941250Y-68670000D01*
X153531250Y-68080000D02*
X154001250Y-68550000D01*
X147521250Y-68080000D02*
X153531250Y-68080000D01*
X160851250Y-82738886D02*
X160851250Y-88220000D01*
X164231250Y-91960000D02*
X171271250Y-91960000D01*
X106421250Y-68510000D02*
X109291250Y-68510000D01*
X120941250Y-68670000D02*
X122641250Y-66970000D01*
X160851250Y-85590000D02*
X160851250Y-88220000D01*
X171271250Y-91960000D02*
G75*
G03*
X174081200Y-89150000I-50J2810000D01*
G01*
X154001250Y-68550000D02*
G75*
G03*
X152431200Y-70120000I-50J-1570000D01*
G01*
X162060136Y-81530000D02*
G75*
G03*
X160851200Y-82738886I-36J-1208900D01*
G01*
X160851250Y-88860000D02*
G75*
G03*
X163951250Y-91960050I3100050J0D01*
G01*
X157291250Y-79310000D02*
G75*
G02*
X160851200Y-82870000I-50J-3560000D01*
G01*
X152431250Y-77920000D02*
G75*
G03*
X153821250Y-79310050I1390050J0D01*
G01*
D26*
%TO.N,Net-(U2-THR)*%
X156541250Y-60930000D02*
X161621250Y-66010000D01*
X154001250Y-60930000D02*
X156541250Y-60930000D01*
D25*
X136561250Y-66240000D02*
X139331250Y-63470000D01*
X121861250Y-65390000D02*
X128621250Y-65390000D01*
X139831250Y-62970000D02*
X144571250Y-62970000D01*
D26*
X106421250Y-60890000D02*
X108961250Y-60890000D01*
X165991250Y-66010000D02*
X161621250Y-66010000D01*
D25*
X144571250Y-62970000D02*
X144961250Y-62970000D01*
X129471250Y-66240000D02*
X136561250Y-66240000D01*
D26*
X171541250Y-81530000D02*
X171551250Y-81520000D01*
X108961250Y-60890000D02*
X114041250Y-65970000D01*
X171551250Y-71570000D02*
X165991250Y-66010000D01*
X171551250Y-81520000D02*
X171551250Y-71570000D01*
D25*
X150651250Y-63380000D02*
X151361250Y-62670000D01*
X145371250Y-63380000D02*
X150651250Y-63380000D01*
D26*
X169001250Y-86380000D02*
X169001250Y-89150000D01*
D25*
X121281250Y-65970000D02*
X121861250Y-65390000D01*
X139331250Y-63470000D02*
X139831250Y-62970000D01*
X114041250Y-65970000D02*
X121281250Y-65970000D01*
X128621250Y-65390000D02*
X129471250Y-66240000D01*
D26*
X171541250Y-81530000D02*
X171541250Y-83840000D01*
D25*
X144961250Y-62970000D02*
X145371250Y-63380000D01*
D26*
X171541250Y-83840000D02*
G75*
G02*
X170611250Y-84770050I-930050J0D01*
G01*
X170611250Y-84770000D02*
G75*
G03*
X169001200Y-86380000I-50J-1610000D01*
G01*
%TO.N,Net-(U3A-+)*%
X154001250Y-63470000D02*
X152171250Y-61640000D01*
X153781250Y-63470000D02*
X152881250Y-64370000D01*
X154001250Y-63470000D02*
X153781250Y-63470000D01*
X156911250Y-58760000D02*
X161621250Y-63470000D01*
X152791250Y-58760000D02*
X156911250Y-58760000D01*
X152171250Y-59380000D02*
X152791250Y-58760000D01*
X152881250Y-64370000D02*
X143401250Y-64370000D01*
X152171250Y-61640000D02*
X152171250Y-59380000D01*
D25*
%TO.N,+12V*%
X186881250Y-69540000D02*
X189311250Y-71970000D01*
D24*
X186126250Y-114295000D02*
X184341250Y-114295000D01*
D25*
X189311250Y-91570000D02*
X183878750Y-97002500D01*
X189311250Y-71970000D02*
X189311250Y-91570000D01*
D24*
X113502444Y-89780000D02*
X113522444Y-89800000D01*
X181493750Y-103360000D02*
X162566250Y-103360000D01*
X154191250Y-94985000D02*
X154191250Y-93380000D01*
D26*
X103441250Y-70790000D02*
X103161250Y-70510000D01*
D24*
X187051250Y-104147500D02*
X187051250Y-113370000D01*
D25*
X172811250Y-69060000D02*
X173291250Y-69540000D01*
X115281250Y-88700000D02*
X116381250Y-89800000D01*
D26*
X110231250Y-71210000D02*
X109811250Y-70790000D01*
D24*
X162566250Y-103360000D02*
X154191250Y-94985000D01*
X187051250Y-113370000D02*
X186126250Y-114295000D01*
D26*
X109811250Y-70790000D02*
X103441250Y-70790000D01*
D25*
X115281250Y-78970000D02*
X115281250Y-88700000D01*
D24*
X150571261Y-89800000D02*
X150591261Y-89780000D01*
X116381250Y-89800000D02*
X150571261Y-89800000D01*
D25*
X173291250Y-69540000D02*
X186881250Y-69540000D01*
X113701250Y-77390000D02*
X115281250Y-78970000D01*
D24*
X183878750Y-100975000D02*
X187051250Y-104147500D01*
X110961250Y-93890000D02*
X110961250Y-92321194D01*
D25*
X183878750Y-97002500D02*
X183878750Y-100975000D01*
D24*
X183878750Y-100975000D02*
X181493750Y-103360000D01*
X113522444Y-89800000D02*
X116381250Y-89800000D01*
X150591261Y-89780000D02*
G75*
G02*
X154191300Y-93380000I39J-3600000D01*
G01*
X110961250Y-92321194D02*
G75*
G02*
X113502444Y-89780050I2541150J-6D01*
G01*
D26*
%TO.N,Net-(U4A-+)*%
X114041250Y-63430000D02*
X119101250Y-63430000D01*
X104821250Y-61830000D02*
X106421250Y-63430000D01*
D25*
X116381250Y-77810000D02*
X117671250Y-76520000D01*
X116381250Y-78140000D02*
X116381250Y-77810000D01*
D26*
X114041250Y-63430000D02*
X109541250Y-58930000D01*
X109541250Y-58930000D02*
X105861250Y-58930000D01*
X105861250Y-58930000D02*
X104821250Y-59970000D01*
X104821250Y-59970000D02*
X104821250Y-61830000D01*
X119101250Y-63430000D02*
G75*
G02*
X120101300Y-64430000I50J-1000000D01*
G01*
D24*
%TO.N,Net-(Q1-S)*%
X142626250Y-97300000D02*
X140311250Y-94985000D01*
X151651250Y-95640000D02*
X149991250Y-97300000D01*
X140311250Y-94985000D02*
X140311250Y-93380000D01*
X151651250Y-93380000D02*
X151651250Y-95640000D01*
X149991250Y-97300000D02*
X142626250Y-97300000D01*
%TO.N,Net-(Q3-S)*%
X110961250Y-97520000D02*
X121311250Y-97520000D01*
X108421250Y-94980000D02*
X110961250Y-97520000D01*
X123671250Y-95160000D02*
X123671250Y-93800000D01*
X121311250Y-97520000D02*
X123671250Y-95160000D01*
X108421250Y-93890000D02*
X108421250Y-94980000D01*
D25*
%TO.N,Net-(D2-K)*%
X134251250Y-56590000D02*
X168881250Y-56590000D01*
X133766250Y-57075000D02*
X134251250Y-56590000D01*
X168881250Y-56590000D02*
X172401250Y-60110000D01*
%TO.N,Net-(D2-A)*%
X139390000Y-82560000D02*
X139050000Y-82900000D01*
X139050000Y-82900000D02*
X139050000Y-83570000D01*
X141960000Y-82560000D02*
X139390000Y-82560000D01*
%TO.N,Net-(D4-K)*%
X106511250Y-79920000D02*
X113311250Y-79920000D01*
X118101250Y-83850000D02*
X121401250Y-87150000D01*
X102741250Y-76150000D02*
X106511250Y-79920000D01*
X121401250Y-87150000D02*
X121401250Y-88030000D01*
%TO.N,Net-(U5-HI)*%
X176611250Y-58420000D02*
X177651250Y-59460000D01*
X172991250Y-58420000D02*
X176611250Y-58420000D01*
%TO.N,Net-(U6-LI)*%
X100011250Y-74050000D02*
X97141250Y-71180000D01*
X109641250Y-74050000D02*
X100011250Y-74050000D01*
X109671250Y-74020000D02*
X109641250Y-74050000D01*
X112291250Y-74020000D02*
X109671250Y-74020000D01*
%TD*%
%TA.AperFunction,Conductor*%
%TO.N,GND*%
G36*
X170342695Y-82073865D02*
G01*
X170381735Y-82118919D01*
X170428965Y-82211614D01*
X170549278Y-82377213D01*
X170694034Y-82521969D01*
X170789635Y-82591426D01*
X170832301Y-82646755D01*
X170840750Y-82691744D01*
X170840750Y-83830238D01*
X170839223Y-83849637D01*
X170832586Y-83891538D01*
X170820600Y-83928430D01*
X170805830Y-83957420D01*
X170783024Y-83988810D01*
X170760014Y-84011820D01*
X170728635Y-84034620D01*
X170699644Y-84049394D01*
X170662747Y-84061385D01*
X170649735Y-84063446D01*
X170621170Y-84067972D01*
X170601774Y-84069500D01*
X170559918Y-84069501D01*
X170559918Y-84069502D01*
X170525841Y-84069504D01*
X170525079Y-84069546D01*
X170471509Y-84069546D01*
X170194040Y-84103228D01*
X170194032Y-84103229D01*
X170194031Y-84103230D01*
X169922633Y-84170116D01*
X169922625Y-84170118D01*
X169661277Y-84269227D01*
X169526930Y-84339735D01*
X169413772Y-84399122D01*
X169413770Y-84399123D01*
X169413763Y-84399127D01*
X169413762Y-84399128D01*
X169183738Y-84557895D01*
X169183730Y-84557901D01*
X169183730Y-84557902D01*
X169113931Y-84619737D01*
X168974503Y-84743255D01*
X168789143Y-84952477D01*
X168789141Y-84952479D01*
X168630364Y-85182501D01*
X168630360Y-85182508D01*
X168500457Y-85430012D01*
X168500456Y-85430014D01*
X168401337Y-85691366D01*
X168334442Y-85962763D01*
X168300750Y-86240238D01*
X168300750Y-87988255D01*
X168281065Y-88055294D01*
X168249635Y-88088573D01*
X168154037Y-88158028D01*
X168154032Y-88158032D01*
X168009282Y-88302782D01*
X167940866Y-88396949D01*
X167885536Y-88439614D01*
X167815922Y-88445593D01*
X167754127Y-88412987D01*
X167722842Y-88363067D01*
X167695608Y-88280880D01*
X167695606Y-88280875D01*
X167603565Y-88131654D01*
X167479595Y-88007684D01*
X167330374Y-87915643D01*
X167330369Y-87915641D01*
X167163947Y-87860494D01*
X167163940Y-87860493D01*
X167061236Y-87850000D01*
X166711250Y-87850000D01*
X166711250Y-88834314D01*
X166706856Y-88829920D01*
X166615644Y-88777259D01*
X166513911Y-88750000D01*
X166408589Y-88750000D01*
X166306856Y-88777259D01*
X166215644Y-88829920D01*
X166211250Y-88834314D01*
X166211250Y-87850000D01*
X165861278Y-87850000D01*
X165861262Y-87850001D01*
X165758552Y-87860494D01*
X165592130Y-87915641D01*
X165592125Y-87915643D01*
X165442904Y-88007684D01*
X165318934Y-88131654D01*
X165226893Y-88280875D01*
X165226891Y-88280880D01*
X165171744Y-88447302D01*
X165171743Y-88447309D01*
X165161250Y-88550013D01*
X165161250Y-88900000D01*
X166145564Y-88900000D01*
X166141170Y-88904394D01*
X166088509Y-88995606D01*
X166061250Y-89097339D01*
X166061250Y-89202661D01*
X166088509Y-89304394D01*
X166141170Y-89395606D01*
X166145564Y-89400000D01*
X165161251Y-89400000D01*
X165161251Y-89749986D01*
X165171744Y-89852697D01*
X165226891Y-90019119D01*
X165226893Y-90019124D01*
X165318934Y-90168345D01*
X165442904Y-90292315D01*
X165592125Y-90384356D01*
X165592130Y-90384358D01*
X165758552Y-90439505D01*
X165758559Y-90439506D01*
X165861269Y-90449999D01*
X166211249Y-90449999D01*
X166211250Y-90449998D01*
X166211250Y-89465686D01*
X166215644Y-89470080D01*
X166306856Y-89522741D01*
X166408589Y-89550000D01*
X166513911Y-89550000D01*
X166615644Y-89522741D01*
X166706856Y-89470080D01*
X166711250Y-89465686D01*
X166711250Y-90449999D01*
X167061222Y-90449999D01*
X167061236Y-90449998D01*
X167163947Y-90439505D01*
X167330369Y-90384358D01*
X167330374Y-90384356D01*
X167479595Y-90292315D01*
X167603565Y-90168345D01*
X167695606Y-90019124D01*
X167695609Y-90019117D01*
X167722842Y-89936932D01*
X167762614Y-89879487D01*
X167827129Y-89852663D01*
X167895905Y-89864977D01*
X167940866Y-89903049D01*
X168009280Y-89997213D01*
X168009284Y-89997219D01*
X168154036Y-90141971D01*
X168290829Y-90241355D01*
X168319640Y-90262287D01*
X168435857Y-90321503D01*
X168502026Y-90355218D01*
X168502028Y-90355218D01*
X168502031Y-90355220D01*
X168591709Y-90384358D01*
X168696715Y-90418477D01*
X168797807Y-90434488D01*
X168898898Y-90450500D01*
X168898899Y-90450500D01*
X169103601Y-90450500D01*
X169103602Y-90450500D01*
X169305784Y-90418477D01*
X169500469Y-90355220D01*
X169682860Y-90262287D01*
X169790878Y-90183808D01*
X169848463Y-90141971D01*
X169848465Y-90141968D01*
X169848469Y-90141966D01*
X169993216Y-89997219D01*
X169993218Y-89997215D01*
X169993221Y-89997213D01*
X170113534Y-89831614D01*
X170113535Y-89831613D01*
X170113537Y-89831610D01*
X170160766Y-89738917D01*
X170208739Y-89688123D01*
X170276560Y-89671328D01*
X170342695Y-89693865D01*
X170381733Y-89738917D01*
X170395241Y-89765426D01*
X170428965Y-89831614D01*
X170549278Y-89997213D01*
X170694036Y-90141971D01*
X170830829Y-90241355D01*
X170859640Y-90262287D01*
X170975857Y-90321503D01*
X171042026Y-90355218D01*
X171042028Y-90355218D01*
X171042031Y-90355220D01*
X171131709Y-90384358D01*
X171236715Y-90418477D01*
X171337807Y-90434488D01*
X171438898Y-90450500D01*
X171438899Y-90450500D01*
X171643601Y-90450500D01*
X171643602Y-90450500D01*
X171845784Y-90418477D01*
X172040469Y-90355220D01*
X172222860Y-90262287D01*
X172330878Y-90183808D01*
X172388463Y-90141971D01*
X172388465Y-90141968D01*
X172388469Y-90141966D01*
X172533216Y-89997219D01*
X172533218Y-89997215D01*
X172533221Y-89997213D01*
X172653534Y-89831614D01*
X172653535Y-89831613D01*
X172653537Y-89831610D01*
X172700766Y-89738917D01*
X172706589Y-89732751D01*
X172709251Y-89724701D01*
X172730215Y-89707736D01*
X172748739Y-89688123D01*
X172756971Y-89686084D01*
X172763565Y-89680749D01*
X172790378Y-89677811D01*
X172816560Y-89671328D01*
X172824587Y-89674063D01*
X172833019Y-89673140D01*
X172857162Y-89685164D01*
X172882695Y-89693865D01*
X172889599Y-89701318D01*
X172895561Y-89704288D01*
X172909798Y-89723125D01*
X172917763Y-89731724D01*
X172919866Y-89735253D01*
X172968963Y-89831610D01*
X173015406Y-89895534D01*
X173018291Y-89900374D01*
X173025652Y-89928972D01*
X173035576Y-89956786D01*
X173034356Y-89962786D01*
X173035708Y-89968038D01*
X173029428Y-89987033D01*
X173022991Y-90018706D01*
X172971820Y-90122475D01*
X172963710Y-90136523D01*
X172830338Y-90336130D01*
X172820464Y-90348998D01*
X172662180Y-90529489D01*
X172650711Y-90540958D01*
X172470229Y-90699240D01*
X172457361Y-90709115D01*
X172257745Y-90842497D01*
X172243702Y-90850604D01*
X172028405Y-90956781D01*
X172013420Y-90962988D01*
X171786091Y-91040160D01*
X171770424Y-91044358D01*
X171534972Y-91091196D01*
X171518891Y-91093313D01*
X171276055Y-91109234D01*
X171267943Y-91109500D01*
X163955018Y-91109500D01*
X163947529Y-91109274D01*
X163687599Y-91093547D01*
X163672734Y-91091741D01*
X163420311Y-91045478D01*
X163405773Y-91041895D01*
X163160748Y-90965539D01*
X163146748Y-90960229D01*
X162912723Y-90854900D01*
X162899464Y-90847941D01*
X162679839Y-90715170D01*
X162667516Y-90706664D01*
X162465498Y-90548390D01*
X162454290Y-90538461D01*
X162272812Y-90356980D01*
X162262890Y-90345780D01*
X162104608Y-90143744D01*
X162096112Y-90131435D01*
X161963342Y-89911804D01*
X161956383Y-89898546D01*
X161926258Y-89831610D01*
X161851051Y-89664505D01*
X161845750Y-89650528D01*
X161769394Y-89405489D01*
X161765812Y-89390950D01*
X161762155Y-89370995D01*
X161762154Y-89370990D01*
X161721741Y-89150461D01*
X161719552Y-89138519D01*
X161717748Y-89123658D01*
X161713150Y-89047648D01*
X161701975Y-88862903D01*
X161701750Y-88855429D01*
X161701750Y-82747024D01*
X161702811Y-82730837D01*
X161711057Y-82668214D01*
X161711831Y-82662330D01*
X161720210Y-82631063D01*
X161731463Y-82603898D01*
X161743517Y-82574797D01*
X161759696Y-82546775D01*
X161796782Y-82498445D01*
X161819661Y-82475568D01*
X161867982Y-82438491D01*
X161896005Y-82422312D01*
X161952285Y-82399002D01*
X161983538Y-82390628D01*
X162052442Y-82381559D01*
X162068613Y-82380500D01*
X162149502Y-82380503D01*
X162149507Y-82380501D01*
X162156020Y-82380502D01*
X162156077Y-82380500D01*
X165421203Y-82380500D01*
X165488242Y-82400185D01*
X165508884Y-82416819D01*
X165614036Y-82521971D01*
X165755440Y-82624705D01*
X165779640Y-82642287D01*
X165876705Y-82691744D01*
X165962026Y-82735218D01*
X165962028Y-82735218D01*
X165962031Y-82735220D01*
X166066387Y-82769127D01*
X166156715Y-82798477D01*
X166257807Y-82814488D01*
X166358898Y-82830500D01*
X166358899Y-82830500D01*
X166563601Y-82830500D01*
X166563602Y-82830500D01*
X166765784Y-82798477D01*
X166960469Y-82735220D01*
X167142860Y-82642287D01*
X167256505Y-82559720D01*
X167308463Y-82521971D01*
X167308465Y-82521968D01*
X167308469Y-82521966D01*
X167453216Y-82377219D01*
X167453218Y-82377215D01*
X167453221Y-82377213D01*
X167573534Y-82211614D01*
X167573535Y-82211613D01*
X167573537Y-82211610D01*
X167620766Y-82118917D01*
X167668739Y-82068123D01*
X167736560Y-82051328D01*
X167802695Y-82073865D01*
X167841735Y-82118919D01*
X167888965Y-82211614D01*
X168009278Y-82377213D01*
X168154036Y-82521971D01*
X168295440Y-82624705D01*
X168319640Y-82642287D01*
X168416705Y-82691744D01*
X168502026Y-82735218D01*
X168502028Y-82735218D01*
X168502031Y-82735220D01*
X168606387Y-82769127D01*
X168696715Y-82798477D01*
X168797807Y-82814488D01*
X168898898Y-82830500D01*
X168898899Y-82830500D01*
X169103601Y-82830500D01*
X169103602Y-82830500D01*
X169305784Y-82798477D01*
X169500469Y-82735220D01*
X169682860Y-82642287D01*
X169796505Y-82559720D01*
X169848463Y-82521971D01*
X169848465Y-82521968D01*
X169848469Y-82521966D01*
X169993216Y-82377219D01*
X169993218Y-82377215D01*
X169993221Y-82377213D01*
X170113534Y-82211614D01*
X170113535Y-82211613D01*
X170113537Y-82211610D01*
X170160766Y-82118917D01*
X170208739Y-82068123D01*
X170276560Y-82051328D01*
X170342695Y-82073865D01*
G37*
%TD.AperFunction*%
%TA.AperFunction,Conductor*%
G36*
X156266770Y-61650185D02*
G01*
X156287412Y-61666819D01*
X160304444Y-65683851D01*
X160337929Y-65745174D01*
X160339236Y-65790929D01*
X160320750Y-65907647D01*
X160320750Y-66112351D01*
X160352772Y-66314534D01*
X160416031Y-66509223D01*
X160466725Y-66608713D01*
X160488583Y-66651613D01*
X160508965Y-66691613D01*
X160629278Y-66857213D01*
X160629284Y-66857219D01*
X160774031Y-67001966D01*
X160867702Y-67070021D01*
X160910367Y-67125350D01*
X160916346Y-67194963D01*
X160883741Y-67256759D01*
X160833821Y-67288045D01*
X160751916Y-67315186D01*
X160751913Y-67315187D01*
X160602592Y-67407289D01*
X160478539Y-67531342D01*
X160386437Y-67680663D01*
X160386436Y-67680666D01*
X160331251Y-67847203D01*
X160331251Y-67847204D01*
X160331250Y-67847204D01*
X160320750Y-67949983D01*
X160320750Y-69150001D01*
X160320751Y-69150018D01*
X160331250Y-69252796D01*
X160331251Y-69252799D01*
X160386435Y-69419331D01*
X160386437Y-69419336D01*
X160397126Y-69436666D01*
X160478538Y-69568656D01*
X160602594Y-69692712D01*
X160751916Y-69784814D01*
X160918453Y-69839999D01*
X161021241Y-69850500D01*
X162221258Y-69850499D01*
X162324047Y-69839999D01*
X162490584Y-69784814D01*
X162639906Y-69692712D01*
X162763962Y-69568656D01*
X162856064Y-69419334D01*
X162911249Y-69252797D01*
X162921750Y-69150009D01*
X162921749Y-67949992D01*
X162911249Y-67847203D01*
X162856064Y-67680666D01*
X162763962Y-67531344D01*
X162639906Y-67407288D01*
X162490584Y-67315186D01*
X162408677Y-67288044D01*
X162351234Y-67248272D01*
X162324411Y-67183756D01*
X162336726Y-67114980D01*
X162374797Y-67070021D01*
X162468469Y-67001966D01*
X162613216Y-66857219D01*
X162682675Y-66761615D01*
X162738005Y-66718949D01*
X162782994Y-66710500D01*
X165649731Y-66710500D01*
X165716770Y-66730185D01*
X165737412Y-66746819D01*
X170814431Y-71823837D01*
X170847916Y-71885160D01*
X170850750Y-71911518D01*
X170850750Y-80360990D01*
X170831065Y-80428029D01*
X170799635Y-80461308D01*
X170694034Y-80538031D01*
X170694028Y-80538036D01*
X170549278Y-80682786D01*
X170428965Y-80848386D01*
X170381735Y-80941080D01*
X170333760Y-80991876D01*
X170265939Y-81008671D01*
X170199804Y-80986134D01*
X170160765Y-80941080D01*
X170160133Y-80939840D01*
X170113537Y-80848390D01*
X170089172Y-80814854D01*
X169993221Y-80682786D01*
X169848463Y-80538028D01*
X169682863Y-80417715D01*
X169682862Y-80417714D01*
X169682860Y-80417713D01*
X169598672Y-80374817D01*
X169500473Y-80324781D01*
X169305784Y-80261522D01*
X169131245Y-80233878D01*
X169103602Y-80229500D01*
X168898898Y-80229500D01*
X168874579Y-80233351D01*
X168696715Y-80261522D01*
X168502026Y-80324781D01*
X168319636Y-80417715D01*
X168154036Y-80538028D01*
X168009278Y-80682786D01*
X167888965Y-80848386D01*
X167841735Y-80941080D01*
X167793760Y-80991876D01*
X167725939Y-81008671D01*
X167659804Y-80986134D01*
X167620765Y-80941080D01*
X167620133Y-80939840D01*
X167573537Y-80848390D01*
X167549172Y-80814854D01*
X167453221Y-80682786D01*
X167308463Y-80538028D01*
X167142863Y-80417715D01*
X167142862Y-80417714D01*
X167142860Y-80417713D01*
X167058672Y-80374817D01*
X166960473Y-80324781D01*
X166765784Y-80261522D01*
X166591245Y-80233878D01*
X166563602Y-80229500D01*
X166358898Y-80229500D01*
X166334579Y-80233351D01*
X166156715Y-80261522D01*
X165962026Y-80324781D01*
X165779636Y-80417715D01*
X165614036Y-80538028D01*
X165614032Y-80538032D01*
X165508884Y-80643181D01*
X165447561Y-80676666D01*
X165421203Y-80679500D01*
X161970829Y-80679500D01*
X161969863Y-80679546D01*
X161925189Y-80679546D01*
X161925188Y-80679546D01*
X161925183Y-80679546D01*
X161657534Y-80714775D01*
X161632221Y-80721557D01*
X161396773Y-80784638D01*
X161396769Y-80784639D01*
X161323819Y-80814854D01*
X161254349Y-80822320D01*
X161191871Y-80791043D01*
X161165369Y-80755561D01*
X161148440Y-80721561D01*
X161148437Y-80721557D01*
X161148437Y-80721556D01*
X160933751Y-80374823D01*
X160933749Y-80374820D01*
X160933747Y-80374817D01*
X160687990Y-80049378D01*
X160413252Y-79748000D01*
X160111876Y-79473254D01*
X159908275Y-79319500D01*
X159786428Y-79227484D01*
X159571736Y-79094549D01*
X159439697Y-79012792D01*
X159074634Y-78831008D01*
X158694373Y-78683689D01*
X158694352Y-78683682D01*
X158302119Y-78572078D01*
X158302101Y-78572074D01*
X157901246Y-78497136D01*
X157532951Y-78463004D01*
X157495170Y-78459503D01*
X157495168Y-78459502D01*
X157495172Y-78459502D01*
X157380151Y-78459501D01*
X157380151Y-78459500D01*
X157375017Y-78459500D01*
X157291262Y-78459500D01*
X157201871Y-78459499D01*
X157201870Y-78459499D01*
X157195758Y-78459499D01*
X157195738Y-78459500D01*
X153828248Y-78459500D01*
X153814361Y-78458720D01*
X153796756Y-78456735D01*
X153715117Y-78447534D01*
X153688049Y-78441355D01*
X153600393Y-78410681D01*
X153575374Y-78398631D01*
X153496748Y-78349223D01*
X153475041Y-78331912D01*
X153409376Y-78266245D01*
X153392064Y-78244536D01*
X153342657Y-78165903D01*
X153330610Y-78140886D01*
X153316090Y-78099390D01*
X153299938Y-78053227D01*
X153293761Y-78026160D01*
X153291982Y-78010373D01*
X153290160Y-77994200D01*
X153282530Y-77926473D01*
X153281750Y-77912591D01*
X153281750Y-70126093D01*
X153282347Y-70113939D01*
X153291548Y-70020520D01*
X153294378Y-69991788D01*
X153299117Y-69967960D01*
X153332975Y-69856346D01*
X153342270Y-69833908D01*
X153352810Y-69814190D01*
X153401774Y-69764349D01*
X153469912Y-69748890D01*
X153500485Y-69754717D01*
X153502027Y-69755218D01*
X153502031Y-69755220D01*
X153632892Y-69797739D01*
X153696715Y-69818477D01*
X153767814Y-69829738D01*
X153898898Y-69850500D01*
X153898899Y-69850500D01*
X154103601Y-69850500D01*
X154103602Y-69850500D01*
X154305784Y-69818477D01*
X154500469Y-69755220D01*
X154682860Y-69662287D01*
X154775840Y-69594732D01*
X154848463Y-69541971D01*
X154848465Y-69541968D01*
X154848469Y-69541966D01*
X154993216Y-69397219D01*
X154993218Y-69397215D01*
X154993221Y-69397213D01*
X155068574Y-69293497D01*
X155113537Y-69231610D01*
X155206470Y-69049219D01*
X155269727Y-68854534D01*
X155301750Y-68652352D01*
X155301750Y-68447648D01*
X155286379Y-68350602D01*
X155269727Y-68245465D01*
X155206468Y-68050776D01*
X155155115Y-67949991D01*
X155113537Y-67868390D01*
X155099722Y-67849375D01*
X154993221Y-67702786D01*
X154848463Y-67558028D01*
X154682864Y-67437715D01*
X154676256Y-67434348D01*
X154590167Y-67390483D01*
X154539373Y-67342511D01*
X154522578Y-67274690D01*
X154545115Y-67208555D01*
X154590167Y-67169516D01*
X154682860Y-67122287D01*
X154730255Y-67087853D01*
X154848463Y-67001971D01*
X154848465Y-67001968D01*
X154848469Y-67001966D01*
X154993216Y-66857219D01*
X154993218Y-66857215D01*
X154993221Y-66857213D01*
X155062675Y-66761616D01*
X155113537Y-66691610D01*
X155206470Y-66509219D01*
X155269727Y-66314534D01*
X155301750Y-66112352D01*
X155301750Y-65907648D01*
X155269727Y-65705466D01*
X155264539Y-65689500D01*
X155206468Y-65510776D01*
X155144534Y-65389225D01*
X155113537Y-65328390D01*
X155069215Y-65267385D01*
X154993221Y-65162786D01*
X154848463Y-65018028D01*
X154682864Y-64897715D01*
X154645382Y-64878617D01*
X154590167Y-64850483D01*
X154539373Y-64802511D01*
X154522578Y-64734690D01*
X154545115Y-64668555D01*
X154590167Y-64629516D01*
X154682860Y-64582287D01*
X154737920Y-64542284D01*
X154848463Y-64461971D01*
X154848465Y-64461968D01*
X154848469Y-64461966D01*
X154993216Y-64317219D01*
X154993218Y-64317215D01*
X154993221Y-64317213D01*
X155076208Y-64202989D01*
X155113537Y-64151610D01*
X155206470Y-63969219D01*
X155269727Y-63774534D01*
X155301750Y-63572352D01*
X155301750Y-63367648D01*
X155289735Y-63291789D01*
X155269727Y-63165465D01*
X155222662Y-63020616D01*
X155206470Y-62970781D01*
X155206468Y-62970778D01*
X155206468Y-62970776D01*
X155172183Y-62903489D01*
X155113537Y-62788390D01*
X155084473Y-62748386D01*
X154993221Y-62622786D01*
X154848463Y-62478028D01*
X154682864Y-62357715D01*
X154641926Y-62336856D01*
X154590167Y-62310483D01*
X154539373Y-62262511D01*
X154522578Y-62194690D01*
X154545115Y-62128555D01*
X154590167Y-62089516D01*
X154682860Y-62042287D01*
X154738502Y-62001861D01*
X154848463Y-61921971D01*
X154848465Y-61921968D01*
X154848469Y-61921966D01*
X154993216Y-61777219D01*
X155062675Y-61681615D01*
X155118005Y-61638949D01*
X155162994Y-61630500D01*
X156199731Y-61630500D01*
X156266770Y-61650185D01*
G37*
%TD.AperFunction*%
%TA.AperFunction,Conductor*%
G36*
X191109646Y-54703505D02*
G01*
X191176680Y-54723203D01*
X191222424Y-54776017D01*
X191232353Y-54845177D01*
X191203315Y-54908727D01*
X191150574Y-54944546D01*
X190865491Y-55044302D01*
X190592221Y-55175902D01*
X190335397Y-55337276D01*
X190098256Y-55526389D01*
X189883780Y-55740865D01*
X189694667Y-55978006D01*
X189533293Y-56234830D01*
X189401693Y-56508100D01*
X189301517Y-56794385D01*
X189301513Y-56794397D01*
X189234020Y-57090106D01*
X189234017Y-57090120D01*
X189200060Y-57391505D01*
X189200060Y-57694832D01*
X189234017Y-57996217D01*
X189234020Y-57996231D01*
X189301513Y-58291940D01*
X189301517Y-58291952D01*
X189401693Y-58578237D01*
X189533293Y-58851507D01*
X189533295Y-58851510D01*
X189694668Y-59108333D01*
X189784118Y-59220500D01*
X189844662Y-59296420D01*
X189883781Y-59345473D01*
X190098256Y-59559948D01*
X190335396Y-59749061D01*
X190592219Y-59910434D01*
X190865495Y-60042037D01*
X190981944Y-60082784D01*
X191151776Y-60142211D01*
X191151788Y-60142215D01*
X191447497Y-60209709D01*
X191447506Y-60209710D01*
X191447511Y-60209711D01*
X191648434Y-60232349D01*
X191748897Y-60243668D01*
X191748900Y-60243669D01*
X191748903Y-60243669D01*
X192052220Y-60243669D01*
X192052221Y-60243668D01*
X192242451Y-60222235D01*
X192353608Y-60209711D01*
X192353611Y-60209710D01*
X192353623Y-60209709D01*
X192649332Y-60142215D01*
X192935625Y-60042037D01*
X193208901Y-59910434D01*
X193465724Y-59749061D01*
X193702864Y-59559948D01*
X193917339Y-59345473D01*
X194106452Y-59108333D01*
X194267825Y-58851510D01*
X194399428Y-58578234D01*
X194483890Y-58336856D01*
X194498262Y-58295783D01*
X194538983Y-58239007D01*
X194603936Y-58213260D01*
X194672498Y-58226716D01*
X194722900Y-58275104D01*
X194739303Y-58336856D01*
X194661165Y-140413719D01*
X194641417Y-140480740D01*
X194588569Y-140526444D01*
X194519401Y-140536322D01*
X194455873Y-140507237D01*
X194432171Y-140479573D01*
X194295247Y-140261661D01*
X194282618Y-140241562D01*
X194093505Y-140004422D01*
X193879030Y-139789947D01*
X193641890Y-139600834D01*
X193385067Y-139439461D01*
X193385064Y-139439459D01*
X193111794Y-139307859D01*
X192825509Y-139207683D01*
X192825497Y-139207679D01*
X192597282Y-139155590D01*
X192529789Y-139140186D01*
X192529786Y-139140185D01*
X192529774Y-139140183D01*
X192228389Y-139106226D01*
X192228383Y-139106226D01*
X191925069Y-139106226D01*
X191925062Y-139106226D01*
X191623677Y-139140183D01*
X191623663Y-139140186D01*
X191327954Y-139207679D01*
X191327942Y-139207683D01*
X191041657Y-139307859D01*
X190768387Y-139439459D01*
X190511563Y-139600833D01*
X190274422Y-139789946D01*
X190059946Y-140004422D01*
X189870833Y-140241563D01*
X189709459Y-140498387D01*
X189577859Y-140771657D01*
X189477683Y-141057942D01*
X189477679Y-141057954D01*
X189410186Y-141353663D01*
X189410183Y-141353677D01*
X189376226Y-141655062D01*
X189376226Y-141958389D01*
X189410183Y-142259774D01*
X189410186Y-142259788D01*
X189477679Y-142555497D01*
X189477683Y-142555509D01*
X189577859Y-142841794D01*
X189709459Y-143115064D01*
X189722089Y-143135164D01*
X189870834Y-143371890D01*
X190059947Y-143609030D01*
X190274422Y-143823505D01*
X190511562Y-144012618D01*
X190768385Y-144173991D01*
X191041661Y-144305594D01*
X191225838Y-144370040D01*
X191317442Y-144402094D01*
X191374218Y-144442815D01*
X191399965Y-144507768D01*
X191386509Y-144576330D01*
X191338121Y-144626732D01*
X191276487Y-144643135D01*
X88124701Y-144643106D01*
X88110457Y-144643106D01*
X88102279Y-144641202D01*
X88044680Y-144643106D01*
X88024310Y-144643106D01*
X88021779Y-144643080D01*
X87736755Y-144637260D01*
X87723539Y-144636282D01*
X87432814Y-144599061D01*
X87419777Y-144596678D01*
X87134695Y-144528645D01*
X87121988Y-144524885D01*
X86845773Y-144426810D01*
X86833540Y-144421714D01*
X86569384Y-144294728D01*
X86557780Y-144288365D01*
X86308668Y-144133902D01*
X86297804Y-144126334D01*
X86066606Y-143946175D01*
X86056603Y-143937482D01*
X85845962Y-143733687D01*
X85836944Y-143723977D01*
X85649250Y-143498861D01*
X85641320Y-143488244D01*
X85478726Y-143244390D01*
X85471973Y-143232986D01*
X85420903Y-143135164D01*
X85336325Y-142973157D01*
X85330831Y-142961103D01*
X85292732Y-142864092D01*
X85286548Y-142794497D01*
X85318972Y-142732606D01*
X85379709Y-142698070D01*
X85449476Y-142701853D01*
X85506123Y-142742755D01*
X85519870Y-142764962D01*
X85574469Y-142878338D01*
X85574471Y-142878341D01*
X85735844Y-143135164D01*
X85924957Y-143372304D01*
X86139432Y-143586779D01*
X86376572Y-143775892D01*
X86633395Y-143937265D01*
X86906671Y-144068868D01*
X87092548Y-144133909D01*
X87192952Y-144169042D01*
X87192964Y-144169046D01*
X87488673Y-144236540D01*
X87488682Y-144236541D01*
X87488687Y-144236542D01*
X87689610Y-144259180D01*
X87790073Y-144270499D01*
X87790076Y-144270500D01*
X87790079Y-144270500D01*
X88093396Y-144270500D01*
X88093397Y-144270499D01*
X88247430Y-144253144D01*
X88394784Y-144236542D01*
X88394787Y-144236541D01*
X88394799Y-144236540D01*
X88690508Y-144169046D01*
X88976801Y-144068868D01*
X89250077Y-143937265D01*
X89506900Y-143775892D01*
X89744040Y-143586779D01*
X89958515Y-143372304D01*
X90147628Y-143135164D01*
X90309001Y-142878341D01*
X90440604Y-142605065D01*
X90540782Y-142318772D01*
X90608276Y-142023063D01*
X90642236Y-141721657D01*
X90642236Y-141418343D01*
X90608276Y-141116937D01*
X90540782Y-140821228D01*
X90440604Y-140534935D01*
X90309001Y-140261659D01*
X90147628Y-140004836D01*
X89958515Y-139767696D01*
X89744040Y-139553221D01*
X89506900Y-139364108D01*
X89250077Y-139202735D01*
X89250074Y-139202733D01*
X88976804Y-139071133D01*
X88690519Y-138970957D01*
X88690507Y-138970953D01*
X88462292Y-138918864D01*
X88394799Y-138903460D01*
X88394796Y-138903459D01*
X88394784Y-138903457D01*
X88093399Y-138869500D01*
X88093393Y-138869500D01*
X87790079Y-138869500D01*
X87790072Y-138869500D01*
X87488687Y-138903457D01*
X87488673Y-138903460D01*
X87192964Y-138970953D01*
X87192952Y-138970957D01*
X86906667Y-139071133D01*
X86633397Y-139202733D01*
X86376573Y-139364107D01*
X86139432Y-139553220D01*
X85924956Y-139767696D01*
X85735843Y-140004837D01*
X85574469Y-140261661D01*
X85442869Y-140534931D01*
X85342693Y-140821216D01*
X85342689Y-140821229D01*
X85319917Y-140920999D01*
X85285808Y-140981978D01*
X85224146Y-141014835D01*
X85154509Y-141009139D01*
X85099006Y-140966699D01*
X85075258Y-140900989D01*
X85075026Y-140893429D01*
X85074844Y-135467484D01*
X94010750Y-135467484D01*
X94010750Y-137867515D01*
X94021250Y-137970295D01*
X94021251Y-137970296D01*
X94076436Y-138136835D01*
X94076437Y-138136837D01*
X94168536Y-138286151D01*
X94168539Y-138286155D01*
X94292594Y-138410210D01*
X94292598Y-138410213D01*
X94441912Y-138502312D01*
X94441914Y-138502313D01*
X94441916Y-138502314D01*
X94608453Y-138557499D01*
X94711242Y-138568000D01*
X94711247Y-138568000D01*
X97111253Y-138568000D01*
X97111258Y-138568000D01*
X97214047Y-138557499D01*
X97380584Y-138502314D01*
X97529905Y-138410211D01*
X97653961Y-138286155D01*
X97746064Y-138136834D01*
X97801249Y-137970297D01*
X97811750Y-137867508D01*
X97811750Y-136542966D01*
X99011250Y-136542966D01*
X99011250Y-136792033D01*
X99043758Y-137038963D01*
X99108223Y-137279549D01*
X99203533Y-137509648D01*
X99203538Y-137509659D01*
X99328063Y-137725341D01*
X99328069Y-137725349D01*
X99402650Y-137822545D01*
X100310208Y-136914987D01*
X100335228Y-136975390D01*
X100406362Y-137081851D01*
X100496899Y-137172388D01*
X100603360Y-137243522D01*
X100663761Y-137268541D01*
X99756203Y-138176098D01*
X99853400Y-138250680D01*
X99853408Y-138250686D01*
X100069090Y-138375211D01*
X100069101Y-138375216D01*
X100299200Y-138470526D01*
X100539786Y-138534991D01*
X100786716Y-138567500D01*
X101035784Y-138567500D01*
X101282713Y-138534991D01*
X101523299Y-138470526D01*
X101753398Y-138375216D01*
X101753409Y-138375211D01*
X101969105Y-138250678D01*
X102066295Y-138176100D01*
X102066295Y-138176097D01*
X101158738Y-137268541D01*
X101219140Y-137243522D01*
X101325601Y-137172388D01*
X101416138Y-137081851D01*
X101487272Y-136975390D01*
X101512291Y-136914988D01*
X102419847Y-137822545D01*
X102419850Y-137822545D01*
X102494428Y-137725355D01*
X102618961Y-137509659D01*
X102618966Y-137509648D01*
X102714276Y-137279549D01*
X102778741Y-137038963D01*
X102811250Y-136792033D01*
X102811250Y-136542966D01*
X102778741Y-136296036D01*
X102714276Y-136055450D01*
X102618966Y-135825351D01*
X102618961Y-135825340D01*
X102494436Y-135609658D01*
X102494424Y-135609640D01*
X102419848Y-135512453D01*
X101512291Y-136420010D01*
X101487272Y-136359610D01*
X101416138Y-136253149D01*
X101325601Y-136162612D01*
X101219140Y-136091478D01*
X101158737Y-136066457D01*
X101795211Y-135429984D01*
X163370750Y-135429984D01*
X163370750Y-137830015D01*
X163381250Y-137932795D01*
X163381251Y-137932796D01*
X163436436Y-138099335D01*
X163436437Y-138099337D01*
X163528536Y-138248651D01*
X163528539Y-138248655D01*
X163652594Y-138372710D01*
X163652598Y-138372713D01*
X163801912Y-138464812D01*
X163801914Y-138464813D01*
X163801916Y-138464814D01*
X163968453Y-138519999D01*
X164071242Y-138530500D01*
X164071247Y-138530500D01*
X166471253Y-138530500D01*
X166471258Y-138530500D01*
X166574047Y-138519999D01*
X166740584Y-138464814D01*
X166889905Y-138372711D01*
X167013961Y-138248655D01*
X167106064Y-138099334D01*
X167161249Y-137932797D01*
X167171750Y-137830008D01*
X167171750Y-136505466D01*
X168371250Y-136505466D01*
X168371250Y-136754533D01*
X168403758Y-137001463D01*
X168468223Y-137242049D01*
X168563533Y-137472148D01*
X168563538Y-137472159D01*
X168688063Y-137687841D01*
X168688069Y-137687849D01*
X168762650Y-137785045D01*
X169670208Y-136877487D01*
X169695228Y-136937890D01*
X169766362Y-137044351D01*
X169856899Y-137134888D01*
X169963360Y-137206022D01*
X170023761Y-137231041D01*
X169116203Y-138138598D01*
X169213400Y-138213180D01*
X169213408Y-138213186D01*
X169429090Y-138337711D01*
X169429101Y-138337716D01*
X169659200Y-138433026D01*
X169899786Y-138497491D01*
X170146716Y-138530000D01*
X170395784Y-138530000D01*
X170642713Y-138497491D01*
X170883299Y-138433026D01*
X171113398Y-138337716D01*
X171113409Y-138337711D01*
X171329105Y-138213178D01*
X171426295Y-138138600D01*
X171426295Y-138138597D01*
X170518738Y-137231041D01*
X170579140Y-137206022D01*
X170685601Y-137134888D01*
X170776138Y-137044351D01*
X170847272Y-136937890D01*
X170872291Y-136877489D01*
X171779847Y-137785045D01*
X171779850Y-137785045D01*
X171854428Y-137687855D01*
X171978961Y-137472159D01*
X171978966Y-137472148D01*
X172074276Y-137242049D01*
X172138741Y-137001463D01*
X172171250Y-136754533D01*
X172171250Y-136505466D01*
X172138741Y-136258536D01*
X172074276Y-136017950D01*
X171978966Y-135787851D01*
X171978961Y-135787840D01*
X171854436Y-135572158D01*
X171854430Y-135572150D01*
X171779848Y-135474953D01*
X170872291Y-136382510D01*
X170847272Y-136322110D01*
X170776138Y-136215649D01*
X170685601Y-136125112D01*
X170579140Y-136053978D01*
X170518737Y-136028957D01*
X171426295Y-135121400D01*
X171329099Y-135046819D01*
X171329091Y-135046813D01*
X171113409Y-134922288D01*
X171113398Y-134922283D01*
X170883299Y-134826973D01*
X170642713Y-134762508D01*
X170395784Y-134730000D01*
X170146716Y-134730000D01*
X169899786Y-134762508D01*
X169659200Y-134826973D01*
X169429101Y-134922283D01*
X169429097Y-134922285D01*
X169213393Y-135046823D01*
X169116203Y-135121399D01*
X169116203Y-135121400D01*
X170023761Y-136028958D01*
X169963360Y-136053978D01*
X169856899Y-136125112D01*
X169766362Y-136215649D01*
X169695228Y-136322110D01*
X169670208Y-136382511D01*
X168762650Y-135474953D01*
X168762649Y-135474953D01*
X168688073Y-135572143D01*
X168563535Y-135787847D01*
X168563533Y-135787851D01*
X168468223Y-136017950D01*
X168403758Y-136258536D01*
X168371250Y-136505466D01*
X167171750Y-136505466D01*
X167171750Y-135429992D01*
X167161249Y-135327203D01*
X167106064Y-135160666D01*
X167104974Y-135158899D01*
X167013963Y-135011348D01*
X167013960Y-135011344D01*
X166889905Y-134887289D01*
X166889901Y-134887286D01*
X166740587Y-134795187D01*
X166740585Y-134795186D01*
X166655524Y-134767000D01*
X166574047Y-134740001D01*
X166574045Y-134740000D01*
X166471265Y-134729500D01*
X166471258Y-134729500D01*
X164071242Y-134729500D01*
X164071234Y-134729500D01*
X163968454Y-134740000D01*
X163968453Y-134740001D01*
X163801914Y-134795186D01*
X163801912Y-134795187D01*
X163652598Y-134887286D01*
X163652594Y-134887289D01*
X163528539Y-135011344D01*
X163528536Y-135011348D01*
X163436437Y-135160662D01*
X163436436Y-135160664D01*
X163381251Y-135327203D01*
X163381250Y-135327204D01*
X163370750Y-135429984D01*
X101795211Y-135429984D01*
X102066295Y-135158900D01*
X101969099Y-135084319D01*
X101969091Y-135084313D01*
X101753409Y-134959788D01*
X101753398Y-134959783D01*
X101523299Y-134864473D01*
X101282713Y-134800008D01*
X101035784Y-134767500D01*
X100786716Y-134767500D01*
X100539786Y-134800008D01*
X100299200Y-134864473D01*
X100069101Y-134959783D01*
X100069097Y-134959785D01*
X99853393Y-135084323D01*
X99756203Y-135158899D01*
X99756203Y-135158900D01*
X100663761Y-136066458D01*
X100603360Y-136091478D01*
X100496899Y-136162612D01*
X100406362Y-136253149D01*
X100335228Y-136359610D01*
X100310208Y-136420011D01*
X99402650Y-135512453D01*
X99402649Y-135512453D01*
X99328073Y-135609643D01*
X99203535Y-135825347D01*
X99203533Y-135825351D01*
X99108223Y-136055450D01*
X99043758Y-136296036D01*
X99011250Y-136542966D01*
X97811750Y-136542966D01*
X97811750Y-135467492D01*
X97801249Y-135364703D01*
X97746064Y-135198166D01*
X97722932Y-135160664D01*
X97653963Y-135048848D01*
X97653960Y-135048844D01*
X97529905Y-134924789D01*
X97529901Y-134924786D01*
X97380587Y-134832687D01*
X97380585Y-134832686D01*
X97297315Y-134805093D01*
X97214047Y-134777501D01*
X97214045Y-134777500D01*
X97111265Y-134767000D01*
X97111258Y-134767000D01*
X94711242Y-134767000D01*
X94711234Y-134767000D01*
X94608454Y-134777500D01*
X94608453Y-134777501D01*
X94441914Y-134832686D01*
X94441912Y-134832687D01*
X94292598Y-134924786D01*
X94292594Y-134924789D01*
X94168539Y-135048844D01*
X94168536Y-135048848D01*
X94076437Y-135198162D01*
X94076436Y-135198164D01*
X94021251Y-135364703D01*
X94021250Y-135364704D01*
X94010750Y-135467484D01*
X85074844Y-135467484D01*
X85073836Y-105325000D01*
X85073818Y-104775014D01*
X181978750Y-104775014D01*
X181978750Y-105725000D01*
X183278749Y-105725000D01*
X183253729Y-105785402D01*
X183228750Y-105910981D01*
X183228750Y-106039019D01*
X183253729Y-106164598D01*
X183278749Y-106225000D01*
X181978750Y-106225000D01*
X181978750Y-107174985D01*
X181989243Y-107277689D01*
X181989244Y-107277696D01*
X182044391Y-107444118D01*
X182044393Y-107444123D01*
X182136434Y-107593344D01*
X182260405Y-107717315D01*
X182409626Y-107809356D01*
X182409631Y-107809358D01*
X182576053Y-107864505D01*
X182576060Y-107864506D01*
X182678764Y-107874999D01*
X182678777Y-107875000D01*
X183628750Y-107875000D01*
X183628750Y-106575001D01*
X183689152Y-106600021D01*
X183814731Y-106625000D01*
X183942769Y-106625000D01*
X184068348Y-106600021D01*
X184128750Y-106575001D01*
X184128750Y-107875000D01*
X185078723Y-107875000D01*
X185078735Y-107874999D01*
X185181439Y-107864506D01*
X185181446Y-107864505D01*
X185347868Y-107809358D01*
X185347873Y-107809356D01*
X185497094Y-107717315D01*
X185621065Y-107593344D01*
X185713106Y-107444123D01*
X185713108Y-107444118D01*
X185768255Y-107277696D01*
X185768256Y-107277689D01*
X185778749Y-107174985D01*
X185778750Y-107174972D01*
X185778750Y-106225000D01*
X184478751Y-106225000D01*
X184503771Y-106164598D01*
X184528750Y-106039019D01*
X184528750Y-105910981D01*
X184503771Y-105785402D01*
X184478751Y-105725000D01*
X185778750Y-105725000D01*
X185778750Y-104775027D01*
X185778749Y-104775014D01*
X185768256Y-104672310D01*
X185768255Y-104672303D01*
X185713108Y-104505881D01*
X185713106Y-104505876D01*
X185621065Y-104356655D01*
X185497094Y-104232684D01*
X185347873Y-104140643D01*
X185347868Y-104140641D01*
X185181446Y-104085494D01*
X185181439Y-104085493D01*
X185078735Y-104075000D01*
X184128750Y-104075000D01*
X184128750Y-105374998D01*
X184068348Y-105349979D01*
X183942769Y-105325000D01*
X183814731Y-105325000D01*
X183689152Y-105349979D01*
X183628750Y-105374998D01*
X183628750Y-104075000D01*
X182678764Y-104075000D01*
X182576060Y-104085493D01*
X182576053Y-104085494D01*
X182409631Y-104140641D01*
X182409626Y-104140643D01*
X182260405Y-104232684D01*
X182136434Y-104356655D01*
X182044393Y-104505876D01*
X182044391Y-104505881D01*
X181989244Y-104672303D01*
X181989243Y-104672310D01*
X181978750Y-104775014D01*
X85073818Y-104775014D01*
X85073818Y-104771869D01*
X85073779Y-103605334D01*
X85073448Y-93728146D01*
X106968250Y-93728146D01*
X106968250Y-94051853D01*
X107004028Y-94277746D01*
X107004028Y-94277749D01*
X107074700Y-94495255D01*
X107165428Y-94673318D01*
X107178533Y-94699038D01*
X107312964Y-94884066D01*
X107474684Y-95045786D01*
X107543535Y-95095809D01*
X107557776Y-95114278D01*
X107575320Y-95129645D01*
X107581479Y-95145018D01*
X107586199Y-95151138D01*
X107589810Y-95161828D01*
X107591250Y-95166833D01*
X107603434Y-95228082D01*
X107618611Y-95264722D01*
X107621278Y-95271161D01*
X107621281Y-95271171D01*
X107667546Y-95382863D01*
X107667547Y-95382866D01*
X107760622Y-95522161D01*
X107760625Y-95522165D01*
X110300624Y-98062162D01*
X110419088Y-98180626D01*
X110558387Y-98273703D01*
X110558388Y-98273703D01*
X110558389Y-98273704D01*
X110593451Y-98288227D01*
X110713168Y-98337816D01*
X110877478Y-98370499D01*
X110877482Y-98370500D01*
X110877483Y-98370500D01*
X121395018Y-98370500D01*
X121395019Y-98370499D01*
X121449788Y-98359605D01*
X121559324Y-98337818D01*
X121559328Y-98337816D01*
X121559332Y-98337816D01*
X121604665Y-98319037D01*
X121714113Y-98273704D01*
X121853412Y-98180627D01*
X124331877Y-95702162D01*
X124424954Y-95562863D01*
X124489066Y-95408081D01*
X124492564Y-95390499D01*
X124516299Y-95271171D01*
X124521750Y-95243767D01*
X124521750Y-95088762D01*
X124523291Y-95083512D01*
X124522205Y-95078151D01*
X124533030Y-95050346D01*
X124541435Y-95021723D01*
X124546095Y-95016788D01*
X124547554Y-95013042D01*
X124572857Y-94988450D01*
X124615495Y-94957472D01*
X124681296Y-94933994D01*
X124749350Y-94949819D01*
X124798045Y-94999925D01*
X124804558Y-95014459D01*
X124814952Y-95042328D01*
X124814956Y-95042335D01*
X124901202Y-95157544D01*
X124901205Y-95157547D01*
X125016414Y-95243793D01*
X125016421Y-95243797D01*
X125151267Y-95294091D01*
X125151266Y-95294091D01*
X125158194Y-95294835D01*
X125210877Y-95300500D01*
X127211622Y-95300499D01*
X127271233Y-95294091D01*
X127406081Y-95243796D01*
X127521296Y-95157546D01*
X127607546Y-95042331D01*
X127657841Y-94907483D01*
X127664250Y-94847873D01*
X127664249Y-92752128D01*
X127657841Y-92692517D01*
X127651509Y-92675541D01*
X127607547Y-92557671D01*
X127607543Y-92557664D01*
X127521297Y-92442455D01*
X127521294Y-92442452D01*
X127406085Y-92356206D01*
X127406078Y-92356202D01*
X127271232Y-92305908D01*
X127271233Y-92305908D01*
X127211633Y-92299501D01*
X127211631Y-92299500D01*
X127211623Y-92299500D01*
X127211614Y-92299500D01*
X125210879Y-92299500D01*
X125210873Y-92299501D01*
X125151266Y-92305908D01*
X125016421Y-92356202D01*
X125016414Y-92356206D01*
X124901205Y-92442452D01*
X124901202Y-92442455D01*
X124814956Y-92557664D01*
X124814953Y-92557670D01*
X124804558Y-92585541D01*
X124762686Y-92641474D01*
X124697222Y-92665891D01*
X124628949Y-92651039D01*
X124615500Y-92642531D01*
X124432788Y-92509783D01*
X124387880Y-92486901D01*
X124229005Y-92405950D01*
X124011498Y-92335278D01*
X123826062Y-92305908D01*
X123785604Y-92299500D01*
X123556896Y-92299500D01*
X123516438Y-92305908D01*
X123331003Y-92335278D01*
X123331000Y-92335278D01*
X123113494Y-92405950D01*
X122909711Y-92509783D01*
X122825147Y-92571223D01*
X122724684Y-92644214D01*
X122724682Y-92644216D01*
X122724681Y-92644216D01*
X122562966Y-92805931D01*
X122562959Y-92805940D01*
X122501257Y-92890864D01*
X122445927Y-92933530D01*
X122376313Y-92939508D01*
X122314519Y-92906901D01*
X122300622Y-92890863D01*
X122239157Y-92806263D01*
X122239152Y-92806257D01*
X122077492Y-92644597D01*
X121892526Y-92510211D01*
X121688818Y-92406417D01*
X121471374Y-92335765D01*
X121381250Y-92321490D01*
X121381250Y-93309252D01*
X121343542Y-93287482D01*
X121203659Y-93250000D01*
X121058841Y-93250000D01*
X120918958Y-93287482D01*
X120881250Y-93309252D01*
X120881250Y-92321490D01*
X120881249Y-92321490D01*
X120791125Y-92335765D01*
X120573681Y-92406417D01*
X120369973Y-92510211D01*
X120185007Y-92644597D01*
X120023347Y-92806257D01*
X119888961Y-92991223D01*
X119785167Y-93194929D01*
X119714515Y-93412371D01*
X119692718Y-93550000D01*
X120640502Y-93550000D01*
X120618732Y-93587708D01*
X120581250Y-93727591D01*
X120581250Y-93872409D01*
X120618732Y-94012292D01*
X120640502Y-94050000D01*
X119692718Y-94050000D01*
X119714515Y-94187628D01*
X119785167Y-94405070D01*
X119888961Y-94608776D01*
X120023347Y-94793742D01*
X120185007Y-94955402D01*
X120369973Y-95089788D01*
X120573679Y-95193582D01*
X120791121Y-95264234D01*
X120881250Y-95278509D01*
X120881250Y-94290747D01*
X120918958Y-94312518D01*
X121058841Y-94350000D01*
X121203659Y-94350000D01*
X121343542Y-94312518D01*
X121381250Y-94290747D01*
X121381250Y-95278508D01*
X121471378Y-95264234D01*
X121688820Y-95193582D01*
X121892526Y-95089788D01*
X122077492Y-94955402D01*
X122239155Y-94793739D01*
X122300621Y-94709137D01*
X122319896Y-94694273D01*
X122336242Y-94676237D01*
X122347070Y-94673318D01*
X122355951Y-94666470D01*
X122380202Y-94664387D01*
X122403704Y-94658052D01*
X122414391Y-94661450D01*
X122425564Y-94660491D01*
X122447090Y-94671849D01*
X122470288Y-94679226D01*
X122481387Y-94689945D01*
X122487359Y-94693096D01*
X122496439Y-94702927D01*
X122498952Y-94705961D01*
X122562964Y-94794066D01*
X122615108Y-94846210D01*
X122618816Y-94850687D01*
X122630414Y-94877657D01*
X122644483Y-94903423D01*
X122644056Y-94909383D01*
X122646418Y-94914874D01*
X122641593Y-94943831D01*
X122639499Y-94973115D01*
X122635739Y-94978964D01*
X122634935Y-94983793D01*
X122627032Y-94992512D01*
X122610998Y-95017462D01*
X120995280Y-96633181D01*
X120933957Y-96666666D01*
X120907599Y-96669500D01*
X111364900Y-96669500D01*
X111297861Y-96649815D01*
X111277219Y-96633181D01*
X110474538Y-95830500D01*
X109940807Y-95296768D01*
X109907323Y-95235447D01*
X109912307Y-95165755D01*
X109954179Y-95109822D01*
X110019643Y-95085405D01*
X110087916Y-95100257D01*
X110101374Y-95108771D01*
X110159688Y-95151138D01*
X110199712Y-95180217D01*
X110392619Y-95278508D01*
X110403494Y-95284049D01*
X110621001Y-95354721D01*
X110621002Y-95354721D01*
X110621005Y-95354722D01*
X110846896Y-95390500D01*
X110846897Y-95390500D01*
X111075603Y-95390500D01*
X111075604Y-95390500D01*
X111301495Y-95354722D01*
X111301498Y-95354721D01*
X111301499Y-95354721D01*
X111519005Y-95284049D01*
X111519005Y-95284048D01*
X111519008Y-95284048D01*
X111722788Y-95180217D01*
X111905495Y-95047472D01*
X111971296Y-95023994D01*
X112039350Y-95039819D01*
X112088045Y-95089924D01*
X112094558Y-95104459D01*
X112104952Y-95132328D01*
X112104956Y-95132335D01*
X112191202Y-95247544D01*
X112191205Y-95247547D01*
X112306414Y-95333793D01*
X112306421Y-95333797D01*
X112441267Y-95384091D01*
X112441266Y-95384091D01*
X112448194Y-95384835D01*
X112500877Y-95390500D01*
X114501622Y-95390499D01*
X114561233Y-95384091D01*
X114696081Y-95333796D01*
X114811296Y-95247546D01*
X114897546Y-95132331D01*
X114947841Y-94997483D01*
X114954250Y-94937873D01*
X114954249Y-92842128D01*
X114947841Y-92782517D01*
X114945704Y-92776788D01*
X114897547Y-92647671D01*
X114897543Y-92647664D01*
X114811297Y-92532455D01*
X114811294Y-92532452D01*
X114696085Y-92446206D01*
X114696078Y-92446202D01*
X114561232Y-92395908D01*
X114561233Y-92395908D01*
X114501633Y-92389501D01*
X114501631Y-92389500D01*
X114501623Y-92389500D01*
X114501614Y-92389500D01*
X112500879Y-92389500D01*
X112500873Y-92389501D01*
X112441266Y-92395908D01*
X112306421Y-92446202D01*
X112306414Y-92446206D01*
X112191205Y-92532452D01*
X112191202Y-92532455D01*
X112104956Y-92647664D01*
X112104951Y-92647674D01*
X112094557Y-92675541D01*
X112079234Y-92696009D01*
X112067300Y-92718627D01*
X112058642Y-92723516D01*
X112052685Y-92731474D01*
X112028729Y-92740408D01*
X112006461Y-92752984D01*
X111996534Y-92752416D01*
X111987220Y-92755890D01*
X111962234Y-92750454D01*
X111936705Y-92748994D01*
X111923502Y-92742027D01*
X111918948Y-92741037D01*
X111905490Y-92732524D01*
X111862864Y-92701554D01*
X111820199Y-92646223D01*
X111811750Y-92601236D01*
X111811750Y-92325619D01*
X111812066Y-92316773D01*
X111813301Y-92299501D01*
X111828326Y-92089432D01*
X111830844Y-92071923D01*
X111833279Y-92060732D01*
X111878351Y-91853544D01*
X111883334Y-91836574D01*
X111896310Y-91801785D01*
X111961439Y-91627167D01*
X111968779Y-91611095D01*
X112075896Y-91414930D01*
X112085452Y-91400061D01*
X112219395Y-91221136D01*
X112230968Y-91207781D01*
X112389007Y-91049745D01*
X112402364Y-91038171D01*
X112581289Y-90904233D01*
X112596159Y-90894677D01*
X112792319Y-90787568D01*
X112808405Y-90780223D01*
X113017813Y-90702121D01*
X113034759Y-90697145D01*
X113253163Y-90649638D01*
X113270666Y-90647122D01*
X113365103Y-90640369D01*
X113398138Y-90642435D01*
X113414229Y-90645636D01*
X113438676Y-90650500D01*
X113438677Y-90650500D01*
X150655028Y-90650500D01*
X150703973Y-90640763D01*
X150735113Y-90638576D01*
X150892178Y-90647395D01*
X150905973Y-90648949D01*
X151196234Y-90698264D01*
X151209781Y-90701355D01*
X151492696Y-90782859D01*
X151505813Y-90787449D01*
X151658292Y-90850607D01*
X151777810Y-90900112D01*
X151790338Y-90906145D01*
X152048006Y-91048551D01*
X152059780Y-91055949D01*
X152299896Y-91226317D01*
X152310768Y-91234987D01*
X152530287Y-91431159D01*
X152540118Y-91440989D01*
X152736306Y-91660522D01*
X152744961Y-91671376D01*
X152826101Y-91785729D01*
X152915331Y-91911487D01*
X152922729Y-91923261D01*
X153065141Y-92180934D01*
X153071175Y-92193464D01*
X153099656Y-92262224D01*
X153107125Y-92331693D01*
X153085413Y-92382562D01*
X153021567Y-92470438D01*
X152966237Y-92513103D01*
X152896623Y-92519082D01*
X152834829Y-92486476D01*
X152820931Y-92470437D01*
X152774080Y-92405952D01*
X152759536Y-92385934D01*
X152597816Y-92224214D01*
X152412788Y-92089783D01*
X152355772Y-92060732D01*
X152209005Y-91985950D01*
X151991498Y-91915278D01*
X151806062Y-91885908D01*
X151765604Y-91879500D01*
X151536896Y-91879500D01*
X151496438Y-91885908D01*
X151311003Y-91915278D01*
X151311000Y-91915278D01*
X151093494Y-91985950D01*
X150889711Y-92089783D01*
X150823801Y-92137670D01*
X150704684Y-92224214D01*
X150704682Y-92224216D01*
X150704681Y-92224216D01*
X150542966Y-92385931D01*
X150542966Y-92385932D01*
X150542964Y-92385934D01*
X150514379Y-92425278D01*
X150408533Y-92570961D01*
X150304700Y-92774744D01*
X150234028Y-92992250D01*
X150234028Y-92992253D01*
X150198250Y-93218146D01*
X150198250Y-93541853D01*
X150234028Y-93767746D01*
X150234028Y-93767749D01*
X150304700Y-93985255D01*
X150338634Y-94051854D01*
X150408533Y-94189038D01*
X150542964Y-94374066D01*
X150704684Y-94535786D01*
X150749635Y-94568445D01*
X150792301Y-94623773D01*
X150800750Y-94668762D01*
X150800750Y-95236349D01*
X150781065Y-95303388D01*
X150764431Y-95324030D01*
X149675280Y-96413181D01*
X149613957Y-96446666D01*
X149587599Y-96449500D01*
X143029900Y-96449500D01*
X142962861Y-96429815D01*
X142942219Y-96413181D01*
X141575312Y-95046273D01*
X141541827Y-94984950D01*
X141546811Y-94915258D01*
X141588683Y-94859325D01*
X141654147Y-94834908D01*
X141706325Y-94842409D01*
X141751677Y-94859325D01*
X141791267Y-94874091D01*
X141791266Y-94874091D01*
X141798194Y-94874835D01*
X141850877Y-94880500D01*
X143851622Y-94880499D01*
X143911233Y-94874091D01*
X144046081Y-94823796D01*
X144161296Y-94737546D01*
X144247546Y-94622331D01*
X144297841Y-94487483D01*
X144304250Y-94427873D01*
X144304249Y-92332128D01*
X144297841Y-92272517D01*
X144287910Y-92245891D01*
X144247547Y-92137671D01*
X144247543Y-92137664D01*
X144161297Y-92022455D01*
X144161294Y-92022452D01*
X144046085Y-91936206D01*
X144046078Y-91936202D01*
X143911232Y-91885908D01*
X143911233Y-91885908D01*
X143851633Y-91879501D01*
X143851631Y-91879500D01*
X143851623Y-91879500D01*
X143851614Y-91879500D01*
X141850879Y-91879500D01*
X141850873Y-91879501D01*
X141791266Y-91885908D01*
X141656421Y-91936202D01*
X141656414Y-91936206D01*
X141541205Y-92022452D01*
X141541202Y-92022455D01*
X141454956Y-92137664D01*
X141454953Y-92137670D01*
X141444558Y-92165541D01*
X141402686Y-92221474D01*
X141337222Y-92245891D01*
X141268949Y-92231039D01*
X141255500Y-92222531D01*
X141072788Y-92089783D01*
X141015772Y-92060732D01*
X140869005Y-91985950D01*
X140651498Y-91915278D01*
X140466062Y-91885908D01*
X140425604Y-91879500D01*
X140196896Y-91879500D01*
X140156438Y-91885908D01*
X139971003Y-91915278D01*
X139971000Y-91915278D01*
X139753494Y-91985950D01*
X139549711Y-92089783D01*
X139483801Y-92137670D01*
X139364684Y-92224214D01*
X139364682Y-92224216D01*
X139364681Y-92224216D01*
X139202966Y-92385931D01*
X139202959Y-92385940D01*
X139141257Y-92470864D01*
X139085927Y-92513530D01*
X139016313Y-92519508D01*
X138954519Y-92486901D01*
X138940622Y-92470863D01*
X138879157Y-92386263D01*
X138879152Y-92386257D01*
X138717492Y-92224597D01*
X138532526Y-92090211D01*
X138328818Y-91986417D01*
X138111374Y-91915765D01*
X138021250Y-91901490D01*
X138021250Y-92889252D01*
X137983542Y-92867482D01*
X137843659Y-92830000D01*
X137698841Y-92830000D01*
X137558958Y-92867482D01*
X137521250Y-92889252D01*
X137521250Y-91901490D01*
X137521249Y-91901490D01*
X137431125Y-91915765D01*
X137213681Y-91986417D01*
X137009973Y-92090211D01*
X136825007Y-92224597D01*
X136663347Y-92386257D01*
X136528961Y-92571223D01*
X136425167Y-92774929D01*
X136354515Y-92992371D01*
X136332718Y-93130000D01*
X137280502Y-93130000D01*
X137258732Y-93167708D01*
X137221250Y-93307591D01*
X137221250Y-93452409D01*
X137258732Y-93592292D01*
X137280502Y-93630000D01*
X136332718Y-93630000D01*
X136354515Y-93767628D01*
X136425167Y-93985070D01*
X136528961Y-94188776D01*
X136663347Y-94373742D01*
X136825007Y-94535402D01*
X137009973Y-94669788D01*
X137213679Y-94773582D01*
X137431121Y-94844234D01*
X137521250Y-94858509D01*
X137521250Y-93870747D01*
X137558958Y-93892518D01*
X137698841Y-93930000D01*
X137843659Y-93930000D01*
X137983542Y-93892518D01*
X138021250Y-93870747D01*
X138021250Y-94858508D01*
X138111378Y-94844234D01*
X138328820Y-94773582D01*
X138532526Y-94669788D01*
X138717492Y-94535402D01*
X138879155Y-94373739D01*
X138940621Y-94289137D01*
X138995951Y-94246470D01*
X139065564Y-94240491D01*
X139127359Y-94273096D01*
X139141257Y-94289134D01*
X139202964Y-94374066D01*
X139364684Y-94535786D01*
X139409635Y-94568445D01*
X139452301Y-94623773D01*
X139460750Y-94668762D01*
X139460750Y-95068771D01*
X139493432Y-95233074D01*
X139493435Y-95233086D01*
X139506539Y-95264721D01*
X139506540Y-95264723D01*
X139557546Y-95387863D01*
X139557547Y-95387866D01*
X139650622Y-95527161D01*
X139650625Y-95527165D01*
X141965624Y-97842162D01*
X142084088Y-97960626D01*
X142223387Y-98053703D01*
X142223388Y-98053703D01*
X142223389Y-98053704D01*
X142258451Y-98068227D01*
X142378168Y-98117816D01*
X142542478Y-98150499D01*
X142542482Y-98150500D01*
X142542483Y-98150500D01*
X150075018Y-98150500D01*
X150075019Y-98150499D01*
X150129788Y-98139605D01*
X150239324Y-98117818D01*
X150239328Y-98117816D01*
X150239332Y-98117816D01*
X150284665Y-98099037D01*
X150394113Y-98053704D01*
X150533412Y-97960627D01*
X152311877Y-96182162D01*
X152404954Y-96042862D01*
X152469066Y-95888081D01*
X152480520Y-95830500D01*
X152501750Y-95723767D01*
X152501750Y-94668762D01*
X152521435Y-94601723D01*
X152552862Y-94568446D01*
X152597816Y-94535786D01*
X152759536Y-94374066D01*
X152820933Y-94289559D01*
X152876262Y-94246896D01*
X152945875Y-94240917D01*
X153007670Y-94273523D01*
X153021564Y-94289556D01*
X153082964Y-94374066D01*
X153244684Y-94535786D01*
X153289635Y-94568445D01*
X153332301Y-94623773D01*
X153340750Y-94668762D01*
X153340750Y-95068771D01*
X153373432Y-95233074D01*
X153373435Y-95233086D01*
X153386539Y-95264721D01*
X153386540Y-95264723D01*
X153437546Y-95387863D01*
X153437547Y-95387866D01*
X153530622Y-95527161D01*
X153530625Y-95527165D01*
X162024084Y-104020624D01*
X162024092Y-104020630D01*
X162163377Y-104113697D01*
X162163380Y-104113698D01*
X162163388Y-104113704D01*
X162254056Y-104151259D01*
X162318168Y-104177816D01*
X162482478Y-104210499D01*
X162482482Y-104210500D01*
X162482483Y-104210500D01*
X181577518Y-104210500D01*
X181577519Y-104210499D01*
X181632288Y-104199605D01*
X181741824Y-104177818D01*
X181741828Y-104177816D01*
X181741832Y-104177816D01*
X181787165Y-104159037D01*
X181896613Y-104113704D01*
X182035912Y-104020627D01*
X183224985Y-102831551D01*
X183286306Y-102798068D01*
X183344757Y-102799458D01*
X183507185Y-102842982D01*
X183754185Y-102875500D01*
X183754192Y-102875500D01*
X184003308Y-102875500D01*
X184003315Y-102875500D01*
X184250315Y-102842982D01*
X184412741Y-102799459D01*
X184482589Y-102801122D01*
X184532514Y-102831553D01*
X186164431Y-104463470D01*
X186197916Y-104524793D01*
X186200750Y-104551151D01*
X186200750Y-112966348D01*
X186192105Y-112995788D01*
X186185582Y-113025775D01*
X186181827Y-113030790D01*
X186181065Y-113033387D01*
X186164431Y-113054029D01*
X186012009Y-113206451D01*
X185950686Y-113239936D01*
X185880994Y-113234952D01*
X185825061Y-113193080D01*
X185808146Y-113162103D01*
X185785047Y-113100171D01*
X185785043Y-113100164D01*
X185698797Y-112984955D01*
X185698794Y-112984952D01*
X185583585Y-112898706D01*
X185583578Y-112898702D01*
X185448732Y-112848408D01*
X185448733Y-112848408D01*
X185389133Y-112842001D01*
X185389131Y-112842000D01*
X185389123Y-112842000D01*
X185389114Y-112842000D01*
X183293379Y-112842000D01*
X183293373Y-112842001D01*
X183233766Y-112848408D01*
X183098921Y-112898702D01*
X183098914Y-112898706D01*
X182983705Y-112984952D01*
X182983702Y-112984955D01*
X182897456Y-113100164D01*
X182897452Y-113100171D01*
X182847158Y-113235017D01*
X182840751Y-113294616D01*
X182840750Y-113294635D01*
X182840750Y-115295370D01*
X182840751Y-115295376D01*
X182847158Y-115354983D01*
X182897452Y-115489828D01*
X182897456Y-115489835D01*
X182983702Y-115605044D01*
X182983705Y-115605047D01*
X183098914Y-115691293D01*
X183098917Y-115691295D01*
X183098918Y-115691295D01*
X183098919Y-115691296D01*
X183127275Y-115701872D01*
X183183208Y-115743742D01*
X183207626Y-115809206D01*
X183192775Y-115877479D01*
X183184260Y-115890939D01*
X183051463Y-116073719D01*
X182947667Y-116277429D01*
X182877015Y-116494871D01*
X182862741Y-116585000D01*
X183792768Y-116585000D01*
X183782139Y-116603409D01*
X183741250Y-116756009D01*
X183741250Y-116913991D01*
X183782139Y-117066591D01*
X183792768Y-117085000D01*
X182862741Y-117085000D01*
X182877015Y-117175128D01*
X182947667Y-117392570D01*
X183051461Y-117596276D01*
X183185847Y-117781242D01*
X183347507Y-117942902D01*
X183347513Y-117942907D01*
X183432113Y-118004372D01*
X183474779Y-118059701D01*
X183480758Y-118129315D01*
X183448153Y-118191110D01*
X183432114Y-118205007D01*
X183347190Y-118266709D01*
X183347181Y-118266716D01*
X183185466Y-118428431D01*
X183185466Y-118428432D01*
X183185464Y-118428434D01*
X183127730Y-118507896D01*
X183051033Y-118613461D01*
X182947200Y-118817244D01*
X182876528Y-119034750D01*
X182876528Y-119034753D01*
X182840750Y-119260646D01*
X182840750Y-119489353D01*
X182876528Y-119715246D01*
X182876528Y-119715249D01*
X182947200Y-119932755D01*
X182947202Y-119932758D01*
X183051033Y-120136538D01*
X183185464Y-120321566D01*
X183347184Y-120483286D01*
X183532212Y-120617717D01*
X183735992Y-120721548D01*
X183735994Y-120721549D01*
X183953501Y-120792221D01*
X183953502Y-120792221D01*
X183953505Y-120792222D01*
X184179396Y-120828000D01*
X184179397Y-120828000D01*
X184503103Y-120828000D01*
X184503104Y-120828000D01*
X184728995Y-120792222D01*
X184728998Y-120792221D01*
X184728999Y-120792221D01*
X184946505Y-120721549D01*
X184946505Y-120721548D01*
X184946508Y-120721548D01*
X185150288Y-120617717D01*
X185335316Y-120483286D01*
X185497036Y-120321566D01*
X185631467Y-120136538D01*
X185735298Y-119932758D01*
X185805972Y-119715245D01*
X185841750Y-119489354D01*
X185841750Y-119260646D01*
X185805972Y-119034755D01*
X185805971Y-119034751D01*
X185805971Y-119034750D01*
X185735299Y-118817244D01*
X185631466Y-118613461D01*
X185497036Y-118428434D01*
X185335316Y-118266714D01*
X185250384Y-118205007D01*
X185207720Y-118149678D01*
X185201741Y-118080064D01*
X185234347Y-118018269D01*
X185250387Y-118004371D01*
X185334989Y-117942905D01*
X185496652Y-117781242D01*
X185631038Y-117596276D01*
X185734832Y-117392570D01*
X185805484Y-117175128D01*
X185819759Y-117085000D01*
X184889732Y-117085000D01*
X184900361Y-117066591D01*
X184941250Y-116913991D01*
X184941250Y-116756009D01*
X184900361Y-116603409D01*
X184889732Y-116585000D01*
X185819759Y-116585000D01*
X185805484Y-116494871D01*
X185734832Y-116277429D01*
X185631038Y-116073723D01*
X185498238Y-115890940D01*
X185474758Y-115825133D01*
X185490583Y-115757079D01*
X185540689Y-115708384D01*
X185555216Y-115701875D01*
X185583581Y-115691296D01*
X185698796Y-115605046D01*
X185785046Y-115489831D01*
X185835341Y-115354983D01*
X185841750Y-115295373D01*
X185841750Y-115269500D01*
X185861435Y-115202461D01*
X185914239Y-115156706D01*
X185965750Y-115145500D01*
X186210018Y-115145500D01*
X186210019Y-115145499D01*
X186264788Y-115134605D01*
X186374324Y-115112818D01*
X186374328Y-115112816D01*
X186374332Y-115112816D01*
X186419665Y-115094037D01*
X186529113Y-115048704D01*
X186668412Y-114955627D01*
X187711877Y-113912162D01*
X187804954Y-113772862D01*
X187842509Y-113682194D01*
X187869066Y-113618082D01*
X187901750Y-113453767D01*
X187901750Y-104063733D01*
X187869066Y-103899418D01*
X187812503Y-103762863D01*
X187804954Y-103744638D01*
X187711877Y-103605338D01*
X187711874Y-103605334D01*
X185735303Y-101628764D01*
X185701818Y-101567441D01*
X185703208Y-101508991D01*
X185746732Y-101346565D01*
X185779250Y-101099565D01*
X185779250Y-100850435D01*
X185746732Y-100603435D01*
X185682252Y-100362793D01*
X185586914Y-100132627D01*
X185462349Y-99916873D01*
X185310688Y-99719224D01*
X185310683Y-99719218D01*
X185134531Y-99543066D01*
X185134524Y-99543060D01*
X184936876Y-99391400D01*
X184721126Y-99266837D01*
X184721116Y-99266832D01*
X184555797Y-99198355D01*
X184501394Y-99154514D01*
X184479329Y-99088220D01*
X184479250Y-99083794D01*
X184479250Y-97302596D01*
X184498935Y-97235557D01*
X184515564Y-97214920D01*
X189669756Y-92060727D01*
X189669761Y-92060724D01*
X189679964Y-92050520D01*
X189679966Y-92050520D01*
X189791770Y-91938716D01*
X189845945Y-91844881D01*
X189870827Y-91801785D01*
X189911750Y-91649057D01*
X189911750Y-91490943D01*
X189911750Y-72059059D01*
X189911751Y-72059046D01*
X189911751Y-71890945D01*
X189911751Y-71890943D01*
X189870827Y-71738215D01*
X189857908Y-71715840D01*
X189840262Y-71685275D01*
X189840262Y-71685274D01*
X189791774Y-71601290D01*
X189791771Y-71601286D01*
X189791770Y-71601284D01*
X189679966Y-71489480D01*
X189679965Y-71489479D01*
X189675635Y-71485149D01*
X189675624Y-71485139D01*
X187368840Y-69178355D01*
X187368838Y-69178352D01*
X187249967Y-69059481D01*
X187249966Y-69059480D01*
X187139895Y-68995931D01*
X187139894Y-68995930D01*
X187113033Y-68980422D01*
X187057131Y-68965443D01*
X186960307Y-68939499D01*
X186802193Y-68939499D01*
X186794597Y-68939499D01*
X186794581Y-68939500D01*
X173705228Y-68939500D01*
X173638189Y-68919815D01*
X173592434Y-68867011D01*
X173583611Y-68839693D01*
X173580988Y-68826507D01*
X173580985Y-68826498D01*
X173520647Y-68680827D01*
X173520640Y-68680814D01*
X173433039Y-68549711D01*
X173433036Y-68549707D01*
X173321542Y-68438213D01*
X173321538Y-68438210D01*
X173190435Y-68350609D01*
X173190422Y-68350602D01*
X173044751Y-68290264D01*
X173044739Y-68290261D01*
X172890095Y-68259500D01*
X172890092Y-68259500D01*
X172732408Y-68259500D01*
X172732405Y-68259500D01*
X172577760Y-68290261D01*
X172577748Y-68290264D01*
X172432077Y-68350602D01*
X172432064Y-68350609D01*
X172300961Y-68438210D01*
X172300957Y-68438213D01*
X172189463Y-68549707D01*
X172189460Y-68549711D01*
X172101859Y-68680814D01*
X172101852Y-68680827D01*
X172041514Y-68826498D01*
X172041511Y-68826510D01*
X172010750Y-68981153D01*
X172010750Y-69138846D01*
X172041511Y-69293489D01*
X172041514Y-69293501D01*
X172101852Y-69439172D01*
X172101859Y-69439185D01*
X172189460Y-69570288D01*
X172189463Y-69570292D01*
X172300957Y-69681786D01*
X172300961Y-69681789D01*
X172432064Y-69769390D01*
X172432077Y-69769397D01*
X172577748Y-69829735D01*
X172577753Y-69829737D01*
X172732408Y-69860500D01*
X172733097Y-69860637D01*
X172795008Y-69893022D01*
X172796587Y-69894573D01*
X172922534Y-70020520D01*
X172922536Y-70020521D01*
X172922540Y-70020524D01*
X173042012Y-70089500D01*
X173059466Y-70099577D01*
X173212193Y-70140501D01*
X173212195Y-70140501D01*
X173377904Y-70140501D01*
X173377920Y-70140500D01*
X186581153Y-70140500D01*
X186648192Y-70160185D01*
X186668834Y-70176819D01*
X188674431Y-72182416D01*
X188707916Y-72243739D01*
X188710750Y-72270097D01*
X188710750Y-91269902D01*
X188691065Y-91336941D01*
X188674431Y-91357583D01*
X183398232Y-96633781D01*
X183398230Y-96633783D01*
X183388975Y-96649815D01*
X183377610Y-96669500D01*
X183319173Y-96770715D01*
X183278249Y-96923443D01*
X183278249Y-96923445D01*
X183278249Y-97091546D01*
X183278250Y-97091559D01*
X183278250Y-99083794D01*
X183258565Y-99150833D01*
X183205761Y-99196588D01*
X183201703Y-99198355D01*
X183036383Y-99266832D01*
X183036373Y-99266837D01*
X182820623Y-99391400D01*
X182622975Y-99543060D01*
X182622968Y-99543066D01*
X182446816Y-99719218D01*
X182446810Y-99719225D01*
X182295150Y-99916873D01*
X182170587Y-100132623D01*
X182170580Y-100132638D01*
X182075248Y-100362792D01*
X182010767Y-100603438D01*
X181978251Y-100850424D01*
X181978250Y-100850441D01*
X181978250Y-101099558D01*
X181978251Y-101099575D01*
X182010767Y-101346563D01*
X182054289Y-101508991D01*
X182052626Y-101578841D01*
X182022195Y-101628765D01*
X181177780Y-102473181D01*
X181116457Y-102506666D01*
X181090099Y-102509500D01*
X162969901Y-102509500D01*
X162902862Y-102489815D01*
X162882220Y-102473181D01*
X155455312Y-95046273D01*
X155421827Y-94984950D01*
X155426811Y-94915258D01*
X155468683Y-94859325D01*
X155534147Y-94834908D01*
X155586325Y-94842409D01*
X155631677Y-94859325D01*
X155671267Y-94874091D01*
X155671266Y-94874091D01*
X155678194Y-94874835D01*
X155730877Y-94880500D01*
X157731622Y-94880499D01*
X157791233Y-94874091D01*
X157926081Y-94823796D01*
X158041296Y-94737546D01*
X158127546Y-94622331D01*
X158177841Y-94487483D01*
X158184250Y-94427873D01*
X158184249Y-92332128D01*
X158177841Y-92272517D01*
X158167910Y-92245891D01*
X158127547Y-92137671D01*
X158127543Y-92137664D01*
X158041297Y-92022455D01*
X158041294Y-92022452D01*
X157926085Y-91936206D01*
X157926078Y-91936202D01*
X157791232Y-91885908D01*
X157791233Y-91885908D01*
X157731633Y-91879501D01*
X157731631Y-91879500D01*
X157731623Y-91879500D01*
X157731614Y-91879500D01*
X155730879Y-91879500D01*
X155730873Y-91879501D01*
X155671266Y-91885908D01*
X155536421Y-91936202D01*
X155536414Y-91936206D01*
X155421205Y-92022452D01*
X155421202Y-92022455D01*
X155334956Y-92137664D01*
X155334953Y-92137670D01*
X155324558Y-92165541D01*
X155282686Y-92221474D01*
X155217222Y-92245891D01*
X155148949Y-92231039D01*
X155135500Y-92222531D01*
X155018690Y-92137664D01*
X154952786Y-92089781D01*
X154879722Y-92052554D01*
X154828925Y-92004580D01*
X154819498Y-91984489D01*
X154706938Y-91675234D01*
X154700071Y-91660508D01*
X154578619Y-91400054D01*
X154542696Y-91323017D01*
X154542692Y-91323010D01*
X154348383Y-90986460D01*
X154348382Y-90986459D01*
X154348380Y-90986455D01*
X154125471Y-90668110D01*
X154109972Y-90649639D01*
X153875666Y-90370407D01*
X153600857Y-90095601D01*
X153411760Y-89936932D01*
X153303152Y-89845800D01*
X152984804Y-89622894D01*
X152648240Y-89428582D01*
X152648221Y-89428573D01*
X152296035Y-89264348D01*
X152296016Y-89264340D01*
X151930839Y-89131430D01*
X151930819Y-89131423D01*
X151599448Y-89042637D01*
X151555442Y-89030846D01*
X151555438Y-89030845D01*
X151555420Y-89030841D01*
X151172722Y-88963365D01*
X150785569Y-88929498D01*
X150785566Y-88929498D01*
X150591252Y-88929500D01*
X150501861Y-88929500D01*
X150420615Y-88946770D01*
X150419629Y-88946976D01*
X150419531Y-88946996D01*
X150394736Y-88949500D01*
X121874757Y-88949500D01*
X121807718Y-88929815D01*
X121761963Y-88877011D01*
X121752019Y-88807853D01*
X121781044Y-88744297D01*
X121805866Y-88722398D01*
X121849998Y-88692909D01*
X121911539Y-88651789D01*
X122023039Y-88540289D01*
X122110644Y-88409179D01*
X122170987Y-88263497D01*
X122201750Y-88108842D01*
X122201750Y-87951158D01*
X122201750Y-87951155D01*
X122201749Y-87951153D01*
X122200481Y-87944780D01*
X122170987Y-87796503D01*
X122170985Y-87796498D01*
X122110647Y-87650827D01*
X122110640Y-87650814D01*
X122022648Y-87519125D01*
X122016997Y-87501078D01*
X122006773Y-87485169D01*
X122002321Y-87454207D01*
X122001770Y-87452447D01*
X122001750Y-87450234D01*
X122001750Y-87239060D01*
X122001751Y-87239047D01*
X122001751Y-87070944D01*
X121960826Y-86918214D01*
X121960823Y-86918209D01*
X121881774Y-86781290D01*
X121881768Y-86781282D01*
X118935823Y-83835337D01*
X118902338Y-83774014D01*
X118901887Y-83771847D01*
X118877420Y-83648844D01*
X118870987Y-83616503D01*
X118819066Y-83491153D01*
X138249500Y-83491153D01*
X138249500Y-83648846D01*
X138280261Y-83803489D01*
X138280264Y-83803501D01*
X138340602Y-83949172D01*
X138340609Y-83949185D01*
X138428210Y-84080288D01*
X138428213Y-84080292D01*
X138539707Y-84191786D01*
X138539711Y-84191789D01*
X138670814Y-84279390D01*
X138670827Y-84279397D01*
X138816498Y-84339735D01*
X138816503Y-84339737D01*
X138971153Y-84370499D01*
X138971156Y-84370500D01*
X138971158Y-84370500D01*
X139128844Y-84370500D01*
X139128845Y-84370499D01*
X139283497Y-84339737D01*
X139429179Y-84279394D01*
X139560289Y-84191789D01*
X139671789Y-84080289D01*
X139759394Y-83949179D01*
X139819737Y-83803497D01*
X139850500Y-83648842D01*
X139850500Y-83491158D01*
X139850500Y-83491155D01*
X139850499Y-83491153D01*
X139819738Y-83336510D01*
X139819737Y-83336503D01*
X139817851Y-83331951D01*
X139810383Y-83262485D01*
X139841657Y-83200005D01*
X139901746Y-83164352D01*
X139932413Y-83160500D01*
X141380234Y-83160500D01*
X141447273Y-83180185D01*
X141449125Y-83181398D01*
X141580814Y-83269390D01*
X141580827Y-83269397D01*
X141726498Y-83329735D01*
X141726503Y-83329737D01*
X141881153Y-83360499D01*
X141881156Y-83360500D01*
X141881158Y-83360500D01*
X142038844Y-83360500D01*
X142038845Y-83360499D01*
X142193497Y-83329737D01*
X142339179Y-83269394D01*
X142470289Y-83181789D01*
X142581789Y-83070289D01*
X142669394Y-82939179D01*
X142729737Y-82793497D01*
X142760500Y-82638842D01*
X142760500Y-82481158D01*
X142760500Y-82481155D01*
X142760499Y-82481153D01*
X142759387Y-82475565D01*
X142729737Y-82326503D01*
X142707969Y-82273950D01*
X142669397Y-82180827D01*
X142669390Y-82180814D01*
X142581789Y-82049711D01*
X142581786Y-82049707D01*
X142470292Y-81938213D01*
X142470288Y-81938210D01*
X142339185Y-81850609D01*
X142339172Y-81850602D01*
X142193501Y-81790264D01*
X142193489Y-81790261D01*
X142038845Y-81759500D01*
X142038842Y-81759500D01*
X141881158Y-81759500D01*
X141881155Y-81759500D01*
X141726510Y-81790261D01*
X141726498Y-81790264D01*
X141580827Y-81850602D01*
X141580814Y-81850609D01*
X141449125Y-81938602D01*
X141382447Y-81959480D01*
X141380234Y-81959500D01*
X139476670Y-81959500D01*
X139476654Y-81959499D01*
X139469058Y-81959499D01*
X139310943Y-81959499D01*
X139234579Y-81979961D01*
X139158214Y-82000423D01*
X139158209Y-82000426D01*
X139021290Y-82079475D01*
X139021282Y-82079481D01*
X138674217Y-82426546D01*
X138674214Y-82426548D01*
X138674215Y-82426549D01*
X138569478Y-82531286D01*
X138569475Y-82531290D01*
X138527557Y-82603896D01*
X138527557Y-82603898D01*
X138490423Y-82668214D01*
X138490423Y-82668215D01*
X138449499Y-82820943D01*
X138449499Y-82820945D01*
X138449499Y-82989046D01*
X138449500Y-82989059D01*
X138449500Y-82990234D01*
X138429815Y-83057273D01*
X138428602Y-83059125D01*
X138340609Y-83190814D01*
X138340602Y-83190827D01*
X138280264Y-83336498D01*
X138280261Y-83336510D01*
X138249500Y-83491153D01*
X118819066Y-83491153D01*
X118810647Y-83470827D01*
X118810640Y-83470814D01*
X118723039Y-83339711D01*
X118723036Y-83339707D01*
X118611542Y-83228213D01*
X118611538Y-83228210D01*
X118480435Y-83140609D01*
X118480422Y-83140602D01*
X118334751Y-83080264D01*
X118334739Y-83080261D01*
X118180095Y-83049500D01*
X118180092Y-83049500D01*
X118022408Y-83049500D01*
X118022405Y-83049500D01*
X117867760Y-83080261D01*
X117867748Y-83080264D01*
X117722077Y-83140602D01*
X117722064Y-83140609D01*
X117590961Y-83228210D01*
X117590957Y-83228213D01*
X117479463Y-83339707D01*
X117479460Y-83339711D01*
X117391859Y-83470814D01*
X117391852Y-83470827D01*
X117331514Y-83616498D01*
X117331511Y-83616510D01*
X117300750Y-83771153D01*
X117300750Y-83928846D01*
X117331511Y-84083489D01*
X117331514Y-84083501D01*
X117391852Y-84229172D01*
X117391859Y-84229185D01*
X117479460Y-84360288D01*
X117479463Y-84360292D01*
X117590957Y-84471786D01*
X117590961Y-84471789D01*
X117722064Y-84559390D01*
X117722077Y-84559397D01*
X117867748Y-84619735D01*
X117867753Y-84619737D01*
X117932397Y-84632595D01*
X118023099Y-84650638D01*
X118085010Y-84683023D01*
X118086589Y-84684574D01*
X120764431Y-87362416D01*
X120779134Y-87389343D01*
X120795727Y-87415162D01*
X120796618Y-87421362D01*
X120797916Y-87423739D01*
X120800750Y-87450097D01*
X120800750Y-87450234D01*
X120781065Y-87517273D01*
X120779852Y-87519125D01*
X120691859Y-87650814D01*
X120691852Y-87650827D01*
X120631514Y-87796498D01*
X120631511Y-87796510D01*
X120600750Y-87951153D01*
X120600750Y-88108846D01*
X120631511Y-88263489D01*
X120631514Y-88263501D01*
X120691852Y-88409172D01*
X120691859Y-88409185D01*
X120779460Y-88540288D01*
X120779463Y-88540292D01*
X120890957Y-88651786D01*
X120890961Y-88651789D01*
X120996634Y-88722398D01*
X121041439Y-88776010D01*
X121050146Y-88845335D01*
X121019992Y-88908363D01*
X120960548Y-88945082D01*
X120927743Y-88949500D01*
X116431347Y-88949500D01*
X116364308Y-88929815D01*
X116343666Y-88913181D01*
X115918069Y-88487584D01*
X115884584Y-88426261D01*
X115881750Y-88399903D01*
X115881750Y-78985134D01*
X115901435Y-78918095D01*
X115954239Y-78872340D01*
X116023397Y-78862396D01*
X116053200Y-78870572D01*
X116147753Y-78909737D01*
X116302403Y-78940499D01*
X116302406Y-78940500D01*
X116302408Y-78940500D01*
X116460094Y-78940500D01*
X116460095Y-78940499D01*
X116614747Y-78909737D01*
X116760429Y-78849394D01*
X116891539Y-78761789D01*
X117003039Y-78650289D01*
X117090644Y-78519179D01*
X117150987Y-78373497D01*
X117181750Y-78218842D01*
X117181750Y-78061158D01*
X117181750Y-78061155D01*
X117161096Y-77957324D01*
X117167323Y-77887732D01*
X117195029Y-77845454D01*
X117685912Y-77354572D01*
X117747233Y-77321089D01*
X117749400Y-77320638D01*
X117807335Y-77309113D01*
X117904747Y-77289737D01*
X118050429Y-77229394D01*
X118181539Y-77141789D01*
X118293039Y-77030289D01*
X118380644Y-76899179D01*
X118440987Y-76753497D01*
X118471750Y-76598842D01*
X118471750Y-76441158D01*
X118471750Y-76441155D01*
X118471749Y-76441153D01*
X118440988Y-76286510D01*
X118440988Y-76286508D01*
X118440987Y-76286503D01*
X118417103Y-76228842D01*
X118380647Y-76140827D01*
X118380640Y-76140814D01*
X118293039Y-76009711D01*
X118293036Y-76009707D01*
X118181542Y-75898213D01*
X118181538Y-75898210D01*
X118050435Y-75810609D01*
X118050422Y-75810602D01*
X117904751Y-75750264D01*
X117904739Y-75750261D01*
X117750095Y-75719500D01*
X117750092Y-75719500D01*
X117592408Y-75719500D01*
X117592405Y-75719500D01*
X117437760Y-75750261D01*
X117437748Y-75750264D01*
X117292077Y-75810602D01*
X117292064Y-75810609D01*
X117160961Y-75898210D01*
X117160957Y-75898213D01*
X117049463Y-76009707D01*
X117049460Y-76009711D01*
X116961859Y-76140814D01*
X116961852Y-76140827D01*
X116901514Y-76286498D01*
X116901511Y-76286508D01*
X116870611Y-76441850D01*
X116838226Y-76503761D01*
X116836675Y-76505339D01*
X115900731Y-77441282D01*
X115900729Y-77441285D01*
X115872893Y-77489500D01*
X115872891Y-77489503D01*
X115844474Y-77538721D01*
X115824771Y-77564398D01*
X115759462Y-77629708D01*
X115759458Y-77629714D01*
X115671859Y-77760814D01*
X115671852Y-77760827D01*
X115611514Y-77906498D01*
X115611511Y-77906510D01*
X115580750Y-78061153D01*
X115580750Y-78120903D01*
X115561065Y-78187942D01*
X115508261Y-78233697D01*
X115439103Y-78243641D01*
X115375547Y-78214616D01*
X115369069Y-78208584D01*
X114535824Y-77375339D01*
X114502339Y-77314016D01*
X114501888Y-77311849D01*
X114470988Y-77156510D01*
X114470987Y-77156503D01*
X114464891Y-77141786D01*
X114410647Y-77010827D01*
X114410640Y-77010814D01*
X114323039Y-76879711D01*
X114323036Y-76879707D01*
X114211542Y-76768213D01*
X114211538Y-76768210D01*
X114080435Y-76680609D01*
X114080422Y-76680602D01*
X113934751Y-76620264D01*
X113934739Y-76620261D01*
X113780095Y-76589500D01*
X113780092Y-76589500D01*
X113622408Y-76589500D01*
X113622405Y-76589500D01*
X113467760Y-76620261D01*
X113467748Y-76620264D01*
X113322077Y-76680602D01*
X113322064Y-76680609D01*
X113190961Y-76768210D01*
X113190957Y-76768213D01*
X113079463Y-76879707D01*
X113079460Y-76879711D01*
X112991859Y-77010814D01*
X112991852Y-77010827D01*
X112931514Y-77156498D01*
X112931511Y-77156510D01*
X112900750Y-77311153D01*
X112900750Y-77468846D01*
X112931511Y-77623489D01*
X112931514Y-77623501D01*
X112991852Y-77769172D01*
X112991859Y-77769185D01*
X113079460Y-77900288D01*
X113079463Y-77900292D01*
X113190957Y-78011786D01*
X113190961Y-78011789D01*
X113322064Y-78099390D01*
X113322077Y-78099397D01*
X113467748Y-78159735D01*
X113467753Y-78159737D01*
X113532397Y-78172595D01*
X113623099Y-78190638D01*
X113685010Y-78223023D01*
X113686589Y-78224574D01*
X114644431Y-79182416D01*
X114677916Y-79243739D01*
X114680750Y-79270097D01*
X114680750Y-88620939D01*
X114680749Y-88620943D01*
X114680749Y-88779057D01*
X114688200Y-88806865D01*
X114688730Y-88820787D01*
X114683445Y-88841692D01*
X114682933Y-88863254D01*
X114675052Y-88874897D01*
X114671608Y-88888526D01*
X114655860Y-88903256D01*
X114643772Y-88921117D01*
X114630847Y-88926651D01*
X114620581Y-88936255D01*
X114599368Y-88940132D01*
X114579544Y-88948623D01*
X114564820Y-88949500D01*
X113698976Y-88949500D01*
X113674483Y-88947057D01*
X113674349Y-88947030D01*
X113673061Y-88946763D01*
X113591849Y-88929500D01*
X113586215Y-88929500D01*
X113586211Y-88929500D01*
X113418677Y-88929500D01*
X113413173Y-88929500D01*
X113412180Y-88929547D01*
X113324709Y-88929547D01*
X113324708Y-88929547D01*
X113270449Y-88935248D01*
X112971158Y-88966700D01*
X112623422Y-89040607D01*
X112285315Y-89150459D01*
X112285311Y-89150461D01*
X111960561Y-89295043D01*
X111960550Y-89295049D01*
X111960549Y-89295050D01*
X111729260Y-89428581D01*
X111652673Y-89472797D01*
X111365060Y-89681755D01*
X111100872Y-89919626D01*
X110862997Y-90183808D01*
X110862986Y-90183822D01*
X110654036Y-90471411D01*
X110476279Y-90779292D01*
X110476274Y-90779302D01*
X110331686Y-91104046D01*
X110221824Y-91442161D01*
X110221824Y-91442164D01*
X110185918Y-91611084D01*
X110147911Y-91789888D01*
X110110750Y-92143441D01*
X110110750Y-92143444D01*
X110110750Y-92601236D01*
X110091065Y-92668275D01*
X110059637Y-92701553D01*
X110014684Y-92734213D01*
X109852965Y-92895932D01*
X109791568Y-92980438D01*
X109736237Y-93023103D01*
X109666624Y-93029082D01*
X109604829Y-92996476D01*
X109590932Y-92980438D01*
X109537504Y-92906901D01*
X109529536Y-92895934D01*
X109367816Y-92734214D01*
X109182788Y-92599783D01*
X108979005Y-92495950D01*
X108761498Y-92425278D01*
X108576062Y-92395908D01*
X108535604Y-92389500D01*
X108306896Y-92389500D01*
X108266438Y-92395908D01*
X108081003Y-92425278D01*
X108081000Y-92425278D01*
X107863494Y-92495950D01*
X107659711Y-92599783D01*
X107589164Y-92651039D01*
X107474684Y-92734214D01*
X107474682Y-92734216D01*
X107474681Y-92734216D01*
X107312966Y-92895931D01*
X107312966Y-92895932D01*
X107312964Y-92895934D01*
X107304996Y-92906901D01*
X107178533Y-93080961D01*
X107074700Y-93284744D01*
X107004028Y-93502250D01*
X107004028Y-93502253D01*
X106968250Y-93728146D01*
X85073448Y-93728146D01*
X85072857Y-76071153D01*
X101940750Y-76071153D01*
X101940750Y-76228846D01*
X101971511Y-76383489D01*
X101971514Y-76383501D01*
X102031852Y-76529172D01*
X102031859Y-76529185D01*
X102119460Y-76660288D01*
X102119463Y-76660292D01*
X102230957Y-76771786D01*
X102230961Y-76771789D01*
X102362064Y-76859390D01*
X102362077Y-76859397D01*
X102507748Y-76919735D01*
X102507753Y-76919737D01*
X102572397Y-76932595D01*
X102663099Y-76950638D01*
X102725010Y-76983023D01*
X102726589Y-76984574D01*
X106026389Y-80284374D01*
X106026399Y-80284385D01*
X106030729Y-80288715D01*
X106030730Y-80288716D01*
X106142534Y-80400520D01*
X106191582Y-80428837D01*
X106229345Y-80450639D01*
X106229347Y-80450641D01*
X106247823Y-80461308D01*
X106279465Y-80479577D01*
X106432193Y-80520500D01*
X106590307Y-80520500D01*
X112731484Y-80520500D01*
X112798523Y-80540185D01*
X112800375Y-80541398D01*
X112932064Y-80629390D01*
X112932077Y-80629397D01*
X113077748Y-80689735D01*
X113077753Y-80689737D01*
X113203627Y-80714775D01*
X113232403Y-80720499D01*
X113232406Y-80720500D01*
X113232408Y-80720500D01*
X113390094Y-80720500D01*
X113390095Y-80720499D01*
X113544747Y-80689737D01*
X113690429Y-80629394D01*
X113821539Y-80541789D01*
X113933039Y-80430289D01*
X114020644Y-80299179D01*
X114080987Y-80153497D01*
X114111750Y-79998842D01*
X114111750Y-79841158D01*
X114111750Y-79841155D01*
X114111749Y-79841153D01*
X114111690Y-79840854D01*
X114080987Y-79686503D01*
X114080985Y-79686498D01*
X114020647Y-79540827D01*
X114020640Y-79540814D01*
X113933039Y-79409711D01*
X113933036Y-79409707D01*
X113821542Y-79298213D01*
X113821538Y-79298210D01*
X113690435Y-79210609D01*
X113690422Y-79210602D01*
X113544751Y-79150264D01*
X113544739Y-79150261D01*
X113390095Y-79119500D01*
X113390092Y-79119500D01*
X113232408Y-79119500D01*
X113232405Y-79119500D01*
X113077760Y-79150261D01*
X113077748Y-79150264D01*
X112932077Y-79210602D01*
X112932064Y-79210609D01*
X112800375Y-79298602D01*
X112733697Y-79319480D01*
X112731484Y-79319500D01*
X106811347Y-79319500D01*
X106744308Y-79299815D01*
X106723666Y-79283181D01*
X103575824Y-76135339D01*
X103542339Y-76074016D01*
X103541888Y-76071849D01*
X103510988Y-75916510D01*
X103510987Y-75916503D01*
X103467125Y-75810609D01*
X103450647Y-75770827D01*
X103450640Y-75770814D01*
X103363039Y-75639711D01*
X103363036Y-75639707D01*
X103251542Y-75528213D01*
X103251538Y-75528210D01*
X103120435Y-75440609D01*
X103120422Y-75440602D01*
X102974751Y-75380264D01*
X102974739Y-75380261D01*
X102820095Y-75349500D01*
X102820092Y-75349500D01*
X102662408Y-75349500D01*
X102662405Y-75349500D01*
X102507760Y-75380261D01*
X102507748Y-75380264D01*
X102362077Y-75440602D01*
X102362064Y-75440609D01*
X102230961Y-75528210D01*
X102230957Y-75528213D01*
X102119463Y-75639707D01*
X102119460Y-75639711D01*
X102031859Y-75770814D01*
X102031852Y-75770827D01*
X101971514Y-75916498D01*
X101971511Y-75916510D01*
X101940750Y-76071153D01*
X85072857Y-76071153D01*
X85072691Y-71101153D01*
X96340750Y-71101153D01*
X96340750Y-71258846D01*
X96371511Y-71413489D01*
X96371514Y-71413501D01*
X96431852Y-71559172D01*
X96431859Y-71559185D01*
X96519460Y-71690288D01*
X96519463Y-71690292D01*
X96630957Y-71801786D01*
X96630961Y-71801789D01*
X96762064Y-71889390D01*
X96762077Y-71889397D01*
X96907748Y-71949735D01*
X96907753Y-71949737D01*
X96972397Y-71962595D01*
X97063099Y-71980638D01*
X97125010Y-72013023D01*
X97126589Y-72014574D01*
X99526389Y-74414374D01*
X99526399Y-74414385D01*
X99530729Y-74418715D01*
X99530730Y-74418716D01*
X99642534Y-74530520D01*
X99727504Y-74579577D01*
X99727505Y-74579578D01*
X99779459Y-74609574D01*
X99779460Y-74609575D01*
X99779462Y-74609575D01*
X99779465Y-74609577D01*
X99932193Y-74650501D01*
X99932196Y-74650501D01*
X100097903Y-74650501D01*
X100097919Y-74650500D01*
X109554581Y-74650500D01*
X109554597Y-74650501D01*
X109562193Y-74650501D01*
X109720305Y-74650501D01*
X109720307Y-74650501D01*
X109816502Y-74624724D01*
X109848596Y-74620500D01*
X111711484Y-74620500D01*
X111778523Y-74640185D01*
X111780375Y-74641398D01*
X111912064Y-74729390D01*
X111912077Y-74729397D01*
X112057748Y-74789735D01*
X112057753Y-74789737D01*
X112212403Y-74820499D01*
X112212406Y-74820500D01*
X112212408Y-74820500D01*
X112370094Y-74820500D01*
X112370095Y-74820499D01*
X112524747Y-74789737D01*
X112670429Y-74729394D01*
X112801539Y-74641789D01*
X112913039Y-74530289D01*
X113000644Y-74399179D01*
X113060987Y-74253497D01*
X113091750Y-74098842D01*
X113091750Y-73941158D01*
X113091750Y-73941155D01*
X113091749Y-73941153D01*
X113060988Y-73786510D01*
X113060987Y-73786503D01*
X113060985Y-73786498D01*
X113000647Y-73640827D01*
X113000640Y-73640814D01*
X112913039Y-73509711D01*
X112913036Y-73509707D01*
X112801542Y-73398213D01*
X112801538Y-73398210D01*
X112670435Y-73310609D01*
X112670422Y-73310602D01*
X112524751Y-73250264D01*
X112524739Y-73250261D01*
X112370095Y-73219500D01*
X112370092Y-73219500D01*
X112212408Y-73219500D01*
X112212405Y-73219500D01*
X112057760Y-73250261D01*
X112057748Y-73250264D01*
X111912077Y-73310602D01*
X111912064Y-73310609D01*
X111780375Y-73398602D01*
X111713697Y-73419480D01*
X111711484Y-73419500D01*
X109592187Y-73419500D01*
X109551268Y-73430464D01*
X109551269Y-73430465D01*
X109495999Y-73445275D01*
X109463905Y-73449500D01*
X100311347Y-73449500D01*
X100244308Y-73429815D01*
X100223666Y-73413181D01*
X97975824Y-71165339D01*
X97942339Y-71104016D01*
X97941888Y-71101849D01*
X97911807Y-70950627D01*
X97910987Y-70946503D01*
X97910985Y-70946498D01*
X97850647Y-70800827D01*
X97850640Y-70800814D01*
X97763039Y-70669711D01*
X97763036Y-70669707D01*
X97651542Y-70558213D01*
X97651538Y-70558210D01*
X97606577Y-70528168D01*
X97520435Y-70470609D01*
X97520422Y-70470602D01*
X97425182Y-70431153D01*
X102360750Y-70431153D01*
X102360750Y-70588846D01*
X102391511Y-70743489D01*
X102391514Y-70743501D01*
X102451852Y-70889172D01*
X102451859Y-70889185D01*
X102539460Y-71020288D01*
X102539463Y-71020292D01*
X102650957Y-71131786D01*
X102650961Y-71131789D01*
X102782064Y-71219390D01*
X102782077Y-71219397D01*
X102926435Y-71279191D01*
X102966662Y-71306069D01*
X102994707Y-71334114D01*
X103109442Y-71410777D01*
X103236917Y-71463578D01*
X103236922Y-71463580D01*
X103236926Y-71463580D01*
X103236927Y-71463581D01*
X103372253Y-71490500D01*
X103372256Y-71490500D01*
X103372257Y-71490500D01*
X109398128Y-71490500D01*
X109465167Y-71510185D01*
X109510922Y-71562989D01*
X109512679Y-71567025D01*
X109516936Y-71577302D01*
X109521855Y-71589178D01*
X109521859Y-71589185D01*
X109609460Y-71720288D01*
X109609463Y-71720292D01*
X109720957Y-71831786D01*
X109720961Y-71831789D01*
X109852064Y-71919390D01*
X109852077Y-71919397D01*
X109925328Y-71949738D01*
X109997753Y-71979737D01*
X110152403Y-72010499D01*
X110152406Y-72010500D01*
X110152408Y-72010500D01*
X110310094Y-72010500D01*
X110310095Y-72010499D01*
X110464747Y-71979737D01*
X110610429Y-71919394D01*
X110741539Y-71831789D01*
X110853039Y-71720289D01*
X110904422Y-71643389D01*
X133340750Y-71643389D01*
X133340750Y-71816611D01*
X133343154Y-71831789D01*
X133366586Y-71979738D01*
X133367848Y-71987701D01*
X133421377Y-72152445D01*
X133500018Y-72306788D01*
X133601836Y-72446928D01*
X133724322Y-72569414D01*
X133864462Y-72671232D01*
X134018805Y-72749873D01*
X134183549Y-72803402D01*
X134354639Y-72830500D01*
X134354640Y-72830500D01*
X134527860Y-72830500D01*
X134527861Y-72830500D01*
X134698951Y-72803402D01*
X134863695Y-72749873D01*
X135018038Y-72671232D01*
X135158178Y-72569414D01*
X135280664Y-72446928D01*
X135382482Y-72306788D01*
X135461123Y-72152445D01*
X135514652Y-71987701D01*
X135541750Y-71816611D01*
X135541750Y-71643389D01*
X135514652Y-71472299D01*
X135461123Y-71307555D01*
X135382482Y-71153212D01*
X135280664Y-71013072D01*
X135158178Y-70890586D01*
X135018038Y-70788768D01*
X134863695Y-70710127D01*
X134698951Y-70656598D01*
X134698949Y-70656597D01*
X134698948Y-70656597D01*
X134567521Y-70635781D01*
X134527861Y-70629500D01*
X134354639Y-70629500D01*
X134314978Y-70635781D01*
X134183552Y-70656597D01*
X134018802Y-70710128D01*
X133864461Y-70788768D01*
X133784506Y-70846859D01*
X133724322Y-70890586D01*
X133724320Y-70890588D01*
X133724319Y-70890588D01*
X133601838Y-71013069D01*
X133601838Y-71013070D01*
X133601836Y-71013072D01*
X133579580Y-71043705D01*
X133500018Y-71153211D01*
X133421378Y-71307552D01*
X133367847Y-71472302D01*
X133349336Y-71589178D01*
X133340750Y-71643389D01*
X110904422Y-71643389D01*
X110940644Y-71589179D01*
X111000987Y-71443497D01*
X111031750Y-71288842D01*
X111031750Y-71264500D01*
X111051435Y-71197461D01*
X111104239Y-71151706D01*
X111155750Y-71140500D01*
X119405018Y-71140500D01*
X119405019Y-71140499D01*
X119490694Y-71123458D01*
X119569324Y-71107818D01*
X119569328Y-71107816D01*
X119569332Y-71107816D01*
X119614665Y-71089037D01*
X119724113Y-71043704D01*
X119863412Y-70950627D01*
X121601877Y-69212162D01*
X121601877Y-69212161D01*
X121847221Y-68966816D01*
X121908543Y-68933334D01*
X121934901Y-68930500D01*
X147027483Y-68930500D01*
X147437483Y-68930500D01*
X151686812Y-68930500D01*
X151753851Y-68950185D01*
X151799606Y-69002989D01*
X151809550Y-69072147D01*
X151796609Y-69112124D01*
X151789969Y-69124774D01*
X151789966Y-69124780D01*
X151789966Y-69124782D01*
X151686127Y-69398578D01*
X151686126Y-69398581D01*
X151686126Y-69398582D01*
X151616046Y-69682898D01*
X151580750Y-69973584D01*
X151580750Y-78009358D01*
X151580800Y-78010373D01*
X151580800Y-78055524D01*
X151613471Y-78324596D01*
X151619541Y-78349223D01*
X151678334Y-78587759D01*
X151678335Y-78587762D01*
X151678336Y-78587765D01*
X151678337Y-78587769D01*
X151774440Y-78841180D01*
X151774447Y-78841196D01*
X151864506Y-79012793D01*
X151900403Y-79081190D01*
X151989727Y-79210602D01*
X152054367Y-79304252D01*
X152054369Y-79304254D01*
X152054371Y-79304257D01*
X152234103Y-79507140D01*
X152436979Y-79686879D01*
X152436981Y-79686880D01*
X152436983Y-79686882D01*
X152436994Y-79686890D01*
X152660038Y-79840854D01*
X152813178Y-79921232D01*
X152900036Y-79966822D01*
X152984465Y-79998844D01*
X153153458Y-80062940D01*
X153153461Y-80062941D01*
X153153464Y-80062942D01*
X153285047Y-80095378D01*
X153416633Y-80127816D01*
X153685695Y-80160495D01*
X153685697Y-80160495D01*
X153737467Y-80160496D01*
X153737483Y-80160500D01*
X153821219Y-80160500D01*
X153910611Y-80160503D01*
X153910616Y-80160501D01*
X153917129Y-80160502D01*
X153917186Y-80160500D01*
X157287754Y-80160500D01*
X157294708Y-80160695D01*
X157346007Y-80163576D01*
X157587655Y-80177150D01*
X157601461Y-80178706D01*
X157887294Y-80227274D01*
X157900845Y-80230368D01*
X158179425Y-80310629D01*
X158192546Y-80315221D01*
X158460403Y-80426175D01*
X158472931Y-80432208D01*
X158525583Y-80461308D01*
X158668297Y-80540185D01*
X158726665Y-80572444D01*
X158738439Y-80579842D01*
X158974881Y-80747610D01*
X158985753Y-80756280D01*
X159201926Y-80949467D01*
X159211758Y-80959299D01*
X159404946Y-81175478D01*
X159413616Y-81186351D01*
X159581373Y-81422788D01*
X159588771Y-81434561D01*
X159729013Y-81688311D01*
X159735046Y-81700840D01*
X159845988Y-81968680D01*
X159850581Y-81981805D01*
X159930840Y-82260394D01*
X159933934Y-82273950D01*
X159982497Y-82559769D01*
X159984054Y-82573587D01*
X160000555Y-82867421D01*
X160000750Y-82874374D01*
X160000750Y-88949358D01*
X160000800Y-88950373D01*
X160000800Y-89042641D01*
X160008307Y-89123658D01*
X160034501Y-89406355D01*
X160034502Y-89406356D01*
X160034503Y-89406364D01*
X160056258Y-89522741D01*
X160101623Y-89765427D01*
X160101625Y-89765433D01*
X160201586Y-90116764D01*
X160333536Y-90457370D01*
X160333538Y-90457374D01*
X160333540Y-90457379D01*
X160496358Y-90784366D01*
X160688652Y-91094936D01*
X160908782Y-91386439D01*
X160908786Y-91386444D01*
X161154863Y-91656382D01*
X161154868Y-91656387D01*
X161424812Y-91902478D01*
X161716311Y-92122612D01*
X162026878Y-92314911D01*
X162353863Y-92477735D01*
X162437690Y-92510211D01*
X162694465Y-92609690D01*
X162694469Y-92609691D01*
X162694476Y-92609694D01*
X163045812Y-92709662D01*
X163045819Y-92709663D01*
X163045822Y-92709664D01*
X163404854Y-92776785D01*
X163404859Y-92776785D01*
X163404873Y-92776788D01*
X163768596Y-92810497D01*
X163867476Y-92810498D01*
X163867483Y-92810500D01*
X163951236Y-92810500D01*
X164040627Y-92810502D01*
X164040631Y-92810500D01*
X164047391Y-92810501D01*
X164047428Y-92810500D01*
X164147483Y-92810500D01*
X171175076Y-92810500D01*
X171181865Y-92810500D01*
X171181874Y-92810502D01*
X171219857Y-92810501D01*
X171220027Y-92810550D01*
X171271265Y-92810549D01*
X171271265Y-92810550D01*
X171451094Y-92810547D01*
X171809021Y-92775289D01*
X172161767Y-92705117D01*
X172505937Y-92600709D01*
X172838217Y-92463069D01*
X173155405Y-92293523D01*
X173155413Y-92293517D01*
X173155416Y-92293516D01*
X173346939Y-92165541D01*
X173454448Y-92093704D01*
X173732466Y-91865537D01*
X173986780Y-91611217D01*
X174214943Y-91333196D01*
X174414757Y-91034149D01*
X174584297Y-90716958D01*
X174721931Y-90384676D01*
X174745893Y-90305678D01*
X174784190Y-90247241D01*
X174791662Y-90241361D01*
X174928469Y-90141966D01*
X175073216Y-89997219D01*
X175073218Y-89997215D01*
X175073221Y-89997213D01*
X175143577Y-89900374D01*
X175193537Y-89831610D01*
X175286470Y-89649219D01*
X175349727Y-89454534D01*
X175381750Y-89252352D01*
X175381750Y-89047648D01*
X175363087Y-88929815D01*
X175349727Y-88845465D01*
X175309740Y-88722398D01*
X175286470Y-88650781D01*
X175286468Y-88650778D01*
X175286468Y-88650776D01*
X175230171Y-88540288D01*
X175193537Y-88468390D01*
X175153285Y-88412987D01*
X175073221Y-88302786D01*
X174928463Y-88158028D01*
X174762863Y-88037715D01*
X174762862Y-88037714D01*
X174762860Y-88037713D01*
X174703925Y-88007684D01*
X174580473Y-87944781D01*
X174385784Y-87881522D01*
X174211245Y-87853878D01*
X174183602Y-87849500D01*
X173978898Y-87849500D01*
X173954579Y-87853351D01*
X173776715Y-87881522D01*
X173582026Y-87944781D01*
X173399636Y-88037715D01*
X173234036Y-88158028D01*
X173089278Y-88302786D01*
X172968965Y-88468386D01*
X172921735Y-88561080D01*
X172873760Y-88611876D01*
X172805939Y-88628671D01*
X172739804Y-88606134D01*
X172700765Y-88561080D01*
X172690171Y-88540288D01*
X172653537Y-88468390D01*
X172613285Y-88412987D01*
X172533221Y-88302786D01*
X172388463Y-88158028D01*
X172222863Y-88037715D01*
X172222862Y-88037714D01*
X172222860Y-88037713D01*
X172163925Y-88007684D01*
X172040473Y-87944781D01*
X171845784Y-87881522D01*
X171671245Y-87853878D01*
X171643602Y-87849500D01*
X171438898Y-87849500D01*
X171414579Y-87853351D01*
X171236715Y-87881522D01*
X171042026Y-87944781D01*
X170859636Y-88037715D01*
X170694036Y-88158028D01*
X170549278Y-88302786D01*
X170428965Y-88468386D01*
X170381735Y-88561080D01*
X170333760Y-88611876D01*
X170265939Y-88628671D01*
X170199804Y-88606134D01*
X170160765Y-88561080D01*
X170150171Y-88540288D01*
X170113537Y-88468390D01*
X170073285Y-88412987D01*
X169993221Y-88302786D01*
X169848467Y-88158032D01*
X169848462Y-88158028D01*
X169752865Y-88088573D01*
X169710199Y-88033243D01*
X169701750Y-87988255D01*
X169701750Y-86386093D01*
X169702347Y-86373939D01*
X169702623Y-86371127D01*
X169718029Y-86214719D01*
X169722771Y-86190885D01*
X169767436Y-86043646D01*
X169776734Y-86021196D01*
X169849274Y-85885487D01*
X169862763Y-85865299D01*
X169960391Y-85746343D01*
X169977566Y-85729169D01*
X170096515Y-85631553D01*
X170116718Y-85618055D01*
X170252421Y-85545525D01*
X170274876Y-85536224D01*
X170422115Y-85491563D01*
X170445950Y-85486823D01*
X170605165Y-85471147D01*
X170617309Y-85470550D01*
X170727767Y-85470544D01*
X170727903Y-85470544D01*
X170906581Y-85444845D01*
X170958747Y-85437343D01*
X170958749Y-85437342D01*
X170958758Y-85437341D01*
X171182538Y-85371622D01*
X171394688Y-85274726D01*
X171590890Y-85148626D01*
X171590892Y-85148623D01*
X171590894Y-85148623D01*
X171622504Y-85121230D01*
X171767149Y-84995887D01*
X171919878Y-84819619D01*
X172045968Y-84623411D01*
X172142853Y-84411256D01*
X172208559Y-84187472D01*
X172241750Y-83956615D01*
X172241750Y-83840000D01*
X172241750Y-83761073D01*
X172241750Y-82691744D01*
X172261435Y-82624705D01*
X172292865Y-82591426D01*
X172388465Y-82521969D01*
X172388465Y-82521968D01*
X172388469Y-82521966D01*
X172533216Y-82377219D01*
X172533218Y-82377215D01*
X172533221Y-82377213D01*
X172653534Y-82211614D01*
X172653535Y-82211613D01*
X172653537Y-82211610D01*
X172700766Y-82118917D01*
X172748739Y-82068123D01*
X172816560Y-82051328D01*
X172882695Y-82073865D01*
X172921735Y-82118919D01*
X172968965Y-82211614D01*
X173089278Y-82377213D01*
X173234036Y-82521971D01*
X173375440Y-82624705D01*
X173399640Y-82642287D01*
X173496705Y-82691744D01*
X173582026Y-82735218D01*
X173582028Y-82735218D01*
X173582031Y-82735220D01*
X173686387Y-82769127D01*
X173776715Y-82798477D01*
X173877807Y-82814488D01*
X173978898Y-82830500D01*
X173978899Y-82830500D01*
X174183601Y-82830500D01*
X174183602Y-82830500D01*
X174385784Y-82798477D01*
X174580469Y-82735220D01*
X174762860Y-82642287D01*
X174876505Y-82559720D01*
X174928463Y-82521971D01*
X174928465Y-82521968D01*
X174928469Y-82521966D01*
X175073216Y-82377219D01*
X175073218Y-82377215D01*
X175073221Y-82377213D01*
X175125982Y-82304590D01*
X175193537Y-82211610D01*
X175286470Y-82029219D01*
X175349727Y-81834534D01*
X175381750Y-81632352D01*
X175381750Y-81427648D01*
X175349727Y-81225466D01*
X175286470Y-81030781D01*
X175286468Y-81030778D01*
X175286468Y-81030776D01*
X175240765Y-80941080D01*
X175193537Y-80848390D01*
X175169172Y-80814854D01*
X175073221Y-80682786D01*
X174928463Y-80538028D01*
X174762863Y-80417715D01*
X174762862Y-80417714D01*
X174762860Y-80417713D01*
X174678672Y-80374817D01*
X174580473Y-80324781D01*
X174385784Y-80261522D01*
X174211245Y-80233878D01*
X174183602Y-80229500D01*
X173978898Y-80229500D01*
X173954579Y-80233351D01*
X173776715Y-80261522D01*
X173582026Y-80324781D01*
X173399636Y-80417715D01*
X173234036Y-80538028D01*
X173089278Y-80682786D01*
X172968965Y-80848386D01*
X172921735Y-80941080D01*
X172873760Y-80991876D01*
X172805939Y-81008671D01*
X172739804Y-80986134D01*
X172700765Y-80941080D01*
X172700133Y-80939840D01*
X172653537Y-80848390D01*
X172629172Y-80814854D01*
X172533221Y-80682786D01*
X172388471Y-80538036D01*
X172388465Y-80538031D01*
X172302865Y-80475839D01*
X172260199Y-80420509D01*
X172251750Y-80375521D01*
X172251750Y-71501004D01*
X172227673Y-71379966D01*
X172225640Y-71369744D01*
X172224830Y-71365671D01*
X172193006Y-71288842D01*
X172189235Y-71279737D01*
X172172028Y-71238195D01*
X172172021Y-71238182D01*
X172095365Y-71123459D01*
X172060940Y-71089034D01*
X171997792Y-71025886D01*
X170634190Y-69662284D01*
X166437796Y-65465888D01*
X166437795Y-65465887D01*
X166323057Y-65389222D01*
X166195582Y-65336421D01*
X166195572Y-65336418D01*
X166060246Y-65309500D01*
X166060244Y-65309500D01*
X166060243Y-65309500D01*
X162782994Y-65309500D01*
X162715955Y-65289815D01*
X162682675Y-65258384D01*
X162613219Y-65162784D01*
X162468463Y-65018028D01*
X162302864Y-64897715D01*
X162265382Y-64878617D01*
X162210167Y-64850483D01*
X162159373Y-64802511D01*
X162142578Y-64734690D01*
X162165115Y-64668555D01*
X162210167Y-64629516D01*
X162302860Y-64582287D01*
X162357920Y-64542284D01*
X162468463Y-64461971D01*
X162468465Y-64461968D01*
X162468469Y-64461966D01*
X162613216Y-64317219D01*
X162613218Y-64317215D01*
X162613221Y-64317213D01*
X162696208Y-64202989D01*
X162733537Y-64151610D01*
X162826470Y-63969219D01*
X162889727Y-63774534D01*
X162921750Y-63572352D01*
X162921750Y-63367648D01*
X162909735Y-63291789D01*
X162889727Y-63165465D01*
X162842662Y-63020616D01*
X162826470Y-62970781D01*
X162826468Y-62970778D01*
X162826468Y-62970776D01*
X162792183Y-62903489D01*
X162733537Y-62788390D01*
X162704473Y-62748386D01*
X162613221Y-62622786D01*
X162468463Y-62478028D01*
X162302861Y-62357713D01*
X162209619Y-62310203D01*
X162158824Y-62262229D01*
X162142029Y-62194407D01*
X162164567Y-62128273D01*
X162209621Y-62089234D01*
X162302596Y-62041861D01*
X162302597Y-62041861D01*
X162347171Y-62009474D01*
X161667696Y-61330000D01*
X161673911Y-61330000D01*
X161775644Y-61302741D01*
X161866856Y-61250080D01*
X161941330Y-61175606D01*
X161993991Y-61084394D01*
X162021250Y-60982661D01*
X162021250Y-60976448D01*
X162700724Y-61655922D01*
X162700724Y-61655921D01*
X162733109Y-61611349D01*
X162826005Y-61429031D01*
X162889240Y-61234417D01*
X162921250Y-61032317D01*
X162921250Y-60827682D01*
X162889240Y-60625582D01*
X162826005Y-60430968D01*
X162733109Y-60248650D01*
X162700724Y-60204077D01*
X162700724Y-60204076D01*
X162021250Y-60883551D01*
X162021250Y-60877339D01*
X161993991Y-60775606D01*
X161941330Y-60684394D01*
X161866856Y-60609920D01*
X161775644Y-60557259D01*
X161673911Y-60530000D01*
X161667696Y-60530000D01*
X162347172Y-59850524D01*
X162347171Y-59850523D01*
X162302609Y-59818147D01*
X162302600Y-59818141D01*
X162120281Y-59725244D01*
X161925667Y-59662009D01*
X161723567Y-59630000D01*
X161518933Y-59630000D01*
X161316832Y-59662009D01*
X161122218Y-59725244D01*
X160939894Y-59818143D01*
X160895327Y-59850523D01*
X160895327Y-59850524D01*
X161574804Y-60530000D01*
X161568589Y-60530000D01*
X161466856Y-60557259D01*
X161375644Y-60609920D01*
X161301170Y-60684394D01*
X161248509Y-60775606D01*
X161221250Y-60877339D01*
X161221250Y-60883553D01*
X160541774Y-60204077D01*
X160541773Y-60204077D01*
X160509393Y-60248644D01*
X160416494Y-60430968D01*
X160353259Y-60625582D01*
X160321250Y-60827682D01*
X160321250Y-60879980D01*
X160301565Y-60947019D01*
X160248761Y-60992774D01*
X160179603Y-61002718D01*
X160116047Y-60973693D01*
X160109569Y-60967661D01*
X157357795Y-58215887D01*
X157243057Y-58139222D01*
X157115582Y-58086421D01*
X157115572Y-58086418D01*
X156980246Y-58059500D01*
X156980244Y-58059500D01*
X156980243Y-58059500D01*
X152722257Y-58059500D01*
X152722253Y-58059500D01*
X152613840Y-58081065D01*
X152613839Y-58081065D01*
X152600381Y-58083742D01*
X152586923Y-58086419D01*
X152560518Y-58097356D01*
X152534116Y-58108292D01*
X152534114Y-58108293D01*
X152534113Y-58108292D01*
X152459441Y-58139223D01*
X152362804Y-58203795D01*
X152362803Y-58203796D01*
X152344704Y-58215888D01*
X152344703Y-58215889D01*
X151627138Y-58933453D01*
X151627137Y-58933454D01*
X151550472Y-59048192D01*
X151497671Y-59175667D01*
X151497668Y-59175679D01*
X151473652Y-59296414D01*
X151473652Y-59296420D01*
X151470750Y-59311007D01*
X151470750Y-61571006D01*
X151470750Y-61708994D01*
X151470750Y-61708996D01*
X151470749Y-61708996D01*
X151473199Y-61721308D01*
X151466972Y-61790900D01*
X151424109Y-61846077D01*
X151358220Y-61869322D01*
X151351582Y-61869500D01*
X151282405Y-61869500D01*
X151127760Y-61900261D01*
X151127748Y-61900264D01*
X150982077Y-61960602D01*
X150982064Y-61960609D01*
X150850961Y-62048210D01*
X150850957Y-62048213D01*
X150739463Y-62159707D01*
X150739460Y-62159711D01*
X150651859Y-62290814D01*
X150651852Y-62290827D01*
X150591514Y-62436498D01*
X150591511Y-62436508D01*
X150560612Y-62591847D01*
X150551847Y-62608602D01*
X150547828Y-62627081D01*
X150529083Y-62652119D01*
X150528227Y-62653758D01*
X150526677Y-62655335D01*
X150438834Y-62743180D01*
X150377511Y-62776666D01*
X150351152Y-62779500D01*
X147002765Y-62779500D01*
X146935726Y-62759815D01*
X146889971Y-62707011D01*
X146880027Y-62637853D01*
X146902446Y-62582615D01*
X146984687Y-62469418D01*
X147071866Y-62298321D01*
X147131209Y-62115684D01*
X147161250Y-61926015D01*
X147161250Y-61733984D01*
X147131209Y-61544315D01*
X147071866Y-61361678D01*
X146984684Y-61190577D01*
X146963451Y-61161352D01*
X146963450Y-61161351D01*
X146341250Y-61783551D01*
X146341250Y-61777339D01*
X146313991Y-61675606D01*
X146261330Y-61584394D01*
X146186856Y-61509920D01*
X146095644Y-61457259D01*
X145993911Y-61430000D01*
X145987697Y-61430000D01*
X146609896Y-60807798D01*
X146580665Y-60786561D01*
X146409571Y-60699383D01*
X146226934Y-60640040D01*
X146037265Y-60610000D01*
X145845235Y-60610000D01*
X145655565Y-60640040D01*
X145472928Y-60699383D01*
X145301828Y-60786564D01*
X145272602Y-60807798D01*
X145272601Y-60807798D01*
X145894804Y-61430000D01*
X145888589Y-61430000D01*
X145786856Y-61457259D01*
X145695644Y-61509920D01*
X145621170Y-61584394D01*
X145568509Y-61675606D01*
X145541250Y-61777339D01*
X145541250Y-61783553D01*
X144919048Y-61161351D01*
X144919048Y-61161352D01*
X144897814Y-61190578D01*
X144810633Y-61361678D01*
X144751290Y-61544315D01*
X144721250Y-61733984D01*
X144721250Y-61926015D01*
X144751291Y-62115685D01*
X144751291Y-62115688D01*
X144781020Y-62207182D01*
X144783015Y-62277023D01*
X144746935Y-62336856D01*
X144684234Y-62367684D01*
X144663089Y-62369500D01*
X139917920Y-62369500D01*
X139917904Y-62369499D01*
X139910308Y-62369499D01*
X139752193Y-62369499D01*
X139675829Y-62389961D01*
X139599464Y-62410423D01*
X139599459Y-62410426D01*
X139462540Y-62489475D01*
X139462532Y-62489481D01*
X138955464Y-62996549D01*
X136348834Y-65603181D01*
X136287511Y-65636666D01*
X136261153Y-65639500D01*
X135384116Y-65639500D01*
X135317077Y-65619815D01*
X135271322Y-65567011D01*
X135261378Y-65497853D01*
X135283798Y-65442614D01*
X135382482Y-65306788D01*
X135461123Y-65152445D01*
X135514652Y-64987701D01*
X135541750Y-64816611D01*
X135541750Y-64643389D01*
X135514652Y-64472299D01*
X135461123Y-64307555D01*
X135382482Y-64153212D01*
X135280664Y-64013072D01*
X135158178Y-63890586D01*
X135018038Y-63788768D01*
X134863695Y-63710127D01*
X134698951Y-63656598D01*
X134698949Y-63656597D01*
X134698948Y-63656597D01*
X134567521Y-63635781D01*
X134527861Y-63629500D01*
X134354639Y-63629500D01*
X134314978Y-63635781D01*
X134183552Y-63656597D01*
X134018802Y-63710128D01*
X133864461Y-63788768D01*
X133805450Y-63831643D01*
X133724322Y-63890586D01*
X133724320Y-63890588D01*
X133724319Y-63890588D01*
X133601838Y-64013069D01*
X133601838Y-64013070D01*
X133601836Y-64013072D01*
X133558109Y-64073256D01*
X133500018Y-64153211D01*
X133421378Y-64307552D01*
X133367847Y-64472302D01*
X133340750Y-64643389D01*
X133340750Y-64816610D01*
X133364282Y-64965191D01*
X133367848Y-64987701D01*
X133401147Y-65090185D01*
X133421378Y-65152447D01*
X133427827Y-65165104D01*
X133500018Y-65306788D01*
X133539365Y-65360945D01*
X133598702Y-65442614D01*
X133622182Y-65508421D01*
X133606357Y-65576475D01*
X133556251Y-65625170D01*
X133498384Y-65639500D01*
X129771348Y-65639500D01*
X129704309Y-65619815D01*
X129683667Y-65603181D01*
X129108840Y-65028355D01*
X129108838Y-65028352D01*
X128989967Y-64909481D01*
X128989962Y-64909477D01*
X128898283Y-64856547D01*
X128853035Y-64830423D01*
X128700307Y-64789499D01*
X128542193Y-64789499D01*
X128534597Y-64789499D01*
X128534581Y-64789500D01*
X121947919Y-64789500D01*
X121947903Y-64789499D01*
X121940307Y-64789499D01*
X121782193Y-64789499D01*
X121629465Y-64830423D01*
X121629463Y-64830423D01*
X121629463Y-64830424D01*
X121588416Y-64854122D01*
X121588409Y-64854126D01*
X121584217Y-64856547D01*
X121492534Y-64909480D01*
X121458969Y-64943044D01*
X121449562Y-64949507D01*
X121426764Y-64956968D01*
X121405708Y-64968466D01*
X121394161Y-64967639D01*
X121383159Y-64971241D01*
X121359944Y-64965191D01*
X121336017Y-64963480D01*
X121326749Y-64956542D01*
X121315547Y-64953623D01*
X121299288Y-64935984D01*
X121280084Y-64921608D01*
X121276038Y-64910761D01*
X121268192Y-64902249D01*
X121264050Y-64878617D01*
X121255668Y-64856143D01*
X121257491Y-64841195D01*
X121256130Y-64833428D01*
X121259383Y-64825682D01*
X121261421Y-64808981D01*
X121267751Y-64789499D01*
X121291697Y-64715801D01*
X121321750Y-64526055D01*
X121321750Y-64333945D01*
X121291697Y-64144199D01*
X121249091Y-64013069D01*
X121232333Y-63961493D01*
X121232332Y-63961491D01*
X121145115Y-63790319D01*
X121032195Y-63634898D01*
X120896352Y-63499055D01*
X120740931Y-63386135D01*
X120727693Y-63379390D01*
X120569754Y-63298915D01*
X120387051Y-63239553D01*
X120345140Y-63232914D01*
X120283341Y-63204156D01*
X120122938Y-63065174D01*
X120122927Y-63065166D01*
X119973683Y-62969259D01*
X119973681Y-62969259D01*
X119918292Y-62933665D01*
X119918282Y-62933659D01*
X119697019Y-62832623D01*
X119463620Y-62764101D01*
X119463623Y-62764101D01*
X119222841Y-62729494D01*
X119101215Y-62729500D01*
X115202994Y-62729500D01*
X115135955Y-62709815D01*
X115102675Y-62678384D01*
X115033219Y-62582784D01*
X114888463Y-62438028D01*
X114722861Y-62317713D01*
X114629619Y-62270203D01*
X114578824Y-62222229D01*
X114562029Y-62154407D01*
X114584567Y-62088273D01*
X114629621Y-62049234D01*
X114722596Y-62001861D01*
X114722597Y-62001861D01*
X114767171Y-61969474D01*
X114767172Y-61969474D01*
X114674491Y-61876793D01*
X114591682Y-61793984D01*
X121421250Y-61793984D01*
X121421250Y-61986015D01*
X121451290Y-62175684D01*
X121510633Y-62358321D01*
X121597811Y-62529415D01*
X121619048Y-62558646D01*
X122241250Y-61936445D01*
X122241250Y-61942661D01*
X122268509Y-62044394D01*
X122321170Y-62135606D01*
X122395644Y-62210080D01*
X122486856Y-62262741D01*
X122588589Y-62290000D01*
X122594804Y-62290000D01*
X121972601Y-62912200D01*
X121972602Y-62912201D01*
X122001827Y-62933434D01*
X122172928Y-63020616D01*
X122355565Y-63079959D01*
X122545235Y-63110000D01*
X122737265Y-63110000D01*
X122926934Y-63079959D01*
X123109571Y-63020616D01*
X123280669Y-62933436D01*
X123309896Y-62912201D01*
X123309896Y-62912200D01*
X122687697Y-62290000D01*
X122693911Y-62290000D01*
X122795644Y-62262741D01*
X122886856Y-62210080D01*
X122961330Y-62135606D01*
X123013991Y-62044394D01*
X123041250Y-61942661D01*
X123041250Y-61936446D01*
X123663450Y-62558646D01*
X123663451Y-62558646D01*
X123684686Y-62529419D01*
X123771866Y-62358321D01*
X123831209Y-62175684D01*
X123861250Y-61986015D01*
X123861250Y-61793984D01*
X123831209Y-61604315D01*
X123771866Y-61421678D01*
X123684684Y-61250577D01*
X123663451Y-61221352D01*
X123663450Y-61221351D01*
X123041250Y-61843552D01*
X123041250Y-61837339D01*
X123013991Y-61735606D01*
X122961330Y-61644394D01*
X122886856Y-61569920D01*
X122795644Y-61517259D01*
X122693911Y-61490000D01*
X122687697Y-61490000D01*
X123309896Y-60867799D01*
X123309895Y-60867798D01*
X123280665Y-60846561D01*
X123109571Y-60759383D01*
X122926934Y-60700040D01*
X122737265Y-60670000D01*
X122545235Y-60670000D01*
X122355565Y-60700040D01*
X122172928Y-60759383D01*
X122001828Y-60846564D01*
X121972602Y-60867798D01*
X121972601Y-60867798D01*
X122594804Y-61490000D01*
X122588589Y-61490000D01*
X122486856Y-61517259D01*
X122395644Y-61569920D01*
X122321170Y-61644394D01*
X122268509Y-61735606D01*
X122241250Y-61837339D01*
X122241250Y-61843553D01*
X121619048Y-61221351D01*
X121619048Y-61221352D01*
X121597814Y-61250578D01*
X121510633Y-61421678D01*
X121451290Y-61604315D01*
X121421250Y-61793984D01*
X114591682Y-61793984D01*
X114087697Y-61290000D01*
X114093911Y-61290000D01*
X114195644Y-61262741D01*
X114286856Y-61210080D01*
X114361330Y-61135606D01*
X114413991Y-61044394D01*
X114441250Y-60942661D01*
X114441250Y-60936447D01*
X115120724Y-61615921D01*
X115153109Y-61571349D01*
X115246005Y-61389031D01*
X115309240Y-61194417D01*
X115341250Y-60992317D01*
X115341250Y-60787682D01*
X115309240Y-60585582D01*
X115246005Y-60390968D01*
X115153109Y-60208650D01*
X115120724Y-60164077D01*
X115120724Y-60164076D01*
X114441250Y-60843551D01*
X114441250Y-60837339D01*
X114413991Y-60735606D01*
X114361330Y-60644394D01*
X114286856Y-60569920D01*
X114195644Y-60517259D01*
X114093911Y-60490000D01*
X114087696Y-60490000D01*
X114767172Y-59810524D01*
X114767171Y-59810523D01*
X114722609Y-59778147D01*
X114722600Y-59778141D01*
X114540281Y-59685244D01*
X114345667Y-59622009D01*
X114143567Y-59590000D01*
X113938933Y-59590000D01*
X113736832Y-59622009D01*
X113542218Y-59685244D01*
X113359894Y-59778143D01*
X113315327Y-59810523D01*
X113315327Y-59810524D01*
X113994804Y-60490000D01*
X113988589Y-60490000D01*
X113886856Y-60517259D01*
X113795644Y-60569920D01*
X113721170Y-60644394D01*
X113668509Y-60735606D01*
X113641250Y-60837339D01*
X113641250Y-60843553D01*
X112961774Y-60164077D01*
X112961773Y-60164077D01*
X112929393Y-60208644D01*
X112836494Y-60390968D01*
X112773259Y-60585582D01*
X112741250Y-60787682D01*
X112741250Y-60839980D01*
X112721565Y-60907019D01*
X112668761Y-60952774D01*
X112599603Y-60962718D01*
X112536047Y-60933693D01*
X112529569Y-60927661D01*
X109987795Y-58385887D01*
X109873057Y-58309222D01*
X109745582Y-58256421D01*
X109745572Y-58256418D01*
X109610246Y-58229500D01*
X109610244Y-58229500D01*
X109610243Y-58229500D01*
X105930244Y-58229500D01*
X105792256Y-58229500D01*
X105792254Y-58229500D01*
X105656927Y-58256418D01*
X105656917Y-58256421D01*
X105529442Y-58309222D01*
X105414704Y-58385887D01*
X104277137Y-59523454D01*
X104200472Y-59638192D01*
X104147671Y-59765667D01*
X104147668Y-59765679D01*
X104123138Y-59889002D01*
X104122210Y-59893669D01*
X104120750Y-59901007D01*
X104120750Y-61761006D01*
X104120750Y-61898994D01*
X104120750Y-61898996D01*
X104120749Y-61898996D01*
X104147668Y-62034322D01*
X104147671Y-62034332D01*
X104200472Y-62161807D01*
X104277137Y-62276545D01*
X104277138Y-62276546D01*
X105104444Y-63103851D01*
X105137929Y-63165174D01*
X105139236Y-63210929D01*
X105125301Y-63298915D01*
X105120750Y-63327648D01*
X105120750Y-63532352D01*
X105121868Y-63539411D01*
X105152772Y-63734534D01*
X105216031Y-63929223D01*
X105258754Y-64013070D01*
X105294996Y-64084199D01*
X105308965Y-64111613D01*
X105429278Y-64277213D01*
X105574036Y-64421971D01*
X105717297Y-64526054D01*
X105739640Y-64542287D01*
X105831090Y-64588883D01*
X105832330Y-64589515D01*
X105883126Y-64637490D01*
X105899921Y-64705311D01*
X105877384Y-64771446D01*
X105832330Y-64810485D01*
X105739636Y-64857715D01*
X105574036Y-64978028D01*
X105429278Y-65122786D01*
X105308965Y-65288386D01*
X105216031Y-65470776D01*
X105152772Y-65665465D01*
X105120750Y-65867648D01*
X105120750Y-66072351D01*
X105152772Y-66274534D01*
X105216031Y-66469223D01*
X105267635Y-66570500D01*
X105294996Y-66624199D01*
X105308965Y-66651613D01*
X105429278Y-66817213D01*
X105574036Y-66961971D01*
X105709669Y-67060512D01*
X105739640Y-67082287D01*
X105824156Y-67125350D01*
X105832330Y-67129515D01*
X105883126Y-67177490D01*
X105899921Y-67245311D01*
X105877384Y-67311446D01*
X105832330Y-67350485D01*
X105739636Y-67397715D01*
X105574036Y-67518028D01*
X105429278Y-67662786D01*
X105308965Y-67828386D01*
X105216031Y-68010776D01*
X105152772Y-68205465D01*
X105120750Y-68407648D01*
X105120750Y-68612351D01*
X105152772Y-68814534D01*
X105216031Y-69009223D01*
X105267385Y-69110009D01*
X105302209Y-69178355D01*
X105308965Y-69191613D01*
X105429278Y-69357213D01*
X105574036Y-69501971D01*
X105668070Y-69570289D01*
X105739640Y-69622287D01*
X105855857Y-69681503D01*
X105922026Y-69715218D01*
X105922028Y-69715218D01*
X105922031Y-69715220D01*
X106025657Y-69748890D01*
X106116715Y-69778477D01*
X106217807Y-69794488D01*
X106318898Y-69810500D01*
X106318899Y-69810500D01*
X106523601Y-69810500D01*
X106523602Y-69810500D01*
X106725784Y-69778477D01*
X106920469Y-69715220D01*
X107102860Y-69622287D01*
X107195840Y-69554732D01*
X107268463Y-69501971D01*
X107268465Y-69501968D01*
X107268469Y-69501966D01*
X107373616Y-69396819D01*
X107434939Y-69363334D01*
X107461297Y-69360500D01*
X108887599Y-69360500D01*
X108954638Y-69380185D01*
X108975280Y-69396819D01*
X109298749Y-69720288D01*
X109456281Y-69877819D01*
X109489766Y-69939142D01*
X109484782Y-70008833D01*
X109442911Y-70064767D01*
X109377446Y-70089184D01*
X109368600Y-70089500D01*
X103909314Y-70089500D01*
X103842275Y-70069815D01*
X103806212Y-70034391D01*
X103783039Y-69999711D01*
X103783036Y-69999707D01*
X103671542Y-69888213D01*
X103671538Y-69888210D01*
X103540435Y-69800609D01*
X103540422Y-69800602D01*
X103394751Y-69740264D01*
X103394739Y-69740261D01*
X103240095Y-69709500D01*
X103240092Y-69709500D01*
X103082408Y-69709500D01*
X103082405Y-69709500D01*
X102927760Y-69740261D01*
X102927748Y-69740264D01*
X102782077Y-69800602D01*
X102782064Y-69800609D01*
X102650961Y-69888210D01*
X102650957Y-69888213D01*
X102539463Y-69999707D01*
X102539460Y-69999711D01*
X102451859Y-70130814D01*
X102451852Y-70130827D01*
X102391514Y-70276498D01*
X102391511Y-70276510D01*
X102360750Y-70431153D01*
X97425182Y-70431153D01*
X97374751Y-70410264D01*
X97374739Y-70410261D01*
X97220095Y-70379500D01*
X97220092Y-70379500D01*
X97062408Y-70379500D01*
X97062405Y-70379500D01*
X96907760Y-70410261D01*
X96907748Y-70410264D01*
X96762077Y-70470602D01*
X96762064Y-70470609D01*
X96630961Y-70558210D01*
X96630957Y-70558213D01*
X96519463Y-70669707D01*
X96519460Y-70669711D01*
X96431859Y-70800814D01*
X96431852Y-70800827D01*
X96371514Y-70946498D01*
X96371511Y-70946510D01*
X96340750Y-71101153D01*
X85072691Y-71101153D01*
X85072263Y-58313223D01*
X85091945Y-58246185D01*
X85144748Y-58200428D01*
X85213906Y-58190483D01*
X85277463Y-58219505D01*
X85313304Y-58272266D01*
X85412869Y-58556804D01*
X85544469Y-58830074D01*
X85544471Y-58830077D01*
X85705844Y-59086900D01*
X85776643Y-59175679D01*
X85884563Y-59311007D01*
X85894957Y-59324040D01*
X86109432Y-59538515D01*
X86346572Y-59727628D01*
X86603395Y-59889001D01*
X86876671Y-60020604D01*
X87051520Y-60081786D01*
X87162952Y-60120778D01*
X87162964Y-60120782D01*
X87458673Y-60188276D01*
X87458682Y-60188277D01*
X87458687Y-60188278D01*
X87659610Y-60210916D01*
X87760073Y-60222235D01*
X87760076Y-60222236D01*
X87760079Y-60222236D01*
X88063396Y-60222236D01*
X88063397Y-60222235D01*
X88224569Y-60204076D01*
X88364784Y-60188278D01*
X88364787Y-60188277D01*
X88364799Y-60188276D01*
X88660508Y-60120782D01*
X88946801Y-60020604D01*
X89220077Y-59889001D01*
X89476900Y-59727628D01*
X89714040Y-59538515D01*
X89928515Y-59324040D01*
X90117628Y-59086900D01*
X90279001Y-58830077D01*
X90410604Y-58556801D01*
X90510782Y-58270508D01*
X90578276Y-57974799D01*
X90582256Y-57939481D01*
X90598172Y-57798213D01*
X90612236Y-57673393D01*
X90612236Y-57370079D01*
X90596095Y-57226819D01*
X90578278Y-57068687D01*
X90578277Y-57068682D01*
X90578276Y-57068673D01*
X90561724Y-56996153D01*
X132965750Y-56996153D01*
X132965750Y-57153846D01*
X132996511Y-57308489D01*
X132996514Y-57308501D01*
X133056852Y-57454172D01*
X133056859Y-57454185D01*
X133144460Y-57585288D01*
X133144463Y-57585292D01*
X133255957Y-57696786D01*
X133255961Y-57696789D01*
X133387064Y-57784390D01*
X133387077Y-57784397D01*
X133532748Y-57844735D01*
X133532753Y-57844737D01*
X133687403Y-57875499D01*
X133687406Y-57875500D01*
X133687408Y-57875500D01*
X133845094Y-57875500D01*
X133845095Y-57875499D01*
X133999747Y-57844737D01*
X134145429Y-57784394D01*
X134276539Y-57696789D01*
X134388039Y-57585289D01*
X134475644Y-57454179D01*
X134535987Y-57308497D01*
X134539604Y-57290308D01*
X134571989Y-57228399D01*
X134632704Y-57193824D01*
X134661222Y-57190500D01*
X168581153Y-57190500D01*
X168648192Y-57210185D01*
X168668834Y-57226819D01*
X171566675Y-60124660D01*
X171600160Y-60185983D01*
X171600611Y-60188149D01*
X171631511Y-60343491D01*
X171631514Y-60343501D01*
X171691852Y-60489172D01*
X171691859Y-60489185D01*
X171779460Y-60620288D01*
X171779463Y-60620292D01*
X171890957Y-60731786D01*
X171890961Y-60731789D01*
X172022064Y-60819390D01*
X172022077Y-60819397D01*
X172167748Y-60879735D01*
X172167753Y-60879737D01*
X172304908Y-60907019D01*
X172322403Y-60910499D01*
X172322406Y-60910500D01*
X172322408Y-60910500D01*
X172480094Y-60910500D01*
X172480095Y-60910499D01*
X172634747Y-60879737D01*
X172780429Y-60819394D01*
X172911539Y-60731789D01*
X173023039Y-60620289D01*
X173110644Y-60489179D01*
X173170987Y-60343497D01*
X173201750Y-60188842D01*
X173201750Y-60031158D01*
X173201750Y-60031155D01*
X173201749Y-60031153D01*
X173181588Y-59929799D01*
X173170987Y-59876503D01*
X173160226Y-59850523D01*
X173110647Y-59730827D01*
X173110640Y-59730814D01*
X173023039Y-59599711D01*
X173023036Y-59599707D01*
X172911542Y-59488213D01*
X172911538Y-59488210D01*
X172850764Y-59447602D01*
X172805959Y-59393990D01*
X172797252Y-59324665D01*
X172827406Y-59261637D01*
X172886850Y-59224918D01*
X172919655Y-59220500D01*
X173070094Y-59220500D01*
X173070095Y-59220499D01*
X173224747Y-59189737D01*
X173370429Y-59129394D01*
X173443134Y-59080814D01*
X173502125Y-59041398D01*
X173568803Y-59020520D01*
X173571016Y-59020500D01*
X176311153Y-59020500D01*
X176378192Y-59040185D01*
X176398834Y-59056819D01*
X176816675Y-59474660D01*
X176850160Y-59535983D01*
X176850611Y-59538149D01*
X176881511Y-59693491D01*
X176881514Y-59693501D01*
X176941852Y-59839172D01*
X176941859Y-59839185D01*
X177029460Y-59970288D01*
X177029463Y-59970292D01*
X177140957Y-60081786D01*
X177140961Y-60081789D01*
X177272064Y-60169390D01*
X177272077Y-60169397D01*
X177385605Y-60216421D01*
X177417753Y-60229737D01*
X177551887Y-60256418D01*
X177572403Y-60260499D01*
X177572406Y-60260500D01*
X177572408Y-60260500D01*
X177730094Y-60260500D01*
X177730095Y-60260499D01*
X177884747Y-60229737D01*
X178030429Y-60169394D01*
X178161539Y-60081789D01*
X178273039Y-59970289D01*
X178360644Y-59839179D01*
X178420987Y-59693497D01*
X178451750Y-59538842D01*
X178451750Y-59381158D01*
X178451750Y-59381155D01*
X178451749Y-59381153D01*
X178444652Y-59345473D01*
X178420987Y-59226503D01*
X178420985Y-59226498D01*
X178360647Y-59080827D01*
X178360640Y-59080814D01*
X178273039Y-58949711D01*
X178273036Y-58949707D01*
X178161542Y-58838213D01*
X178161538Y-58838210D01*
X178030435Y-58750609D01*
X178030422Y-58750602D01*
X177884751Y-58690264D01*
X177884741Y-58690261D01*
X177729399Y-58659361D01*
X177667488Y-58626976D01*
X177665910Y-58625425D01*
X177098840Y-58058355D01*
X177098838Y-58058352D01*
X176979967Y-57939481D01*
X176979966Y-57939480D01*
X176893154Y-57889360D01*
X176893154Y-57889359D01*
X176893150Y-57889358D01*
X176843035Y-57860423D01*
X176690307Y-57819499D01*
X176532193Y-57819499D01*
X176524597Y-57819499D01*
X176524581Y-57819500D01*
X173571016Y-57819500D01*
X173503977Y-57799815D01*
X173502125Y-57798602D01*
X173370435Y-57710609D01*
X173370422Y-57710602D01*
X173224751Y-57650264D01*
X173224739Y-57650261D01*
X173070095Y-57619500D01*
X173070092Y-57619500D01*
X172912408Y-57619500D01*
X172912405Y-57619500D01*
X172757760Y-57650261D01*
X172757748Y-57650264D01*
X172612077Y-57710602D01*
X172612064Y-57710609D01*
X172480961Y-57798210D01*
X172480957Y-57798213D01*
X172369463Y-57909707D01*
X172369460Y-57909711D01*
X172281859Y-58040814D01*
X172281852Y-58040827D01*
X172221514Y-58186498D01*
X172221511Y-58186510D01*
X172190750Y-58341153D01*
X172190750Y-58498846D01*
X172221511Y-58653489D01*
X172221514Y-58653501D01*
X172284187Y-58804808D01*
X172282485Y-58805512D01*
X172294969Y-58865472D01*
X172269968Y-58930715D01*
X172213663Y-58972085D01*
X172143929Y-58976447D01*
X172083688Y-58943202D01*
X169368840Y-56228355D01*
X169368838Y-56228352D01*
X169249967Y-56109481D01*
X169249966Y-56109480D01*
X169137646Y-56044632D01*
X169137646Y-56044631D01*
X169137641Y-56044630D01*
X169116553Y-56032454D01*
X169113036Y-56030423D01*
X169074853Y-56020192D01*
X168960307Y-55989499D01*
X168802193Y-55989499D01*
X168794597Y-55989499D01*
X168794581Y-55989500D01*
X134337920Y-55989500D01*
X134337904Y-55989499D01*
X134330308Y-55989499D01*
X134172193Y-55989499D01*
X134095829Y-56009961D01*
X134019464Y-56030423D01*
X134019459Y-56030426D01*
X133882540Y-56109475D01*
X133882536Y-56109478D01*
X133751587Y-56240427D01*
X133690264Y-56273911D01*
X133688098Y-56274362D01*
X133532758Y-56305261D01*
X133532748Y-56305264D01*
X133387077Y-56365602D01*
X133387064Y-56365609D01*
X133255961Y-56453210D01*
X133255957Y-56453213D01*
X133144463Y-56564707D01*
X133144460Y-56564711D01*
X133056859Y-56695814D01*
X133056852Y-56695827D01*
X132996514Y-56841498D01*
X132996511Y-56841510D01*
X132965750Y-56996153D01*
X90561724Y-56996153D01*
X90510782Y-56772964D01*
X90410604Y-56486671D01*
X90279001Y-56213395D01*
X90117628Y-55956572D01*
X89928515Y-55719432D01*
X89714040Y-55504957D01*
X89476900Y-55315844D01*
X89220077Y-55154471D01*
X89220074Y-55154469D01*
X88946804Y-55022869D01*
X88662656Y-54923440D01*
X88605880Y-54882718D01*
X88580133Y-54817766D01*
X88593590Y-54749204D01*
X88641977Y-54698801D01*
X88703633Y-54682399D01*
X191109646Y-54703505D01*
G37*
%TD.AperFunction*%
%TD*%
%TA.AperFunction,NonConductor*%
G36*
X153547934Y-59465033D02*
G01*
X153564019Y-59464574D01*
X153580769Y-59474674D01*
X153599535Y-59480185D01*
X153610070Y-59492343D01*
X153623852Y-59500654D01*
X153632483Y-59518209D01*
X153645290Y-59532989D01*
X153647579Y-59548913D01*
X153654680Y-59563355D01*
X153652450Y-59582787D01*
X153655234Y-59602147D01*
X153648550Y-59616782D01*
X153646716Y-59632769D01*
X153634334Y-59647910D01*
X153626209Y-59665703D01*
X153612179Y-59675005D01*
X153602487Y-59686858D01*
X153570816Y-59702430D01*
X153549546Y-59709341D01*
X153502026Y-59724781D01*
X153319636Y-59817715D01*
X153154036Y-59938028D01*
X153154032Y-59938032D01*
X153083431Y-60008634D01*
X153022108Y-60042119D01*
X152952416Y-60037135D01*
X152896483Y-59995263D01*
X152872066Y-59929799D01*
X152871750Y-59920953D01*
X152871750Y-59721518D01*
X152891435Y-59654479D01*
X152908069Y-59633837D01*
X153045087Y-59496819D01*
X153106410Y-59463334D01*
X153132768Y-59460500D01*
X153532496Y-59460500D01*
X153547934Y-59465033D01*
G37*
%TD.AperFunction*%
%TA.AperFunction,NonConductor*%
G36*
X109266770Y-59650185D02*
G01*
X109287412Y-59666819D01*
X112724444Y-63103851D01*
X112725512Y-63105807D01*
X112727432Y-63106944D01*
X112742178Y-63136328D01*
X112757929Y-63165174D01*
X112758005Y-63167868D01*
X112758770Y-63169391D01*
X112760066Y-63204661D01*
X112759731Y-63207806D01*
X112740750Y-63327648D01*
X112740750Y-63386063D01*
X112740053Y-63392609D01*
X112729126Y-63419063D01*
X112721065Y-63446519D01*
X112715960Y-63450941D01*
X112713381Y-63457188D01*
X112689884Y-63473536D01*
X112668261Y-63492274D01*
X112661574Y-63493235D01*
X112656029Y-63497094D01*
X112627433Y-63498144D01*
X112599103Y-63502218D01*
X112592956Y-63499411D01*
X112586206Y-63499659D01*
X112556489Y-63482757D01*
X112535547Y-63473193D01*
X112533169Y-63469493D01*
X112529069Y-63467161D01*
X109407795Y-60345887D01*
X109293057Y-60269222D01*
X109165582Y-60216421D01*
X109165572Y-60216418D01*
X109030246Y-60189500D01*
X109030244Y-60189500D01*
X109030243Y-60189500D01*
X107582994Y-60189500D01*
X107515955Y-60169815D01*
X107482675Y-60138384D01*
X107413219Y-60042784D01*
X107268463Y-59898028D01*
X107208988Y-59854818D01*
X107166322Y-59799489D01*
X107160343Y-59729875D01*
X107192948Y-59668080D01*
X107253787Y-59633723D01*
X107281873Y-59630500D01*
X109199731Y-59630500D01*
X109266770Y-59650185D01*
G37*
%TD.AperFunction*%
%TA.AperFunction,NonConductor*%
G36*
X156636770Y-59480185D02*
G01*
X156657412Y-59496819D01*
X160304444Y-63143851D01*
X160305512Y-63145807D01*
X160307432Y-63146944D01*
X160322178Y-63176328D01*
X160337929Y-63205174D01*
X160338083Y-63208022D01*
X160338770Y-63209391D01*
X160338930Y-63223674D01*
X160340066Y-63244661D01*
X160339731Y-63247806D01*
X160320750Y-63367648D01*
X160320750Y-63426063D01*
X160320053Y-63432609D01*
X160309126Y-63459063D01*
X160301065Y-63486519D01*
X160295960Y-63490941D01*
X160293381Y-63497188D01*
X160269884Y-63513536D01*
X160248261Y-63532274D01*
X160241574Y-63533235D01*
X160236029Y-63537094D01*
X160207433Y-63538144D01*
X160179103Y-63542218D01*
X160172956Y-63539411D01*
X160166206Y-63539659D01*
X160141581Y-63525082D01*
X160115547Y-63513193D01*
X160109069Y-63507161D01*
X156987795Y-60385887D01*
X156873057Y-60309222D01*
X156745582Y-60256421D01*
X156745572Y-60256418D01*
X156610246Y-60229500D01*
X156610244Y-60229500D01*
X156610243Y-60229500D01*
X155162994Y-60229500D01*
X155095955Y-60209815D01*
X155062675Y-60178384D01*
X155056449Y-60169815D01*
X155023643Y-60124660D01*
X154993219Y-60082784D01*
X154848463Y-59938028D01*
X154682863Y-59817715D01*
X154682862Y-59817714D01*
X154682860Y-59817713D01*
X154625903Y-59788691D01*
X154500473Y-59724781D01*
X154464883Y-59713217D01*
X154431684Y-59702430D01*
X154374010Y-59662993D01*
X154346812Y-59598634D01*
X154358727Y-59529788D01*
X154405971Y-59478312D01*
X154470004Y-59460500D01*
X156569731Y-59460500D01*
X156636770Y-59480185D01*
G37*
%TD.AperFunction*%
%TA.AperFunction,NonConductor*%
G36*
X152300546Y-62777125D02*
G01*
X152346974Y-62806381D01*
X152684444Y-63143851D01*
X152717929Y-63205174D01*
X152719236Y-63250929D01*
X152700750Y-63367647D01*
X152700750Y-63508481D01*
X152692105Y-63537921D01*
X152685582Y-63567908D01*
X152681827Y-63572923D01*
X152681065Y-63575520D01*
X152664431Y-63596162D01*
X152627412Y-63633181D01*
X152566089Y-63666666D01*
X152539731Y-63669500D01*
X151663440Y-63669500D01*
X151596401Y-63649815D01*
X151550646Y-63597011D01*
X151540702Y-63527853D01*
X151569727Y-63464297D01*
X151615988Y-63430939D01*
X151740422Y-63379397D01*
X151740422Y-63379396D01*
X151740429Y-63379394D01*
X151871539Y-63291789D01*
X151983039Y-63180289D01*
X152070644Y-63049179D01*
X152130987Y-62903497D01*
X152137676Y-62869871D01*
X152170060Y-62807960D01*
X152230776Y-62773386D01*
X152300546Y-62777125D01*
G37*
%TD.AperFunction*%
%TA.AperFunction,NonConductor*%
G36*
X118834827Y-64150185D02*
G01*
X118880582Y-64202989D01*
X118890526Y-64272147D01*
X118890273Y-64273816D01*
X118880750Y-64333945D01*
X118880750Y-64526055D01*
X118883321Y-64542287D01*
X118910803Y-64715802D01*
X118970166Y-64898506D01*
X119031066Y-65018028D01*
X119057385Y-65069681D01*
X119132171Y-65172616D01*
X119155651Y-65238420D01*
X119139826Y-65306474D01*
X119089720Y-65355169D01*
X119031853Y-65369500D01*
X115270852Y-65369500D01*
X115203813Y-65349815D01*
X115160367Y-65301795D01*
X115159934Y-65300945D01*
X115153537Y-65288390D01*
X115153535Y-65288387D01*
X115153534Y-65288385D01*
X115033221Y-65122786D01*
X114888463Y-64978028D01*
X114722864Y-64857715D01*
X114708674Y-64850485D01*
X114630167Y-64810483D01*
X114579373Y-64762511D01*
X114562578Y-64694690D01*
X114585115Y-64628555D01*
X114630167Y-64589516D01*
X114722860Y-64542287D01*
X114819191Y-64472299D01*
X114888463Y-64421971D01*
X114888465Y-64421968D01*
X114888469Y-64421966D01*
X115033216Y-64277219D01*
X115102675Y-64181615D01*
X115158005Y-64138949D01*
X115202994Y-64130500D01*
X118767788Y-64130500D01*
X118834827Y-64150185D01*
G37*
%TD.AperFunction*%
%TA.AperFunction,NonConductor*%
G36*
X142303506Y-63590185D02*
G01*
X142349261Y-63642989D01*
X142359205Y-63712147D01*
X142346952Y-63750795D01*
X142270166Y-63901493D01*
X142210803Y-64084197D01*
X142191988Y-64202989D01*
X142180750Y-64273945D01*
X142180750Y-64466055D01*
X142190253Y-64526054D01*
X142210803Y-64655802D01*
X142270166Y-64838506D01*
X142346186Y-64987701D01*
X142357385Y-65009681D01*
X142470305Y-65165102D01*
X142606148Y-65300945D01*
X142761569Y-65413865D01*
X142926404Y-65497853D01*
X142932743Y-65501083D01*
X143024095Y-65530764D01*
X143115449Y-65560447D01*
X143305195Y-65590500D01*
X143305196Y-65590500D01*
X143497304Y-65590500D01*
X143497305Y-65590500D01*
X143687051Y-65560447D01*
X143869759Y-65501082D01*
X144040931Y-65413865D01*
X144196352Y-65300945D01*
X144332195Y-65165102D01*
X144334654Y-65161716D01*
X144363791Y-65121615D01*
X144419121Y-65078949D01*
X144464109Y-65070500D01*
X152832967Y-65070500D01*
X152900006Y-65090185D01*
X152945761Y-65142989D01*
X152955705Y-65212147D01*
X152933285Y-65267385D01*
X152888965Y-65328386D01*
X152796031Y-65510776D01*
X152732772Y-65705465D01*
X152700750Y-65907648D01*
X152700750Y-66112351D01*
X152732772Y-66314534D01*
X152796031Y-66509223D01*
X152846725Y-66608713D01*
X152868583Y-66651613D01*
X152888965Y-66691613D01*
X153009278Y-66857213D01*
X153154032Y-67001967D01*
X153158457Y-67005182D01*
X153201122Y-67060512D01*
X153207101Y-67130125D01*
X153174495Y-67191920D01*
X153113656Y-67226278D01*
X153085571Y-67229500D01*
X147514901Y-67229500D01*
X147447862Y-67209815D01*
X147427220Y-67193181D01*
X147198069Y-66964030D01*
X147164584Y-66902707D01*
X147161750Y-66876349D01*
X147161750Y-66813945D01*
X147151118Y-66746819D01*
X147131697Y-66624199D01*
X147081343Y-66469223D01*
X147072333Y-66441493D01*
X147072332Y-66441491D01*
X146985115Y-66270319D01*
X146872195Y-66114898D01*
X146736352Y-65979055D01*
X146580931Y-65866135D01*
X146409756Y-65778916D01*
X146227052Y-65719553D01*
X146132178Y-65704526D01*
X146037305Y-65689500D01*
X145845195Y-65689500D01*
X145781946Y-65699517D01*
X145655447Y-65719553D01*
X145472743Y-65778916D01*
X145301568Y-65866135D01*
X145244431Y-65907648D01*
X145146148Y-65979055D01*
X145146146Y-65979057D01*
X145146145Y-65979057D01*
X145010307Y-66114895D01*
X145010307Y-66114896D01*
X145010305Y-66114898D01*
X144966712Y-66174898D01*
X144897385Y-66270318D01*
X144810166Y-66441493D01*
X144750803Y-66624197D01*
X144720750Y-66813945D01*
X144720750Y-67006055D01*
X144720749Y-67006055D01*
X144733428Y-67086103D01*
X144724473Y-67155396D01*
X144679477Y-67208848D01*
X144612725Y-67229487D01*
X144610955Y-67229500D01*
X123981049Y-67229500D01*
X123914010Y-67209815D01*
X123868255Y-67157011D01*
X123858311Y-67087853D01*
X123858575Y-67086103D01*
X123861750Y-67066055D01*
X123861750Y-66873945D01*
X123849971Y-66799575D01*
X123831697Y-66684199D01*
X123782601Y-66533096D01*
X123772333Y-66501493D01*
X123772332Y-66501491D01*
X123685115Y-66330319D01*
X123581265Y-66187383D01*
X123557787Y-66121580D01*
X123573612Y-66053526D01*
X123623718Y-66004831D01*
X123681585Y-65990500D01*
X128321153Y-65990500D01*
X128388192Y-66010185D01*
X128408833Y-66026818D01*
X129102534Y-66720520D01*
X129102536Y-66720521D01*
X129102540Y-66720524D01*
X129239459Y-66799573D01*
X129239462Y-66799575D01*
X129239466Y-66799577D01*
X129392193Y-66840501D01*
X129392195Y-66840501D01*
X129557904Y-66840501D01*
X129557920Y-66840500D01*
X136474581Y-66840500D01*
X136474597Y-66840501D01*
X136482193Y-66840501D01*
X136640304Y-66840501D01*
X136640307Y-66840501D01*
X136793035Y-66799577D01*
X136793037Y-66799575D01*
X136793039Y-66799575D01*
X136793040Y-66799574D01*
X136847704Y-66768014D01*
X136847705Y-66768013D01*
X136929966Y-66720520D01*
X137041770Y-66608716D01*
X137041770Y-66608714D01*
X137051974Y-66598511D01*
X137051977Y-66598506D01*
X139811770Y-63838716D01*
X139811771Y-63838714D01*
X140043668Y-63606816D01*
X140104990Y-63573334D01*
X140131348Y-63570500D01*
X142236467Y-63570500D01*
X142303506Y-63590185D01*
G37*
%TD.AperFunction*%
%TA.AperFunction,NonConductor*%
G36*
X121202193Y-66570501D02*
G01*
X121323627Y-66570501D01*
X121390666Y-66590186D01*
X121436421Y-66642990D01*
X121446364Y-66712149D01*
X121446100Y-66713892D01*
X121440885Y-66746819D01*
X121420750Y-66873945D01*
X121420750Y-66936348D01*
X121401065Y-67003387D01*
X121384431Y-67024029D01*
X120381646Y-68026814D01*
X119005280Y-69403181D01*
X118943957Y-69436666D01*
X118917599Y-69439500D01*
X115427847Y-69439500D01*
X115360808Y-69419815D01*
X115315053Y-69367011D01*
X115305109Y-69297853D01*
X115310141Y-69276496D01*
X115331249Y-69212797D01*
X115341750Y-69110009D01*
X115341749Y-67909992D01*
X115331249Y-67807203D01*
X115276064Y-67640666D01*
X115183962Y-67491344D01*
X115059906Y-67367288D01*
X114910584Y-67275186D01*
X114828677Y-67248044D01*
X114771234Y-67208272D01*
X114744411Y-67143756D01*
X114756726Y-67074980D01*
X114794797Y-67030021D01*
X114888469Y-66961966D01*
X115033216Y-66817219D01*
X115033218Y-66817215D01*
X115033221Y-66817213D01*
X115153534Y-66651614D01*
X115153535Y-66651613D01*
X115153537Y-66651610D01*
X115160367Y-66638204D01*
X115208341Y-66587409D01*
X115270852Y-66570500D01*
X121194582Y-66570500D01*
X121202189Y-66570500D01*
X121202193Y-66570501D01*
G37*
%TD.AperFunction*%
%TA.AperFunction,NonConductor*%
G36*
X108686770Y-61610185D02*
G01*
X108707412Y-61626819D01*
X112724444Y-65643851D01*
X112757929Y-65705174D01*
X112759236Y-65750929D01*
X112740750Y-65867647D01*
X112740750Y-66072351D01*
X112772772Y-66274534D01*
X112836031Y-66469223D01*
X112887635Y-66570500D01*
X112914996Y-66624199D01*
X112928965Y-66651613D01*
X113049278Y-66817213D01*
X113049284Y-66817219D01*
X113194031Y-66961966D01*
X113287702Y-67030021D01*
X113330367Y-67085350D01*
X113336346Y-67154963D01*
X113303741Y-67216759D01*
X113253821Y-67248045D01*
X113171916Y-67275186D01*
X113171913Y-67275187D01*
X113022592Y-67367289D01*
X112898539Y-67491342D01*
X112806437Y-67640663D01*
X112806435Y-67640668D01*
X112785853Y-67702781D01*
X112751251Y-67807203D01*
X112751251Y-67807204D01*
X112751250Y-67807204D01*
X112740750Y-67909983D01*
X112740750Y-69110001D01*
X112740751Y-69110018D01*
X112751250Y-69212796D01*
X112757485Y-69231610D01*
X112772359Y-69276496D01*
X112774761Y-69346324D01*
X112739030Y-69406366D01*
X112676509Y-69437559D01*
X112654653Y-69439500D01*
X111474900Y-69439500D01*
X111407861Y-69419815D01*
X111387219Y-69403181D01*
X109833415Y-67849375D01*
X109833411Y-67849372D01*
X109694116Y-67756297D01*
X109694113Y-67756296D01*
X109577546Y-67708013D01*
X109539332Y-67692184D01*
X109539324Y-67692182D01*
X109375021Y-67659500D01*
X109375017Y-67659500D01*
X107461297Y-67659500D01*
X107394258Y-67639815D01*
X107373616Y-67623181D01*
X107268463Y-67518028D01*
X107102864Y-67397715D01*
X107088674Y-67390485D01*
X107010167Y-67350483D01*
X106959373Y-67302511D01*
X106942578Y-67234690D01*
X106965115Y-67168555D01*
X107010167Y-67129516D01*
X107102860Y-67082287D01*
X107183046Y-67024029D01*
X107268463Y-66961971D01*
X107268465Y-66961968D01*
X107268469Y-66961966D01*
X107413216Y-66817219D01*
X107413218Y-66817215D01*
X107413221Y-66817213D01*
X107484613Y-66718949D01*
X107533537Y-66651610D01*
X107626470Y-66469219D01*
X107689727Y-66274534D01*
X107721750Y-66072352D01*
X107721750Y-65867648D01*
X107698294Y-65719553D01*
X107689727Y-65665465D01*
X107638700Y-65508421D01*
X107626470Y-65470781D01*
X107626468Y-65470778D01*
X107626468Y-65470776D01*
X107584915Y-65389225D01*
X107533537Y-65288390D01*
X107478144Y-65212147D01*
X107413221Y-65122786D01*
X107268463Y-64978028D01*
X107102864Y-64857715D01*
X107088674Y-64850485D01*
X107010167Y-64810483D01*
X106959373Y-64762511D01*
X106942578Y-64694690D01*
X106965115Y-64628555D01*
X107010167Y-64589516D01*
X107102860Y-64542287D01*
X107199191Y-64472299D01*
X107268463Y-64421971D01*
X107268465Y-64421968D01*
X107268469Y-64421966D01*
X107413216Y-64277219D01*
X107413218Y-64277215D01*
X107413221Y-64277213D01*
X107482675Y-64181616D01*
X107533537Y-64111610D01*
X107626470Y-63929219D01*
X107689727Y-63734534D01*
X107721750Y-63532352D01*
X107721750Y-63327648D01*
X107702352Y-63205174D01*
X107689727Y-63125465D01*
X107627405Y-62933659D01*
X107626470Y-62930781D01*
X107626468Y-62930778D01*
X107626468Y-62930776D01*
X107563889Y-62807960D01*
X107533537Y-62748390D01*
X107503474Y-62707011D01*
X107413221Y-62582786D01*
X107268463Y-62438028D01*
X107102864Y-62317715D01*
X107050093Y-62290827D01*
X107010167Y-62270483D01*
X106959373Y-62222511D01*
X106942578Y-62154690D01*
X106965115Y-62088555D01*
X107010167Y-62049516D01*
X107102860Y-62002287D01*
X107148024Y-61969474D01*
X107268463Y-61881971D01*
X107268465Y-61881968D01*
X107268469Y-61881966D01*
X107413216Y-61737219D01*
X107482675Y-61641615D01*
X107538005Y-61598949D01*
X107582994Y-61590500D01*
X108619731Y-61590500D01*
X108686770Y-61610185D01*
G37*
%TD.AperFunction*%
M02*
