%TF.GenerationSoftware,KiCad,Pcbnew,9.0.4*%
%TF.CreationDate,2025-09-07T12:41:53+05:30*%
%TF.ProjectId,STEREO  CLASS D AMP,53544552-454f-4202-9043-4c4153532044,rev?*%
%TF.SameCoordinates,Original*%
%TF.FileFunction,Legend,Top*%
%TF.FilePolarity,Positive*%
%FSLAX46Y46*%
G04 Gerber Fmt 4.6, Leading zero omitted, Abs format (unit mm)*
G04 Created by KiCad (PCBNEW 9.0.4) date 2025-09-07 12:41:53*
%MOMM*%
%LPD*%
G01*
G04 APERTURE LIST*
%ADD10C,0.150000*%
%ADD11C,0.120000*%
%ADD12C,0.152400*%
%ADD13C,0.000000*%
G04 APERTURE END LIST*
D10*
X131616069Y-131406666D02*
X131616069Y-131882856D01*
X131616069Y-131882856D02*
X130616069Y-131882856D01*
X130616069Y-131168570D02*
X130616069Y-130549523D01*
X130616069Y-130549523D02*
X130997021Y-130882856D01*
X130997021Y-130882856D02*
X130997021Y-130739999D01*
X130997021Y-130739999D02*
X131044640Y-130644761D01*
X131044640Y-130644761D02*
X131092259Y-130597142D01*
X131092259Y-130597142D02*
X131187497Y-130549523D01*
X131187497Y-130549523D02*
X131425592Y-130549523D01*
X131425592Y-130549523D02*
X131520830Y-130597142D01*
X131520830Y-130597142D02*
X131568450Y-130644761D01*
X131568450Y-130644761D02*
X131616069Y-130739999D01*
X131616069Y-130739999D02*
X131616069Y-131025713D01*
X131616069Y-131025713D02*
X131568450Y-131120951D01*
X131568450Y-131120951D02*
X131520830Y-131168570D01*
X123576011Y-98450057D02*
X123480773Y-98402438D01*
X123480773Y-98402438D02*
X123385535Y-98307200D01*
X123385535Y-98307200D02*
X123242678Y-98164342D01*
X123242678Y-98164342D02*
X123147440Y-98116723D01*
X123147440Y-98116723D02*
X123052202Y-98116723D01*
X123099821Y-98354819D02*
X123004583Y-98307200D01*
X123004583Y-98307200D02*
X122909345Y-98211961D01*
X122909345Y-98211961D02*
X122861726Y-98021485D01*
X122861726Y-98021485D02*
X122861726Y-97688152D01*
X122861726Y-97688152D02*
X122909345Y-97497676D01*
X122909345Y-97497676D02*
X123004583Y-97402438D01*
X123004583Y-97402438D02*
X123099821Y-97354819D01*
X123099821Y-97354819D02*
X123290297Y-97354819D01*
X123290297Y-97354819D02*
X123385535Y-97402438D01*
X123385535Y-97402438D02*
X123480773Y-97497676D01*
X123480773Y-97497676D02*
X123528392Y-97688152D01*
X123528392Y-97688152D02*
X123528392Y-98021485D01*
X123528392Y-98021485D02*
X123480773Y-98211961D01*
X123480773Y-98211961D02*
X123385535Y-98307200D01*
X123385535Y-98307200D02*
X123290297Y-98354819D01*
X123290297Y-98354819D02*
X123099821Y-98354819D01*
X124385535Y-97688152D02*
X124385535Y-98354819D01*
X124147440Y-97307200D02*
X123909345Y-98021485D01*
X123909345Y-98021485D02*
X124528392Y-98021485D01*
X110233155Y-88594819D02*
X110233155Y-87594819D01*
X110233155Y-87594819D02*
X110471250Y-87594819D01*
X110471250Y-87594819D02*
X110614107Y-87642438D01*
X110614107Y-87642438D02*
X110709345Y-87737676D01*
X110709345Y-87737676D02*
X110756964Y-87832914D01*
X110756964Y-87832914D02*
X110804583Y-88023390D01*
X110804583Y-88023390D02*
X110804583Y-88166247D01*
X110804583Y-88166247D02*
X110756964Y-88356723D01*
X110756964Y-88356723D02*
X110709345Y-88451961D01*
X110709345Y-88451961D02*
X110614107Y-88547200D01*
X110614107Y-88547200D02*
X110471250Y-88594819D01*
X110471250Y-88594819D02*
X110233155Y-88594819D01*
X111137917Y-87594819D02*
X111756964Y-87594819D01*
X111756964Y-87594819D02*
X111423631Y-87975771D01*
X111423631Y-87975771D02*
X111566488Y-87975771D01*
X111566488Y-87975771D02*
X111661726Y-88023390D01*
X111661726Y-88023390D02*
X111709345Y-88071009D01*
X111709345Y-88071009D02*
X111756964Y-88166247D01*
X111756964Y-88166247D02*
X111756964Y-88404342D01*
X111756964Y-88404342D02*
X111709345Y-88499580D01*
X111709345Y-88499580D02*
X111661726Y-88547200D01*
X111661726Y-88547200D02*
X111566488Y-88594819D01*
X111566488Y-88594819D02*
X111280774Y-88594819D01*
X111280774Y-88594819D02*
X111185536Y-88547200D01*
X111185536Y-88547200D02*
X111137917Y-88499580D01*
X133236069Y-116606666D02*
X133236069Y-117082856D01*
X133236069Y-117082856D02*
X132236069Y-117082856D01*
X133236069Y-115749523D02*
X133236069Y-116320951D01*
X133236069Y-116035237D02*
X132236069Y-116035237D01*
X132236069Y-116035237D02*
X132378926Y-116130475D01*
X132378926Y-116130475D02*
X132474164Y-116225713D01*
X132474164Y-116225713D02*
X132521783Y-116320951D01*
X126010830Y-141535357D02*
X126058450Y-141582976D01*
X126058450Y-141582976D02*
X126106069Y-141725833D01*
X126106069Y-141725833D02*
X126106069Y-141821071D01*
X126106069Y-141821071D02*
X126058450Y-141963928D01*
X126058450Y-141963928D02*
X125963211Y-142059166D01*
X125963211Y-142059166D02*
X125867973Y-142106785D01*
X125867973Y-142106785D02*
X125677497Y-142154404D01*
X125677497Y-142154404D02*
X125534640Y-142154404D01*
X125534640Y-142154404D02*
X125344164Y-142106785D01*
X125344164Y-142106785D02*
X125248926Y-142059166D01*
X125248926Y-142059166D02*
X125153688Y-141963928D01*
X125153688Y-141963928D02*
X125106069Y-141821071D01*
X125106069Y-141821071D02*
X125106069Y-141725833D01*
X125106069Y-141725833D02*
X125153688Y-141582976D01*
X125153688Y-141582976D02*
X125201307Y-141535357D01*
X126106069Y-140582976D02*
X126106069Y-141154404D01*
X126106069Y-140868690D02*
X125106069Y-140868690D01*
X125106069Y-140868690D02*
X125248926Y-140963928D01*
X125248926Y-140963928D02*
X125344164Y-141059166D01*
X125344164Y-141059166D02*
X125391783Y-141154404D01*
X126106069Y-140106785D02*
X126106069Y-139916309D01*
X126106069Y-139916309D02*
X126058450Y-139821071D01*
X126058450Y-139821071D02*
X126010830Y-139773452D01*
X126010830Y-139773452D02*
X125867973Y-139678214D01*
X125867973Y-139678214D02*
X125677497Y-139630595D01*
X125677497Y-139630595D02*
X125296545Y-139630595D01*
X125296545Y-139630595D02*
X125201307Y-139678214D01*
X125201307Y-139678214D02*
X125153688Y-139725833D01*
X125153688Y-139725833D02*
X125106069Y-139821071D01*
X125106069Y-139821071D02*
X125106069Y-140011547D01*
X125106069Y-140011547D02*
X125153688Y-140106785D01*
X125153688Y-140106785D02*
X125201307Y-140154404D01*
X125201307Y-140154404D02*
X125296545Y-140202023D01*
X125296545Y-140202023D02*
X125534640Y-140202023D01*
X125534640Y-140202023D02*
X125629878Y-140154404D01*
X125629878Y-140154404D02*
X125677497Y-140106785D01*
X125677497Y-140106785D02*
X125725116Y-140011547D01*
X125725116Y-140011547D02*
X125725116Y-139821071D01*
X125725116Y-139821071D02*
X125677497Y-139725833D01*
X125677497Y-139725833D02*
X125629878Y-139678214D01*
X125629878Y-139678214D02*
X125534640Y-139630595D01*
X106247083Y-77439580D02*
X106199464Y-77487200D01*
X106199464Y-77487200D02*
X106056607Y-77534819D01*
X106056607Y-77534819D02*
X105961369Y-77534819D01*
X105961369Y-77534819D02*
X105818512Y-77487200D01*
X105818512Y-77487200D02*
X105723274Y-77391961D01*
X105723274Y-77391961D02*
X105675655Y-77296723D01*
X105675655Y-77296723D02*
X105628036Y-77106247D01*
X105628036Y-77106247D02*
X105628036Y-76963390D01*
X105628036Y-76963390D02*
X105675655Y-76772914D01*
X105675655Y-76772914D02*
X105723274Y-76677676D01*
X105723274Y-76677676D02*
X105818512Y-76582438D01*
X105818512Y-76582438D02*
X105961369Y-76534819D01*
X105961369Y-76534819D02*
X106056607Y-76534819D01*
X106056607Y-76534819D02*
X106199464Y-76582438D01*
X106199464Y-76582438D02*
X106247083Y-76630057D01*
X106580417Y-76534819D02*
X107247083Y-76534819D01*
X107247083Y-76534819D02*
X106818512Y-77534819D01*
X109604583Y-74354819D02*
X109271250Y-73878628D01*
X109033155Y-74354819D02*
X109033155Y-73354819D01*
X109033155Y-73354819D02*
X109414107Y-73354819D01*
X109414107Y-73354819D02*
X109509345Y-73402438D01*
X109509345Y-73402438D02*
X109556964Y-73450057D01*
X109556964Y-73450057D02*
X109604583Y-73545295D01*
X109604583Y-73545295D02*
X109604583Y-73688152D01*
X109604583Y-73688152D02*
X109556964Y-73783390D01*
X109556964Y-73783390D02*
X109509345Y-73831009D01*
X109509345Y-73831009D02*
X109414107Y-73878628D01*
X109414107Y-73878628D02*
X109033155Y-73878628D01*
X110509345Y-73354819D02*
X110033155Y-73354819D01*
X110033155Y-73354819D02*
X109985536Y-73831009D01*
X109985536Y-73831009D02*
X110033155Y-73783390D01*
X110033155Y-73783390D02*
X110128393Y-73735771D01*
X110128393Y-73735771D02*
X110366488Y-73735771D01*
X110366488Y-73735771D02*
X110461726Y-73783390D01*
X110461726Y-73783390D02*
X110509345Y-73831009D01*
X110509345Y-73831009D02*
X110556964Y-73926247D01*
X110556964Y-73926247D02*
X110556964Y-74164342D01*
X110556964Y-74164342D02*
X110509345Y-74259580D01*
X110509345Y-74259580D02*
X110461726Y-74307200D01*
X110461726Y-74307200D02*
X110366488Y-74354819D01*
X110366488Y-74354819D02*
X110128393Y-74354819D01*
X110128393Y-74354819D02*
X110033155Y-74307200D01*
X110033155Y-74307200D02*
X109985536Y-74259580D01*
X141710830Y-141550357D02*
X141758450Y-141597976D01*
X141758450Y-141597976D02*
X141806069Y-141740833D01*
X141806069Y-141740833D02*
X141806069Y-141836071D01*
X141806069Y-141836071D02*
X141758450Y-141978928D01*
X141758450Y-141978928D02*
X141663211Y-142074166D01*
X141663211Y-142074166D02*
X141567973Y-142121785D01*
X141567973Y-142121785D02*
X141377497Y-142169404D01*
X141377497Y-142169404D02*
X141234640Y-142169404D01*
X141234640Y-142169404D02*
X141044164Y-142121785D01*
X141044164Y-142121785D02*
X140948926Y-142074166D01*
X140948926Y-142074166D02*
X140853688Y-141978928D01*
X140853688Y-141978928D02*
X140806069Y-141836071D01*
X140806069Y-141836071D02*
X140806069Y-141740833D01*
X140806069Y-141740833D02*
X140853688Y-141597976D01*
X140853688Y-141597976D02*
X140901307Y-141550357D01*
X141806069Y-140597976D02*
X141806069Y-141169404D01*
X141806069Y-140883690D02*
X140806069Y-140883690D01*
X140806069Y-140883690D02*
X140948926Y-140978928D01*
X140948926Y-140978928D02*
X141044164Y-141074166D01*
X141044164Y-141074166D02*
X141091783Y-141169404D01*
X140806069Y-139693214D02*
X140806069Y-140169404D01*
X140806069Y-140169404D02*
X141282259Y-140217023D01*
X141282259Y-140217023D02*
X141234640Y-140169404D01*
X141234640Y-140169404D02*
X141187021Y-140074166D01*
X141187021Y-140074166D02*
X141187021Y-139836071D01*
X141187021Y-139836071D02*
X141234640Y-139740833D01*
X141234640Y-139740833D02*
X141282259Y-139693214D01*
X141282259Y-139693214D02*
X141377497Y-139645595D01*
X141377497Y-139645595D02*
X141615592Y-139645595D01*
X141615592Y-139645595D02*
X141710830Y-139693214D01*
X141710830Y-139693214D02*
X141758450Y-139740833D01*
X141758450Y-139740833D02*
X141806069Y-139836071D01*
X141806069Y-139836071D02*
X141806069Y-140074166D01*
X141806069Y-140074166D02*
X141758450Y-140169404D01*
X141758450Y-140169404D02*
X141710830Y-140217023D01*
X111898392Y-84054819D02*
X111565059Y-83578628D01*
X111326964Y-84054819D02*
X111326964Y-83054819D01*
X111326964Y-83054819D02*
X111707916Y-83054819D01*
X111707916Y-83054819D02*
X111803154Y-83102438D01*
X111803154Y-83102438D02*
X111850773Y-83150057D01*
X111850773Y-83150057D02*
X111898392Y-83245295D01*
X111898392Y-83245295D02*
X111898392Y-83388152D01*
X111898392Y-83388152D02*
X111850773Y-83483390D01*
X111850773Y-83483390D02*
X111803154Y-83531009D01*
X111803154Y-83531009D02*
X111707916Y-83578628D01*
X111707916Y-83578628D02*
X111326964Y-83578628D01*
X112850773Y-84054819D02*
X112279345Y-84054819D01*
X112565059Y-84054819D02*
X112565059Y-83054819D01*
X112565059Y-83054819D02*
X112469821Y-83197676D01*
X112469821Y-83197676D02*
X112374583Y-83292914D01*
X112374583Y-83292914D02*
X112279345Y-83340533D01*
X113469821Y-83054819D02*
X113565059Y-83054819D01*
X113565059Y-83054819D02*
X113660297Y-83102438D01*
X113660297Y-83102438D02*
X113707916Y-83150057D01*
X113707916Y-83150057D02*
X113755535Y-83245295D01*
X113755535Y-83245295D02*
X113803154Y-83435771D01*
X113803154Y-83435771D02*
X113803154Y-83673866D01*
X113803154Y-83673866D02*
X113755535Y-83864342D01*
X113755535Y-83864342D02*
X113707916Y-83959580D01*
X113707916Y-83959580D02*
X113660297Y-84007200D01*
X113660297Y-84007200D02*
X113565059Y-84054819D01*
X113565059Y-84054819D02*
X113469821Y-84054819D01*
X113469821Y-84054819D02*
X113374583Y-84007200D01*
X113374583Y-84007200D02*
X113326964Y-83959580D01*
X113326964Y-83959580D02*
X113279345Y-83864342D01*
X113279345Y-83864342D02*
X113231726Y-83673866D01*
X113231726Y-83673866D02*
X113231726Y-83435771D01*
X113231726Y-83435771D02*
X113279345Y-83245295D01*
X113279345Y-83245295D02*
X113326964Y-83150057D01*
X113326964Y-83150057D02*
X113374583Y-83102438D01*
X113374583Y-83102438D02*
X113469821Y-83054819D01*
X167607916Y-130917319D02*
X167607916Y-131631604D01*
X167607916Y-131631604D02*
X167560297Y-131774461D01*
X167560297Y-131774461D02*
X167465059Y-131869700D01*
X167465059Y-131869700D02*
X167322202Y-131917319D01*
X167322202Y-131917319D02*
X167226964Y-131917319D01*
X168036488Y-131012557D02*
X168084107Y-130964938D01*
X168084107Y-130964938D02*
X168179345Y-130917319D01*
X168179345Y-130917319D02*
X168417440Y-130917319D01*
X168417440Y-130917319D02*
X168512678Y-130964938D01*
X168512678Y-130964938D02*
X168560297Y-131012557D01*
X168560297Y-131012557D02*
X168607916Y-131107795D01*
X168607916Y-131107795D02*
X168607916Y-131203033D01*
X168607916Y-131203033D02*
X168560297Y-131345890D01*
X168560297Y-131345890D02*
X167988869Y-131917319D01*
X167988869Y-131917319D02*
X168607916Y-131917319D01*
X140216011Y-98030057D02*
X140120773Y-97982438D01*
X140120773Y-97982438D02*
X140025535Y-97887200D01*
X140025535Y-97887200D02*
X139882678Y-97744342D01*
X139882678Y-97744342D02*
X139787440Y-97696723D01*
X139787440Y-97696723D02*
X139692202Y-97696723D01*
X139739821Y-97934819D02*
X139644583Y-97887200D01*
X139644583Y-97887200D02*
X139549345Y-97791961D01*
X139549345Y-97791961D02*
X139501726Y-97601485D01*
X139501726Y-97601485D02*
X139501726Y-97268152D01*
X139501726Y-97268152D02*
X139549345Y-97077676D01*
X139549345Y-97077676D02*
X139644583Y-96982438D01*
X139644583Y-96982438D02*
X139739821Y-96934819D01*
X139739821Y-96934819D02*
X139930297Y-96934819D01*
X139930297Y-96934819D02*
X140025535Y-96982438D01*
X140025535Y-96982438D02*
X140120773Y-97077676D01*
X140120773Y-97077676D02*
X140168392Y-97268152D01*
X140168392Y-97268152D02*
X140168392Y-97601485D01*
X140168392Y-97601485D02*
X140120773Y-97791961D01*
X140120773Y-97791961D02*
X140025535Y-97887200D01*
X140025535Y-97887200D02*
X139930297Y-97934819D01*
X139930297Y-97934819D02*
X139739821Y-97934819D01*
X140549345Y-97030057D02*
X140596964Y-96982438D01*
X140596964Y-96982438D02*
X140692202Y-96934819D01*
X140692202Y-96934819D02*
X140930297Y-96934819D01*
X140930297Y-96934819D02*
X141025535Y-96982438D01*
X141025535Y-96982438D02*
X141073154Y-97030057D01*
X141073154Y-97030057D02*
X141120773Y-97125295D01*
X141120773Y-97125295D02*
X141120773Y-97220533D01*
X141120773Y-97220533D02*
X141073154Y-97363390D01*
X141073154Y-97363390D02*
X140501726Y-97934819D01*
X140501726Y-97934819D02*
X141120773Y-97934819D01*
X177590830Y-85896666D02*
X177638450Y-85944285D01*
X177638450Y-85944285D02*
X177686069Y-86087142D01*
X177686069Y-86087142D02*
X177686069Y-86182380D01*
X177686069Y-86182380D02*
X177638450Y-86325237D01*
X177638450Y-86325237D02*
X177543211Y-86420475D01*
X177543211Y-86420475D02*
X177447973Y-86468094D01*
X177447973Y-86468094D02*
X177257497Y-86515713D01*
X177257497Y-86515713D02*
X177114640Y-86515713D01*
X177114640Y-86515713D02*
X176924164Y-86468094D01*
X176924164Y-86468094D02*
X176828926Y-86420475D01*
X176828926Y-86420475D02*
X176733688Y-86325237D01*
X176733688Y-86325237D02*
X176686069Y-86182380D01*
X176686069Y-86182380D02*
X176686069Y-86087142D01*
X176686069Y-86087142D02*
X176733688Y-85944285D01*
X176733688Y-85944285D02*
X176781307Y-85896666D01*
X177686069Y-84944285D02*
X177686069Y-85515713D01*
X177686069Y-85229999D02*
X176686069Y-85229999D01*
X176686069Y-85229999D02*
X176828926Y-85325237D01*
X176828926Y-85325237D02*
X176924164Y-85420475D01*
X176924164Y-85420475D02*
X176971783Y-85515713D01*
X162804583Y-75589580D02*
X162756964Y-75637200D01*
X162756964Y-75637200D02*
X162614107Y-75684819D01*
X162614107Y-75684819D02*
X162518869Y-75684819D01*
X162518869Y-75684819D02*
X162376012Y-75637200D01*
X162376012Y-75637200D02*
X162280774Y-75541961D01*
X162280774Y-75541961D02*
X162233155Y-75446723D01*
X162233155Y-75446723D02*
X162185536Y-75256247D01*
X162185536Y-75256247D02*
X162185536Y-75113390D01*
X162185536Y-75113390D02*
X162233155Y-74922914D01*
X162233155Y-74922914D02*
X162280774Y-74827676D01*
X162280774Y-74827676D02*
X162376012Y-74732438D01*
X162376012Y-74732438D02*
X162518869Y-74684819D01*
X162518869Y-74684819D02*
X162614107Y-74684819D01*
X162614107Y-74684819D02*
X162756964Y-74732438D01*
X162756964Y-74732438D02*
X162804583Y-74780057D01*
X163709345Y-74684819D02*
X163233155Y-74684819D01*
X163233155Y-74684819D02*
X163185536Y-75161009D01*
X163185536Y-75161009D02*
X163233155Y-75113390D01*
X163233155Y-75113390D02*
X163328393Y-75065771D01*
X163328393Y-75065771D02*
X163566488Y-75065771D01*
X163566488Y-75065771D02*
X163661726Y-75113390D01*
X163661726Y-75113390D02*
X163709345Y-75161009D01*
X163709345Y-75161009D02*
X163756964Y-75256247D01*
X163756964Y-75256247D02*
X163756964Y-75494342D01*
X163756964Y-75494342D02*
X163709345Y-75589580D01*
X163709345Y-75589580D02*
X163661726Y-75637200D01*
X163661726Y-75637200D02*
X163566488Y-75684819D01*
X163566488Y-75684819D02*
X163328393Y-75684819D01*
X163328393Y-75684819D02*
X163233155Y-75637200D01*
X163233155Y-75637200D02*
X163185536Y-75589580D01*
X153645655Y-88634819D02*
X153645655Y-87634819D01*
X153645655Y-87634819D02*
X153883750Y-87634819D01*
X153883750Y-87634819D02*
X154026607Y-87682438D01*
X154026607Y-87682438D02*
X154121845Y-87777676D01*
X154121845Y-87777676D02*
X154169464Y-87872914D01*
X154169464Y-87872914D02*
X154217083Y-88063390D01*
X154217083Y-88063390D02*
X154217083Y-88206247D01*
X154217083Y-88206247D02*
X154169464Y-88396723D01*
X154169464Y-88396723D02*
X154121845Y-88491961D01*
X154121845Y-88491961D02*
X154026607Y-88587200D01*
X154026607Y-88587200D02*
X153883750Y-88634819D01*
X153883750Y-88634819D02*
X153645655Y-88634819D01*
X155169464Y-88634819D02*
X154598036Y-88634819D01*
X154883750Y-88634819D02*
X154883750Y-87634819D01*
X154883750Y-87634819D02*
X154788512Y-87777676D01*
X154788512Y-87777676D02*
X154693274Y-87872914D01*
X154693274Y-87872914D02*
X154598036Y-87920533D01*
X155339583Y-74309580D02*
X155291964Y-74357200D01*
X155291964Y-74357200D02*
X155149107Y-74404819D01*
X155149107Y-74404819D02*
X155053869Y-74404819D01*
X155053869Y-74404819D02*
X154911012Y-74357200D01*
X154911012Y-74357200D02*
X154815774Y-74261961D01*
X154815774Y-74261961D02*
X154768155Y-74166723D01*
X154768155Y-74166723D02*
X154720536Y-73976247D01*
X154720536Y-73976247D02*
X154720536Y-73833390D01*
X154720536Y-73833390D02*
X154768155Y-73642914D01*
X154768155Y-73642914D02*
X154815774Y-73547676D01*
X154815774Y-73547676D02*
X154911012Y-73452438D01*
X154911012Y-73452438D02*
X155053869Y-73404819D01*
X155053869Y-73404819D02*
X155149107Y-73404819D01*
X155149107Y-73404819D02*
X155291964Y-73452438D01*
X155291964Y-73452438D02*
X155339583Y-73500057D01*
X156196726Y-73738152D02*
X156196726Y-74404819D01*
X155958631Y-73357200D02*
X155720536Y-74071485D01*
X155720536Y-74071485D02*
X156339583Y-74071485D01*
X120925892Y-84094819D02*
X120592559Y-83618628D01*
X120354464Y-84094819D02*
X120354464Y-83094819D01*
X120354464Y-83094819D02*
X120735416Y-83094819D01*
X120735416Y-83094819D02*
X120830654Y-83142438D01*
X120830654Y-83142438D02*
X120878273Y-83190057D01*
X120878273Y-83190057D02*
X120925892Y-83285295D01*
X120925892Y-83285295D02*
X120925892Y-83428152D01*
X120925892Y-83428152D02*
X120878273Y-83523390D01*
X120878273Y-83523390D02*
X120830654Y-83571009D01*
X120830654Y-83571009D02*
X120735416Y-83618628D01*
X120735416Y-83618628D02*
X120354464Y-83618628D01*
X121878273Y-84094819D02*
X121306845Y-84094819D01*
X121592559Y-84094819D02*
X121592559Y-83094819D01*
X121592559Y-83094819D02*
X121497321Y-83237676D01*
X121497321Y-83237676D02*
X121402083Y-83332914D01*
X121402083Y-83332914D02*
X121306845Y-83380533D01*
X122211607Y-83094819D02*
X122830654Y-83094819D01*
X122830654Y-83094819D02*
X122497321Y-83475771D01*
X122497321Y-83475771D02*
X122640178Y-83475771D01*
X122640178Y-83475771D02*
X122735416Y-83523390D01*
X122735416Y-83523390D02*
X122783035Y-83571009D01*
X122783035Y-83571009D02*
X122830654Y-83666247D01*
X122830654Y-83666247D02*
X122830654Y-83904342D01*
X122830654Y-83904342D02*
X122783035Y-83999580D01*
X122783035Y-83999580D02*
X122735416Y-84047200D01*
X122735416Y-84047200D02*
X122640178Y-84094819D01*
X122640178Y-84094819D02*
X122354464Y-84094819D01*
X122354464Y-84094819D02*
X122259226Y-84047200D01*
X122259226Y-84047200D02*
X122211607Y-83999580D01*
X97937916Y-130484819D02*
X97937916Y-131199104D01*
X97937916Y-131199104D02*
X97890297Y-131341961D01*
X97890297Y-131341961D02*
X97795059Y-131437200D01*
X97795059Y-131437200D02*
X97652202Y-131484819D01*
X97652202Y-131484819D02*
X97556964Y-131484819D01*
X98318869Y-130484819D02*
X98937916Y-130484819D01*
X98937916Y-130484819D02*
X98604583Y-130865771D01*
X98604583Y-130865771D02*
X98747440Y-130865771D01*
X98747440Y-130865771D02*
X98842678Y-130913390D01*
X98842678Y-130913390D02*
X98890297Y-130961009D01*
X98890297Y-130961009D02*
X98937916Y-131056247D01*
X98937916Y-131056247D02*
X98937916Y-131294342D01*
X98937916Y-131294342D02*
X98890297Y-131389580D01*
X98890297Y-131389580D02*
X98842678Y-131437200D01*
X98842678Y-131437200D02*
X98747440Y-131484819D01*
X98747440Y-131484819D02*
X98461726Y-131484819D01*
X98461726Y-131484819D02*
X98366488Y-131437200D01*
X98366488Y-131437200D02*
X98318869Y-131389580D01*
X113907083Y-77394819D02*
X113573750Y-76918628D01*
X113335655Y-77394819D02*
X113335655Y-76394819D01*
X113335655Y-76394819D02*
X113716607Y-76394819D01*
X113716607Y-76394819D02*
X113811845Y-76442438D01*
X113811845Y-76442438D02*
X113859464Y-76490057D01*
X113859464Y-76490057D02*
X113907083Y-76585295D01*
X113907083Y-76585295D02*
X113907083Y-76728152D01*
X113907083Y-76728152D02*
X113859464Y-76823390D01*
X113859464Y-76823390D02*
X113811845Y-76871009D01*
X113811845Y-76871009D02*
X113716607Y-76918628D01*
X113716607Y-76918628D02*
X113335655Y-76918628D01*
X114764226Y-76728152D02*
X114764226Y-77394819D01*
X114526131Y-76347200D02*
X114288036Y-77061485D01*
X114288036Y-77061485D02*
X114907083Y-77061485D01*
X110866011Y-98540057D02*
X110770773Y-98492438D01*
X110770773Y-98492438D02*
X110675535Y-98397200D01*
X110675535Y-98397200D02*
X110532678Y-98254342D01*
X110532678Y-98254342D02*
X110437440Y-98206723D01*
X110437440Y-98206723D02*
X110342202Y-98206723D01*
X110389821Y-98444819D02*
X110294583Y-98397200D01*
X110294583Y-98397200D02*
X110199345Y-98301961D01*
X110199345Y-98301961D02*
X110151726Y-98111485D01*
X110151726Y-98111485D02*
X110151726Y-97778152D01*
X110151726Y-97778152D02*
X110199345Y-97587676D01*
X110199345Y-97587676D02*
X110294583Y-97492438D01*
X110294583Y-97492438D02*
X110389821Y-97444819D01*
X110389821Y-97444819D02*
X110580297Y-97444819D01*
X110580297Y-97444819D02*
X110675535Y-97492438D01*
X110675535Y-97492438D02*
X110770773Y-97587676D01*
X110770773Y-97587676D02*
X110818392Y-97778152D01*
X110818392Y-97778152D02*
X110818392Y-98111485D01*
X110818392Y-98111485D02*
X110770773Y-98301961D01*
X110770773Y-98301961D02*
X110675535Y-98397200D01*
X110675535Y-98397200D02*
X110580297Y-98444819D01*
X110580297Y-98444819D02*
X110389821Y-98444819D01*
X111151726Y-97444819D02*
X111770773Y-97444819D01*
X111770773Y-97444819D02*
X111437440Y-97825771D01*
X111437440Y-97825771D02*
X111580297Y-97825771D01*
X111580297Y-97825771D02*
X111675535Y-97873390D01*
X111675535Y-97873390D02*
X111723154Y-97921009D01*
X111723154Y-97921009D02*
X111770773Y-98016247D01*
X111770773Y-98016247D02*
X111770773Y-98254342D01*
X111770773Y-98254342D02*
X111723154Y-98349580D01*
X111723154Y-98349580D02*
X111675535Y-98397200D01*
X111675535Y-98397200D02*
X111580297Y-98444819D01*
X111580297Y-98444819D02*
X111294583Y-98444819D01*
X111294583Y-98444819D02*
X111199345Y-98397200D01*
X111199345Y-98397200D02*
X111151726Y-98349580D01*
X145361011Y-70839819D02*
X145027678Y-70363628D01*
X144789583Y-70839819D02*
X144789583Y-69839819D01*
X144789583Y-69839819D02*
X145170535Y-69839819D01*
X145170535Y-69839819D02*
X145265773Y-69887438D01*
X145265773Y-69887438D02*
X145313392Y-69935057D01*
X145313392Y-69935057D02*
X145361011Y-70030295D01*
X145361011Y-70030295D02*
X145361011Y-70173152D01*
X145361011Y-70173152D02*
X145313392Y-70268390D01*
X145313392Y-70268390D02*
X145265773Y-70316009D01*
X145265773Y-70316009D02*
X145170535Y-70363628D01*
X145170535Y-70363628D02*
X144789583Y-70363628D01*
X145646726Y-69839819D02*
X145980059Y-70839819D01*
X145980059Y-70839819D02*
X146313392Y-69839819D01*
X147170535Y-70839819D02*
X146599107Y-70839819D01*
X146884821Y-70839819D02*
X146884821Y-69839819D01*
X146884821Y-69839819D02*
X146789583Y-69982676D01*
X146789583Y-69982676D02*
X146694345Y-70077914D01*
X146694345Y-70077914D02*
X146599107Y-70125533D01*
X134107916Y-56784819D02*
X134107916Y-57499104D01*
X134107916Y-57499104D02*
X134060297Y-57641961D01*
X134060297Y-57641961D02*
X133965059Y-57737200D01*
X133965059Y-57737200D02*
X133822202Y-57784819D01*
X133822202Y-57784819D02*
X133726964Y-57784819D01*
X135012678Y-57118152D02*
X135012678Y-57784819D01*
X134774583Y-56737200D02*
X134536488Y-57451485D01*
X134536488Y-57451485D02*
X135155535Y-57451485D01*
X171124583Y-63609580D02*
X171076964Y-63657200D01*
X171076964Y-63657200D02*
X170934107Y-63704819D01*
X170934107Y-63704819D02*
X170838869Y-63704819D01*
X170838869Y-63704819D02*
X170696012Y-63657200D01*
X170696012Y-63657200D02*
X170600774Y-63561961D01*
X170600774Y-63561961D02*
X170553155Y-63466723D01*
X170553155Y-63466723D02*
X170505536Y-63276247D01*
X170505536Y-63276247D02*
X170505536Y-63133390D01*
X170505536Y-63133390D02*
X170553155Y-62942914D01*
X170553155Y-62942914D02*
X170600774Y-62847676D01*
X170600774Y-62847676D02*
X170696012Y-62752438D01*
X170696012Y-62752438D02*
X170838869Y-62704819D01*
X170838869Y-62704819D02*
X170934107Y-62704819D01*
X170934107Y-62704819D02*
X171076964Y-62752438D01*
X171076964Y-62752438D02*
X171124583Y-62800057D01*
X171600774Y-63704819D02*
X171791250Y-63704819D01*
X171791250Y-63704819D02*
X171886488Y-63657200D01*
X171886488Y-63657200D02*
X171934107Y-63609580D01*
X171934107Y-63609580D02*
X172029345Y-63466723D01*
X172029345Y-63466723D02*
X172076964Y-63276247D01*
X172076964Y-63276247D02*
X172076964Y-62895295D01*
X172076964Y-62895295D02*
X172029345Y-62800057D01*
X172029345Y-62800057D02*
X171981726Y-62752438D01*
X171981726Y-62752438D02*
X171886488Y-62704819D01*
X171886488Y-62704819D02*
X171696012Y-62704819D01*
X171696012Y-62704819D02*
X171600774Y-62752438D01*
X171600774Y-62752438D02*
X171553155Y-62800057D01*
X171553155Y-62800057D02*
X171505536Y-62895295D01*
X171505536Y-62895295D02*
X171505536Y-63133390D01*
X171505536Y-63133390D02*
X171553155Y-63228628D01*
X171553155Y-63228628D02*
X171600774Y-63276247D01*
X171600774Y-63276247D02*
X171696012Y-63323866D01*
X171696012Y-63323866D02*
X171886488Y-63323866D01*
X171886488Y-63323866D02*
X171981726Y-63276247D01*
X171981726Y-63276247D02*
X172029345Y-63228628D01*
X172029345Y-63228628D02*
X172076964Y-63133390D01*
X146840830Y-141487857D02*
X146888450Y-141535476D01*
X146888450Y-141535476D02*
X146936069Y-141678333D01*
X146936069Y-141678333D02*
X146936069Y-141773571D01*
X146936069Y-141773571D02*
X146888450Y-141916428D01*
X146888450Y-141916428D02*
X146793211Y-142011666D01*
X146793211Y-142011666D02*
X146697973Y-142059285D01*
X146697973Y-142059285D02*
X146507497Y-142106904D01*
X146507497Y-142106904D02*
X146364640Y-142106904D01*
X146364640Y-142106904D02*
X146174164Y-142059285D01*
X146174164Y-142059285D02*
X146078926Y-142011666D01*
X146078926Y-142011666D02*
X145983688Y-141916428D01*
X145983688Y-141916428D02*
X145936069Y-141773571D01*
X145936069Y-141773571D02*
X145936069Y-141678333D01*
X145936069Y-141678333D02*
X145983688Y-141535476D01*
X145983688Y-141535476D02*
X146031307Y-141487857D01*
X146936069Y-140535476D02*
X146936069Y-141106904D01*
X146936069Y-140821190D02*
X145936069Y-140821190D01*
X145936069Y-140821190D02*
X146078926Y-140916428D01*
X146078926Y-140916428D02*
X146174164Y-141011666D01*
X146174164Y-141011666D02*
X146221783Y-141106904D01*
X146269402Y-139678333D02*
X146936069Y-139678333D01*
X145888450Y-139916428D02*
X146602735Y-140154523D01*
X146602735Y-140154523D02*
X146602735Y-139535476D01*
X131676069Y-116806666D02*
X131676069Y-117282856D01*
X131676069Y-117282856D02*
X130676069Y-117282856D01*
X131009402Y-116044761D02*
X131676069Y-116044761D01*
X130628450Y-116282856D02*
X131342735Y-116520951D01*
X131342735Y-116520951D02*
X131342735Y-115901904D01*
X154096011Y-98030057D02*
X154000773Y-97982438D01*
X154000773Y-97982438D02*
X153905535Y-97887200D01*
X153905535Y-97887200D02*
X153762678Y-97744342D01*
X153762678Y-97744342D02*
X153667440Y-97696723D01*
X153667440Y-97696723D02*
X153572202Y-97696723D01*
X153619821Y-97934819D02*
X153524583Y-97887200D01*
X153524583Y-97887200D02*
X153429345Y-97791961D01*
X153429345Y-97791961D02*
X153381726Y-97601485D01*
X153381726Y-97601485D02*
X153381726Y-97268152D01*
X153381726Y-97268152D02*
X153429345Y-97077676D01*
X153429345Y-97077676D02*
X153524583Y-96982438D01*
X153524583Y-96982438D02*
X153619821Y-96934819D01*
X153619821Y-96934819D02*
X153810297Y-96934819D01*
X153810297Y-96934819D02*
X153905535Y-96982438D01*
X153905535Y-96982438D02*
X154000773Y-97077676D01*
X154000773Y-97077676D02*
X154048392Y-97268152D01*
X154048392Y-97268152D02*
X154048392Y-97601485D01*
X154048392Y-97601485D02*
X154000773Y-97791961D01*
X154000773Y-97791961D02*
X153905535Y-97887200D01*
X153905535Y-97887200D02*
X153810297Y-97934819D01*
X153810297Y-97934819D02*
X153619821Y-97934819D01*
X155000773Y-97934819D02*
X154429345Y-97934819D01*
X154715059Y-97934819D02*
X154715059Y-96934819D01*
X154715059Y-96934819D02*
X154619821Y-97077676D01*
X154619821Y-97077676D02*
X154524583Y-97172914D01*
X154524583Y-97172914D02*
X154429345Y-97220533D01*
X175718392Y-73629580D02*
X175670773Y-73677200D01*
X175670773Y-73677200D02*
X175527916Y-73724819D01*
X175527916Y-73724819D02*
X175432678Y-73724819D01*
X175432678Y-73724819D02*
X175289821Y-73677200D01*
X175289821Y-73677200D02*
X175194583Y-73581961D01*
X175194583Y-73581961D02*
X175146964Y-73486723D01*
X175146964Y-73486723D02*
X175099345Y-73296247D01*
X175099345Y-73296247D02*
X175099345Y-73153390D01*
X175099345Y-73153390D02*
X175146964Y-72962914D01*
X175146964Y-72962914D02*
X175194583Y-72867676D01*
X175194583Y-72867676D02*
X175289821Y-72772438D01*
X175289821Y-72772438D02*
X175432678Y-72724819D01*
X175432678Y-72724819D02*
X175527916Y-72724819D01*
X175527916Y-72724819D02*
X175670773Y-72772438D01*
X175670773Y-72772438D02*
X175718392Y-72820057D01*
X176670773Y-73724819D02*
X176099345Y-73724819D01*
X176385059Y-73724819D02*
X176385059Y-72724819D01*
X176385059Y-72724819D02*
X176289821Y-72867676D01*
X176289821Y-72867676D02*
X176194583Y-72962914D01*
X176194583Y-72962914D02*
X176099345Y-73010533D01*
X177289821Y-72724819D02*
X177385059Y-72724819D01*
X177385059Y-72724819D02*
X177480297Y-72772438D01*
X177480297Y-72772438D02*
X177527916Y-72820057D01*
X177527916Y-72820057D02*
X177575535Y-72915295D01*
X177575535Y-72915295D02*
X177623154Y-73105771D01*
X177623154Y-73105771D02*
X177623154Y-73343866D01*
X177623154Y-73343866D02*
X177575535Y-73534342D01*
X177575535Y-73534342D02*
X177527916Y-73629580D01*
X177527916Y-73629580D02*
X177480297Y-73677200D01*
X177480297Y-73677200D02*
X177385059Y-73724819D01*
X177385059Y-73724819D02*
X177289821Y-73724819D01*
X177289821Y-73724819D02*
X177194583Y-73677200D01*
X177194583Y-73677200D02*
X177146964Y-73629580D01*
X177146964Y-73629580D02*
X177099345Y-73534342D01*
X177099345Y-73534342D02*
X177051726Y-73343866D01*
X177051726Y-73343866D02*
X177051726Y-73105771D01*
X177051726Y-73105771D02*
X177099345Y-72915295D01*
X177099345Y-72915295D02*
X177146964Y-72820057D01*
X177146964Y-72820057D02*
X177194583Y-72772438D01*
X177194583Y-72772438D02*
X177289821Y-72724819D01*
X122061011Y-70899819D02*
X121727678Y-70423628D01*
X121489583Y-70899819D02*
X121489583Y-69899819D01*
X121489583Y-69899819D02*
X121870535Y-69899819D01*
X121870535Y-69899819D02*
X121965773Y-69947438D01*
X121965773Y-69947438D02*
X122013392Y-69995057D01*
X122013392Y-69995057D02*
X122061011Y-70090295D01*
X122061011Y-70090295D02*
X122061011Y-70233152D01*
X122061011Y-70233152D02*
X122013392Y-70328390D01*
X122013392Y-70328390D02*
X121965773Y-70376009D01*
X121965773Y-70376009D02*
X121870535Y-70423628D01*
X121870535Y-70423628D02*
X121489583Y-70423628D01*
X122346726Y-69899819D02*
X122680059Y-70899819D01*
X122680059Y-70899819D02*
X123013392Y-69899819D01*
X123299107Y-69995057D02*
X123346726Y-69947438D01*
X123346726Y-69947438D02*
X123441964Y-69899819D01*
X123441964Y-69899819D02*
X123680059Y-69899819D01*
X123680059Y-69899819D02*
X123775297Y-69947438D01*
X123775297Y-69947438D02*
X123822916Y-69995057D01*
X123822916Y-69995057D02*
X123870535Y-70090295D01*
X123870535Y-70090295D02*
X123870535Y-70185533D01*
X123870535Y-70185533D02*
X123822916Y-70328390D01*
X123822916Y-70328390D02*
X123251488Y-70899819D01*
X123251488Y-70899819D02*
X123870535Y-70899819D01*
X170937083Y-95644819D02*
X170603750Y-95168628D01*
X170365655Y-95644819D02*
X170365655Y-94644819D01*
X170365655Y-94644819D02*
X170746607Y-94644819D01*
X170746607Y-94644819D02*
X170841845Y-94692438D01*
X170841845Y-94692438D02*
X170889464Y-94740057D01*
X170889464Y-94740057D02*
X170937083Y-94835295D01*
X170937083Y-94835295D02*
X170937083Y-94978152D01*
X170937083Y-94978152D02*
X170889464Y-95073390D01*
X170889464Y-95073390D02*
X170841845Y-95121009D01*
X170841845Y-95121009D02*
X170746607Y-95168628D01*
X170746607Y-95168628D02*
X170365655Y-95168628D01*
X171889464Y-95644819D02*
X171318036Y-95644819D01*
X171603750Y-95644819D02*
X171603750Y-94644819D01*
X171603750Y-94644819D02*
X171508512Y-94787676D01*
X171508512Y-94787676D02*
X171413274Y-94882914D01*
X171413274Y-94882914D02*
X171318036Y-94930533D01*
X110197083Y-77459580D02*
X110149464Y-77507200D01*
X110149464Y-77507200D02*
X110006607Y-77554819D01*
X110006607Y-77554819D02*
X109911369Y-77554819D01*
X109911369Y-77554819D02*
X109768512Y-77507200D01*
X109768512Y-77507200D02*
X109673274Y-77411961D01*
X109673274Y-77411961D02*
X109625655Y-77316723D01*
X109625655Y-77316723D02*
X109578036Y-77126247D01*
X109578036Y-77126247D02*
X109578036Y-76983390D01*
X109578036Y-76983390D02*
X109625655Y-76792914D01*
X109625655Y-76792914D02*
X109673274Y-76697676D01*
X109673274Y-76697676D02*
X109768512Y-76602438D01*
X109768512Y-76602438D02*
X109911369Y-76554819D01*
X109911369Y-76554819D02*
X110006607Y-76554819D01*
X110006607Y-76554819D02*
X110149464Y-76602438D01*
X110149464Y-76602438D02*
X110197083Y-76650057D01*
X111054226Y-76554819D02*
X110863750Y-76554819D01*
X110863750Y-76554819D02*
X110768512Y-76602438D01*
X110768512Y-76602438D02*
X110720893Y-76650057D01*
X110720893Y-76650057D02*
X110625655Y-76792914D01*
X110625655Y-76792914D02*
X110578036Y-76983390D01*
X110578036Y-76983390D02*
X110578036Y-77364342D01*
X110578036Y-77364342D02*
X110625655Y-77459580D01*
X110625655Y-77459580D02*
X110673274Y-77507200D01*
X110673274Y-77507200D02*
X110768512Y-77554819D01*
X110768512Y-77554819D02*
X110958988Y-77554819D01*
X110958988Y-77554819D02*
X111054226Y-77507200D01*
X111054226Y-77507200D02*
X111101845Y-77459580D01*
X111101845Y-77459580D02*
X111149464Y-77364342D01*
X111149464Y-77364342D02*
X111149464Y-77126247D01*
X111149464Y-77126247D02*
X111101845Y-77031009D01*
X111101845Y-77031009D02*
X111054226Y-76983390D01*
X111054226Y-76983390D02*
X110958988Y-76935771D01*
X110958988Y-76935771D02*
X110768512Y-76935771D01*
X110768512Y-76935771D02*
X110673274Y-76983390D01*
X110673274Y-76983390D02*
X110625655Y-77031009D01*
X110625655Y-77031009D02*
X110578036Y-77126247D01*
X108175892Y-84044819D02*
X107842559Y-83568628D01*
X107604464Y-84044819D02*
X107604464Y-83044819D01*
X107604464Y-83044819D02*
X107985416Y-83044819D01*
X107985416Y-83044819D02*
X108080654Y-83092438D01*
X108080654Y-83092438D02*
X108128273Y-83140057D01*
X108128273Y-83140057D02*
X108175892Y-83235295D01*
X108175892Y-83235295D02*
X108175892Y-83378152D01*
X108175892Y-83378152D02*
X108128273Y-83473390D01*
X108128273Y-83473390D02*
X108080654Y-83521009D01*
X108080654Y-83521009D02*
X107985416Y-83568628D01*
X107985416Y-83568628D02*
X107604464Y-83568628D01*
X109128273Y-84044819D02*
X108556845Y-84044819D01*
X108842559Y-84044819D02*
X108842559Y-83044819D01*
X108842559Y-83044819D02*
X108747321Y-83187676D01*
X108747321Y-83187676D02*
X108652083Y-83282914D01*
X108652083Y-83282914D02*
X108556845Y-83330533D01*
X110080654Y-84044819D02*
X109509226Y-84044819D01*
X109794940Y-84044819D02*
X109794940Y-83044819D01*
X109794940Y-83044819D02*
X109699702Y-83187676D01*
X109699702Y-83187676D02*
X109604464Y-83282914D01*
X109604464Y-83282914D02*
X109509226Y-83330533D01*
X133416069Y-131286666D02*
X133416069Y-131762856D01*
X133416069Y-131762856D02*
X132416069Y-131762856D01*
X132511307Y-131000951D02*
X132463688Y-130953332D01*
X132463688Y-130953332D02*
X132416069Y-130858094D01*
X132416069Y-130858094D02*
X132416069Y-130619999D01*
X132416069Y-130619999D02*
X132463688Y-130524761D01*
X132463688Y-130524761D02*
X132511307Y-130477142D01*
X132511307Y-130477142D02*
X132606545Y-130429523D01*
X132606545Y-130429523D02*
X132701783Y-130429523D01*
X132701783Y-130429523D02*
X132844640Y-130477142D01*
X132844640Y-130477142D02*
X133416069Y-131048570D01*
X133416069Y-131048570D02*
X133416069Y-130429523D01*
X151984583Y-84224819D02*
X151651250Y-83748628D01*
X151413155Y-84224819D02*
X151413155Y-83224819D01*
X151413155Y-83224819D02*
X151794107Y-83224819D01*
X151794107Y-83224819D02*
X151889345Y-83272438D01*
X151889345Y-83272438D02*
X151936964Y-83320057D01*
X151936964Y-83320057D02*
X151984583Y-83415295D01*
X151984583Y-83415295D02*
X151984583Y-83558152D01*
X151984583Y-83558152D02*
X151936964Y-83653390D01*
X151936964Y-83653390D02*
X151889345Y-83701009D01*
X151889345Y-83701009D02*
X151794107Y-83748628D01*
X151794107Y-83748628D02*
X151413155Y-83748628D01*
X152317917Y-83224819D02*
X152984583Y-83224819D01*
X152984583Y-83224819D02*
X152556012Y-84224819D01*
X145464583Y-79629580D02*
X145416964Y-79677200D01*
X145416964Y-79677200D02*
X145274107Y-79724819D01*
X145274107Y-79724819D02*
X145178869Y-79724819D01*
X145178869Y-79724819D02*
X145036012Y-79677200D01*
X145036012Y-79677200D02*
X144940774Y-79581961D01*
X144940774Y-79581961D02*
X144893155Y-79486723D01*
X144893155Y-79486723D02*
X144845536Y-79296247D01*
X144845536Y-79296247D02*
X144845536Y-79153390D01*
X144845536Y-79153390D02*
X144893155Y-78962914D01*
X144893155Y-78962914D02*
X144940774Y-78867676D01*
X144940774Y-78867676D02*
X145036012Y-78772438D01*
X145036012Y-78772438D02*
X145178869Y-78724819D01*
X145178869Y-78724819D02*
X145274107Y-78724819D01*
X145274107Y-78724819D02*
X145416964Y-78772438D01*
X145416964Y-78772438D02*
X145464583Y-78820057D01*
X145797917Y-78724819D02*
X146416964Y-78724819D01*
X146416964Y-78724819D02*
X146083631Y-79105771D01*
X146083631Y-79105771D02*
X146226488Y-79105771D01*
X146226488Y-79105771D02*
X146321726Y-79153390D01*
X146321726Y-79153390D02*
X146369345Y-79201009D01*
X146369345Y-79201009D02*
X146416964Y-79296247D01*
X146416964Y-79296247D02*
X146416964Y-79534342D01*
X146416964Y-79534342D02*
X146369345Y-79629580D01*
X146369345Y-79629580D02*
X146321726Y-79677200D01*
X146321726Y-79677200D02*
X146226488Y-79724819D01*
X146226488Y-79724819D02*
X145940774Y-79724819D01*
X145940774Y-79724819D02*
X145845536Y-79677200D01*
X145845536Y-79677200D02*
X145797917Y-79629580D01*
X155327083Y-71454819D02*
X154993750Y-70978628D01*
X154755655Y-71454819D02*
X154755655Y-70454819D01*
X154755655Y-70454819D02*
X155136607Y-70454819D01*
X155136607Y-70454819D02*
X155231845Y-70502438D01*
X155231845Y-70502438D02*
X155279464Y-70550057D01*
X155279464Y-70550057D02*
X155327083Y-70645295D01*
X155327083Y-70645295D02*
X155327083Y-70788152D01*
X155327083Y-70788152D02*
X155279464Y-70883390D01*
X155279464Y-70883390D02*
X155231845Y-70931009D01*
X155231845Y-70931009D02*
X155136607Y-70978628D01*
X155136607Y-70978628D02*
X154755655Y-70978628D01*
X155660417Y-70454819D02*
X156279464Y-70454819D01*
X156279464Y-70454819D02*
X155946131Y-70835771D01*
X155946131Y-70835771D02*
X156088988Y-70835771D01*
X156088988Y-70835771D02*
X156184226Y-70883390D01*
X156184226Y-70883390D02*
X156231845Y-70931009D01*
X156231845Y-70931009D02*
X156279464Y-71026247D01*
X156279464Y-71026247D02*
X156279464Y-71264342D01*
X156279464Y-71264342D02*
X156231845Y-71359580D01*
X156231845Y-71359580D02*
X156184226Y-71407200D01*
X156184226Y-71407200D02*
X156088988Y-71454819D01*
X156088988Y-71454819D02*
X155803274Y-71454819D01*
X155803274Y-71454819D02*
X155708036Y-71407200D01*
X155708036Y-71407200D02*
X155660417Y-71359580D01*
X109469345Y-70294819D02*
X109469345Y-71104342D01*
X109469345Y-71104342D02*
X109516964Y-71199580D01*
X109516964Y-71199580D02*
X109564583Y-71247200D01*
X109564583Y-71247200D02*
X109659821Y-71294819D01*
X109659821Y-71294819D02*
X109850297Y-71294819D01*
X109850297Y-71294819D02*
X109945535Y-71247200D01*
X109945535Y-71247200D02*
X109993154Y-71199580D01*
X109993154Y-71199580D02*
X110040773Y-71104342D01*
X110040773Y-71104342D02*
X110040773Y-70294819D01*
X110945535Y-70628152D02*
X110945535Y-71294819D01*
X110707440Y-70247200D02*
X110469345Y-70961485D01*
X110469345Y-70961485D02*
X111088392Y-70961485D01*
X121894583Y-79549580D02*
X121846964Y-79597200D01*
X121846964Y-79597200D02*
X121704107Y-79644819D01*
X121704107Y-79644819D02*
X121608869Y-79644819D01*
X121608869Y-79644819D02*
X121466012Y-79597200D01*
X121466012Y-79597200D02*
X121370774Y-79501961D01*
X121370774Y-79501961D02*
X121323155Y-79406723D01*
X121323155Y-79406723D02*
X121275536Y-79216247D01*
X121275536Y-79216247D02*
X121275536Y-79073390D01*
X121275536Y-79073390D02*
X121323155Y-78882914D01*
X121323155Y-78882914D02*
X121370774Y-78787676D01*
X121370774Y-78787676D02*
X121466012Y-78692438D01*
X121466012Y-78692438D02*
X121608869Y-78644819D01*
X121608869Y-78644819D02*
X121704107Y-78644819D01*
X121704107Y-78644819D02*
X121846964Y-78692438D01*
X121846964Y-78692438D02*
X121894583Y-78740057D01*
X122466012Y-79073390D02*
X122370774Y-79025771D01*
X122370774Y-79025771D02*
X122323155Y-78978152D01*
X122323155Y-78978152D02*
X122275536Y-78882914D01*
X122275536Y-78882914D02*
X122275536Y-78835295D01*
X122275536Y-78835295D02*
X122323155Y-78740057D01*
X122323155Y-78740057D02*
X122370774Y-78692438D01*
X122370774Y-78692438D02*
X122466012Y-78644819D01*
X122466012Y-78644819D02*
X122656488Y-78644819D01*
X122656488Y-78644819D02*
X122751726Y-78692438D01*
X122751726Y-78692438D02*
X122799345Y-78740057D01*
X122799345Y-78740057D02*
X122846964Y-78835295D01*
X122846964Y-78835295D02*
X122846964Y-78882914D01*
X122846964Y-78882914D02*
X122799345Y-78978152D01*
X122799345Y-78978152D02*
X122751726Y-79025771D01*
X122751726Y-79025771D02*
X122656488Y-79073390D01*
X122656488Y-79073390D02*
X122466012Y-79073390D01*
X122466012Y-79073390D02*
X122370774Y-79121009D01*
X122370774Y-79121009D02*
X122323155Y-79168628D01*
X122323155Y-79168628D02*
X122275536Y-79263866D01*
X122275536Y-79263866D02*
X122275536Y-79454342D01*
X122275536Y-79454342D02*
X122323155Y-79549580D01*
X122323155Y-79549580D02*
X122370774Y-79597200D01*
X122370774Y-79597200D02*
X122466012Y-79644819D01*
X122466012Y-79644819D02*
X122656488Y-79644819D01*
X122656488Y-79644819D02*
X122751726Y-79597200D01*
X122751726Y-79597200D02*
X122799345Y-79549580D01*
X122799345Y-79549580D02*
X122846964Y-79454342D01*
X122846964Y-79454342D02*
X122846964Y-79263866D01*
X122846964Y-79263866D02*
X122799345Y-79168628D01*
X122799345Y-79168628D02*
X122751726Y-79121009D01*
X122751726Y-79121009D02*
X122656488Y-79073390D01*
X155644583Y-84264819D02*
X155311250Y-83788628D01*
X155073155Y-84264819D02*
X155073155Y-83264819D01*
X155073155Y-83264819D02*
X155454107Y-83264819D01*
X155454107Y-83264819D02*
X155549345Y-83312438D01*
X155549345Y-83312438D02*
X155596964Y-83360057D01*
X155596964Y-83360057D02*
X155644583Y-83455295D01*
X155644583Y-83455295D02*
X155644583Y-83598152D01*
X155644583Y-83598152D02*
X155596964Y-83693390D01*
X155596964Y-83693390D02*
X155549345Y-83741009D01*
X155549345Y-83741009D02*
X155454107Y-83788628D01*
X155454107Y-83788628D02*
X155073155Y-83788628D01*
X156501726Y-83264819D02*
X156311250Y-83264819D01*
X156311250Y-83264819D02*
X156216012Y-83312438D01*
X156216012Y-83312438D02*
X156168393Y-83360057D01*
X156168393Y-83360057D02*
X156073155Y-83502914D01*
X156073155Y-83502914D02*
X156025536Y-83693390D01*
X156025536Y-83693390D02*
X156025536Y-84074342D01*
X156025536Y-84074342D02*
X156073155Y-84169580D01*
X156073155Y-84169580D02*
X156120774Y-84217200D01*
X156120774Y-84217200D02*
X156216012Y-84264819D01*
X156216012Y-84264819D02*
X156406488Y-84264819D01*
X156406488Y-84264819D02*
X156501726Y-84217200D01*
X156501726Y-84217200D02*
X156549345Y-84169580D01*
X156549345Y-84169580D02*
X156596964Y-84074342D01*
X156596964Y-84074342D02*
X156596964Y-83836247D01*
X156596964Y-83836247D02*
X156549345Y-83741009D01*
X156549345Y-83741009D02*
X156501726Y-83693390D01*
X156501726Y-83693390D02*
X156406488Y-83645771D01*
X156406488Y-83645771D02*
X156216012Y-83645771D01*
X156216012Y-83645771D02*
X156120774Y-83693390D01*
X156120774Y-83693390D02*
X156073155Y-83741009D01*
X156073155Y-83741009D02*
X156025536Y-83836247D01*
X94298392Y-61409580D02*
X94250773Y-61457200D01*
X94250773Y-61457200D02*
X94107916Y-61504819D01*
X94107916Y-61504819D02*
X94012678Y-61504819D01*
X94012678Y-61504819D02*
X93869821Y-61457200D01*
X93869821Y-61457200D02*
X93774583Y-61361961D01*
X93774583Y-61361961D02*
X93726964Y-61266723D01*
X93726964Y-61266723D02*
X93679345Y-61076247D01*
X93679345Y-61076247D02*
X93679345Y-60933390D01*
X93679345Y-60933390D02*
X93726964Y-60742914D01*
X93726964Y-60742914D02*
X93774583Y-60647676D01*
X93774583Y-60647676D02*
X93869821Y-60552438D01*
X93869821Y-60552438D02*
X94012678Y-60504819D01*
X94012678Y-60504819D02*
X94107916Y-60504819D01*
X94107916Y-60504819D02*
X94250773Y-60552438D01*
X94250773Y-60552438D02*
X94298392Y-60600057D01*
X95250773Y-61504819D02*
X94679345Y-61504819D01*
X94965059Y-61504819D02*
X94965059Y-60504819D01*
X94965059Y-60504819D02*
X94869821Y-60647676D01*
X94869821Y-60647676D02*
X94774583Y-60742914D01*
X94774583Y-60742914D02*
X94679345Y-60790533D01*
X95631726Y-60600057D02*
X95679345Y-60552438D01*
X95679345Y-60552438D02*
X95774583Y-60504819D01*
X95774583Y-60504819D02*
X96012678Y-60504819D01*
X96012678Y-60504819D02*
X96107916Y-60552438D01*
X96107916Y-60552438D02*
X96155535Y-60600057D01*
X96155535Y-60600057D02*
X96203154Y-60695295D01*
X96203154Y-60695295D02*
X96203154Y-60790533D01*
X96203154Y-60790533D02*
X96155535Y-60933390D01*
X96155535Y-60933390D02*
X95584107Y-61504819D01*
X95584107Y-61504819D02*
X96203154Y-61504819D01*
X120880830Y-141557857D02*
X120928450Y-141605476D01*
X120928450Y-141605476D02*
X120976069Y-141748333D01*
X120976069Y-141748333D02*
X120976069Y-141843571D01*
X120976069Y-141843571D02*
X120928450Y-141986428D01*
X120928450Y-141986428D02*
X120833211Y-142081666D01*
X120833211Y-142081666D02*
X120737973Y-142129285D01*
X120737973Y-142129285D02*
X120547497Y-142176904D01*
X120547497Y-142176904D02*
X120404640Y-142176904D01*
X120404640Y-142176904D02*
X120214164Y-142129285D01*
X120214164Y-142129285D02*
X120118926Y-142081666D01*
X120118926Y-142081666D02*
X120023688Y-141986428D01*
X120023688Y-141986428D02*
X119976069Y-141843571D01*
X119976069Y-141843571D02*
X119976069Y-141748333D01*
X119976069Y-141748333D02*
X120023688Y-141605476D01*
X120023688Y-141605476D02*
X120071307Y-141557857D01*
X120071307Y-141176904D02*
X120023688Y-141129285D01*
X120023688Y-141129285D02*
X119976069Y-141034047D01*
X119976069Y-141034047D02*
X119976069Y-140795952D01*
X119976069Y-140795952D02*
X120023688Y-140700714D01*
X120023688Y-140700714D02*
X120071307Y-140653095D01*
X120071307Y-140653095D02*
X120166545Y-140605476D01*
X120166545Y-140605476D02*
X120261783Y-140605476D01*
X120261783Y-140605476D02*
X120404640Y-140653095D01*
X120404640Y-140653095D02*
X120976069Y-141224523D01*
X120976069Y-141224523D02*
X120976069Y-140605476D01*
X119976069Y-139986428D02*
X119976069Y-139891190D01*
X119976069Y-139891190D02*
X120023688Y-139795952D01*
X120023688Y-139795952D02*
X120071307Y-139748333D01*
X120071307Y-139748333D02*
X120166545Y-139700714D01*
X120166545Y-139700714D02*
X120357021Y-139653095D01*
X120357021Y-139653095D02*
X120595116Y-139653095D01*
X120595116Y-139653095D02*
X120785592Y-139700714D01*
X120785592Y-139700714D02*
X120880830Y-139748333D01*
X120880830Y-139748333D02*
X120928450Y-139795952D01*
X120928450Y-139795952D02*
X120976069Y-139891190D01*
X120976069Y-139891190D02*
X120976069Y-139986428D01*
X120976069Y-139986428D02*
X120928450Y-140081666D01*
X120928450Y-140081666D02*
X120880830Y-140129285D01*
X120880830Y-140129285D02*
X120785592Y-140176904D01*
X120785592Y-140176904D02*
X120595116Y-140224523D01*
X120595116Y-140224523D02*
X120357021Y-140224523D01*
X120357021Y-140224523D02*
X120166545Y-140176904D01*
X120166545Y-140176904D02*
X120071307Y-140129285D01*
X120071307Y-140129285D02*
X120023688Y-140081666D01*
X120023688Y-140081666D02*
X119976069Y-139986428D01*
X178213569Y-104058333D02*
X178927854Y-104058333D01*
X178927854Y-104058333D02*
X179070711Y-104105952D01*
X179070711Y-104105952D02*
X179165950Y-104201190D01*
X179165950Y-104201190D02*
X179213569Y-104344047D01*
X179213569Y-104344047D02*
X179213569Y-104439285D01*
X179213569Y-103058333D02*
X179213569Y-103629761D01*
X179213569Y-103344047D02*
X178213569Y-103344047D01*
X178213569Y-103344047D02*
X178356426Y-103439285D01*
X178356426Y-103439285D02*
X178451664Y-103534523D01*
X178451664Y-103534523D02*
X178499283Y-103629761D01*
X163586069Y-86101904D02*
X164395592Y-86101904D01*
X164395592Y-86101904D02*
X164490830Y-86054285D01*
X164490830Y-86054285D02*
X164538450Y-86006666D01*
X164538450Y-86006666D02*
X164586069Y-85911428D01*
X164586069Y-85911428D02*
X164586069Y-85720952D01*
X164586069Y-85720952D02*
X164538450Y-85625714D01*
X164538450Y-85625714D02*
X164490830Y-85578095D01*
X164490830Y-85578095D02*
X164395592Y-85530476D01*
X164395592Y-85530476D02*
X163586069Y-85530476D01*
X163681307Y-85101904D02*
X163633688Y-85054285D01*
X163633688Y-85054285D02*
X163586069Y-84959047D01*
X163586069Y-84959047D02*
X163586069Y-84720952D01*
X163586069Y-84720952D02*
X163633688Y-84625714D01*
X163633688Y-84625714D02*
X163681307Y-84578095D01*
X163681307Y-84578095D02*
X163776545Y-84530476D01*
X163776545Y-84530476D02*
X163871783Y-84530476D01*
X163871783Y-84530476D02*
X164014640Y-84578095D01*
X164014640Y-84578095D02*
X164586069Y-85149523D01*
X164586069Y-85149523D02*
X164586069Y-84530476D01*
X139533155Y-88354819D02*
X139533155Y-87354819D01*
X139533155Y-87354819D02*
X139771250Y-87354819D01*
X139771250Y-87354819D02*
X139914107Y-87402438D01*
X139914107Y-87402438D02*
X140009345Y-87497676D01*
X140009345Y-87497676D02*
X140056964Y-87592914D01*
X140056964Y-87592914D02*
X140104583Y-87783390D01*
X140104583Y-87783390D02*
X140104583Y-87926247D01*
X140104583Y-87926247D02*
X140056964Y-88116723D01*
X140056964Y-88116723D02*
X140009345Y-88211961D01*
X140009345Y-88211961D02*
X139914107Y-88307200D01*
X139914107Y-88307200D02*
X139771250Y-88354819D01*
X139771250Y-88354819D02*
X139533155Y-88354819D01*
X140485536Y-87450057D02*
X140533155Y-87402438D01*
X140533155Y-87402438D02*
X140628393Y-87354819D01*
X140628393Y-87354819D02*
X140866488Y-87354819D01*
X140866488Y-87354819D02*
X140961726Y-87402438D01*
X140961726Y-87402438D02*
X141009345Y-87450057D01*
X141009345Y-87450057D02*
X141056964Y-87545295D01*
X141056964Y-87545295D02*
X141056964Y-87640533D01*
X141056964Y-87640533D02*
X141009345Y-87783390D01*
X141009345Y-87783390D02*
X140437917Y-88354819D01*
X140437917Y-88354819D02*
X141056964Y-88354819D01*
X187796069Y-117596904D02*
X188605592Y-117596904D01*
X188605592Y-117596904D02*
X188700830Y-117549285D01*
X188700830Y-117549285D02*
X188748450Y-117501666D01*
X188748450Y-117501666D02*
X188796069Y-117406428D01*
X188796069Y-117406428D02*
X188796069Y-117215952D01*
X188796069Y-117215952D02*
X188748450Y-117120714D01*
X188748450Y-117120714D02*
X188700830Y-117073095D01*
X188700830Y-117073095D02*
X188605592Y-117025476D01*
X188605592Y-117025476D02*
X187796069Y-117025476D01*
X188796069Y-116025476D02*
X188796069Y-116596904D01*
X188796069Y-116311190D02*
X187796069Y-116311190D01*
X187796069Y-116311190D02*
X187938926Y-116406428D01*
X187938926Y-116406428D02*
X188034164Y-116501666D01*
X188034164Y-116501666D02*
X188081783Y-116596904D01*
X124685892Y-84154819D02*
X124352559Y-83678628D01*
X124114464Y-84154819D02*
X124114464Y-83154819D01*
X124114464Y-83154819D02*
X124495416Y-83154819D01*
X124495416Y-83154819D02*
X124590654Y-83202438D01*
X124590654Y-83202438D02*
X124638273Y-83250057D01*
X124638273Y-83250057D02*
X124685892Y-83345295D01*
X124685892Y-83345295D02*
X124685892Y-83488152D01*
X124685892Y-83488152D02*
X124638273Y-83583390D01*
X124638273Y-83583390D02*
X124590654Y-83631009D01*
X124590654Y-83631009D02*
X124495416Y-83678628D01*
X124495416Y-83678628D02*
X124114464Y-83678628D01*
X125638273Y-84154819D02*
X125066845Y-84154819D01*
X125352559Y-84154819D02*
X125352559Y-83154819D01*
X125352559Y-83154819D02*
X125257321Y-83297676D01*
X125257321Y-83297676D02*
X125162083Y-83392914D01*
X125162083Y-83392914D02*
X125066845Y-83440533D01*
X126019226Y-83250057D02*
X126066845Y-83202438D01*
X126066845Y-83202438D02*
X126162083Y-83154819D01*
X126162083Y-83154819D02*
X126400178Y-83154819D01*
X126400178Y-83154819D02*
X126495416Y-83202438D01*
X126495416Y-83202438D02*
X126543035Y-83250057D01*
X126543035Y-83250057D02*
X126590654Y-83345295D01*
X126590654Y-83345295D02*
X126590654Y-83440533D01*
X126590654Y-83440533D02*
X126543035Y-83583390D01*
X126543035Y-83583390D02*
X125971607Y-84154819D01*
X125971607Y-84154819D02*
X126590654Y-84154819D01*
X137647083Y-83844819D02*
X137313750Y-83368628D01*
X137075655Y-83844819D02*
X137075655Y-82844819D01*
X137075655Y-82844819D02*
X137456607Y-82844819D01*
X137456607Y-82844819D02*
X137551845Y-82892438D01*
X137551845Y-82892438D02*
X137599464Y-82940057D01*
X137599464Y-82940057D02*
X137647083Y-83035295D01*
X137647083Y-83035295D02*
X137647083Y-83178152D01*
X137647083Y-83178152D02*
X137599464Y-83273390D01*
X137599464Y-83273390D02*
X137551845Y-83321009D01*
X137551845Y-83321009D02*
X137456607Y-83368628D01*
X137456607Y-83368628D02*
X137075655Y-83368628D01*
X138218512Y-83273390D02*
X138123274Y-83225771D01*
X138123274Y-83225771D02*
X138075655Y-83178152D01*
X138075655Y-83178152D02*
X138028036Y-83082914D01*
X138028036Y-83082914D02*
X138028036Y-83035295D01*
X138028036Y-83035295D02*
X138075655Y-82940057D01*
X138075655Y-82940057D02*
X138123274Y-82892438D01*
X138123274Y-82892438D02*
X138218512Y-82844819D01*
X138218512Y-82844819D02*
X138408988Y-82844819D01*
X138408988Y-82844819D02*
X138504226Y-82892438D01*
X138504226Y-82892438D02*
X138551845Y-82940057D01*
X138551845Y-82940057D02*
X138599464Y-83035295D01*
X138599464Y-83035295D02*
X138599464Y-83082914D01*
X138599464Y-83082914D02*
X138551845Y-83178152D01*
X138551845Y-83178152D02*
X138504226Y-83225771D01*
X138504226Y-83225771D02*
X138408988Y-83273390D01*
X138408988Y-83273390D02*
X138218512Y-83273390D01*
X138218512Y-83273390D02*
X138123274Y-83321009D01*
X138123274Y-83321009D02*
X138075655Y-83368628D01*
X138075655Y-83368628D02*
X138028036Y-83463866D01*
X138028036Y-83463866D02*
X138028036Y-83654342D01*
X138028036Y-83654342D02*
X138075655Y-83749580D01*
X138075655Y-83749580D02*
X138123274Y-83797200D01*
X138123274Y-83797200D02*
X138218512Y-83844819D01*
X138218512Y-83844819D02*
X138408988Y-83844819D01*
X138408988Y-83844819D02*
X138504226Y-83797200D01*
X138504226Y-83797200D02*
X138551845Y-83749580D01*
X138551845Y-83749580D02*
X138599464Y-83654342D01*
X138599464Y-83654342D02*
X138599464Y-83463866D01*
X138599464Y-83463866D02*
X138551845Y-83368628D01*
X138551845Y-83368628D02*
X138504226Y-83321009D01*
X138504226Y-83321009D02*
X138408988Y-83273390D01*
X157049345Y-70334819D02*
X157049345Y-71144342D01*
X157049345Y-71144342D02*
X157096964Y-71239580D01*
X157096964Y-71239580D02*
X157144583Y-71287200D01*
X157144583Y-71287200D02*
X157239821Y-71334819D01*
X157239821Y-71334819D02*
X157430297Y-71334819D01*
X157430297Y-71334819D02*
X157525535Y-71287200D01*
X157525535Y-71287200D02*
X157573154Y-71239580D01*
X157573154Y-71239580D02*
X157620773Y-71144342D01*
X157620773Y-71144342D02*
X157620773Y-70334819D01*
X158001726Y-70334819D02*
X158620773Y-70334819D01*
X158620773Y-70334819D02*
X158287440Y-70715771D01*
X158287440Y-70715771D02*
X158430297Y-70715771D01*
X158430297Y-70715771D02*
X158525535Y-70763390D01*
X158525535Y-70763390D02*
X158573154Y-70811009D01*
X158573154Y-70811009D02*
X158620773Y-70906247D01*
X158620773Y-70906247D02*
X158620773Y-71144342D01*
X158620773Y-71144342D02*
X158573154Y-71239580D01*
X158573154Y-71239580D02*
X158525535Y-71287200D01*
X158525535Y-71287200D02*
X158430297Y-71334819D01*
X158430297Y-71334819D02*
X158144583Y-71334819D01*
X158144583Y-71334819D02*
X158049345Y-71287200D01*
X158049345Y-71287200D02*
X158001726Y-71239580D01*
X101370830Y-66645357D02*
X101418450Y-66692976D01*
X101418450Y-66692976D02*
X101466069Y-66835833D01*
X101466069Y-66835833D02*
X101466069Y-66931071D01*
X101466069Y-66931071D02*
X101418450Y-67073928D01*
X101418450Y-67073928D02*
X101323211Y-67169166D01*
X101323211Y-67169166D02*
X101227973Y-67216785D01*
X101227973Y-67216785D02*
X101037497Y-67264404D01*
X101037497Y-67264404D02*
X100894640Y-67264404D01*
X100894640Y-67264404D02*
X100704164Y-67216785D01*
X100704164Y-67216785D02*
X100608926Y-67169166D01*
X100608926Y-67169166D02*
X100513688Y-67073928D01*
X100513688Y-67073928D02*
X100466069Y-66931071D01*
X100466069Y-66931071D02*
X100466069Y-66835833D01*
X100466069Y-66835833D02*
X100513688Y-66692976D01*
X100513688Y-66692976D02*
X100561307Y-66645357D01*
X101466069Y-65692976D02*
X101466069Y-66264404D01*
X101466069Y-65978690D02*
X100466069Y-65978690D01*
X100466069Y-65978690D02*
X100608926Y-66073928D01*
X100608926Y-66073928D02*
X100704164Y-66169166D01*
X100704164Y-66169166D02*
X100751783Y-66264404D01*
X101466069Y-64740595D02*
X101466069Y-65312023D01*
X101466069Y-65026309D02*
X100466069Y-65026309D01*
X100466069Y-65026309D02*
X100608926Y-65121547D01*
X100608926Y-65121547D02*
X100704164Y-65216785D01*
X100704164Y-65216785D02*
X100751783Y-65312023D01*
X167187083Y-95659580D02*
X167139464Y-95707200D01*
X167139464Y-95707200D02*
X166996607Y-95754819D01*
X166996607Y-95754819D02*
X166901369Y-95754819D01*
X166901369Y-95754819D02*
X166758512Y-95707200D01*
X166758512Y-95707200D02*
X166663274Y-95611961D01*
X166663274Y-95611961D02*
X166615655Y-95516723D01*
X166615655Y-95516723D02*
X166568036Y-95326247D01*
X166568036Y-95326247D02*
X166568036Y-95183390D01*
X166568036Y-95183390D02*
X166615655Y-94992914D01*
X166615655Y-94992914D02*
X166663274Y-94897676D01*
X166663274Y-94897676D02*
X166758512Y-94802438D01*
X166758512Y-94802438D02*
X166901369Y-94754819D01*
X166901369Y-94754819D02*
X166996607Y-94754819D01*
X166996607Y-94754819D02*
X167139464Y-94802438D01*
X167139464Y-94802438D02*
X167187083Y-94850057D01*
X167568036Y-94850057D02*
X167615655Y-94802438D01*
X167615655Y-94802438D02*
X167710893Y-94754819D01*
X167710893Y-94754819D02*
X167948988Y-94754819D01*
X167948988Y-94754819D02*
X168044226Y-94802438D01*
X168044226Y-94802438D02*
X168091845Y-94850057D01*
X168091845Y-94850057D02*
X168139464Y-94945295D01*
X168139464Y-94945295D02*
X168139464Y-95040533D01*
X168139464Y-95040533D02*
X168091845Y-95183390D01*
X168091845Y-95183390D02*
X167520417Y-95754819D01*
X167520417Y-95754819D02*
X168139464Y-95754819D01*
X175276069Y-65631904D02*
X176085592Y-65631904D01*
X176085592Y-65631904D02*
X176180830Y-65584285D01*
X176180830Y-65584285D02*
X176228450Y-65536666D01*
X176228450Y-65536666D02*
X176276069Y-65441428D01*
X176276069Y-65441428D02*
X176276069Y-65250952D01*
X176276069Y-65250952D02*
X176228450Y-65155714D01*
X176228450Y-65155714D02*
X176180830Y-65108095D01*
X176180830Y-65108095D02*
X176085592Y-65060476D01*
X176085592Y-65060476D02*
X175276069Y-65060476D01*
X175276069Y-64108095D02*
X175276069Y-64584285D01*
X175276069Y-64584285D02*
X175752259Y-64631904D01*
X175752259Y-64631904D02*
X175704640Y-64584285D01*
X175704640Y-64584285D02*
X175657021Y-64489047D01*
X175657021Y-64489047D02*
X175657021Y-64250952D01*
X175657021Y-64250952D02*
X175704640Y-64155714D01*
X175704640Y-64155714D02*
X175752259Y-64108095D01*
X175752259Y-64108095D02*
X175847497Y-64060476D01*
X175847497Y-64060476D02*
X176085592Y-64060476D01*
X176085592Y-64060476D02*
X176180830Y-64108095D01*
X176180830Y-64108095D02*
X176228450Y-64155714D01*
X176228450Y-64155714D02*
X176276069Y-64250952D01*
X176276069Y-64250952D02*
X176276069Y-64489047D01*
X176276069Y-64489047D02*
X176228450Y-64584285D01*
X176228450Y-64584285D02*
X176180830Y-64631904D01*
X159206069Y-72536666D02*
X158729878Y-72869999D01*
X159206069Y-73108094D02*
X158206069Y-73108094D01*
X158206069Y-73108094D02*
X158206069Y-72727142D01*
X158206069Y-72727142D02*
X158253688Y-72631904D01*
X158253688Y-72631904D02*
X158301307Y-72584285D01*
X158301307Y-72584285D02*
X158396545Y-72536666D01*
X158396545Y-72536666D02*
X158539402Y-72536666D01*
X158539402Y-72536666D02*
X158634640Y-72584285D01*
X158634640Y-72584285D02*
X158682259Y-72631904D01*
X158682259Y-72631904D02*
X158729878Y-72727142D01*
X158729878Y-72727142D02*
X158729878Y-73108094D01*
X158301307Y-72155713D02*
X158253688Y-72108094D01*
X158253688Y-72108094D02*
X158206069Y-72012856D01*
X158206069Y-72012856D02*
X158206069Y-71774761D01*
X158206069Y-71774761D02*
X158253688Y-71679523D01*
X158253688Y-71679523D02*
X158301307Y-71631904D01*
X158301307Y-71631904D02*
X158396545Y-71584285D01*
X158396545Y-71584285D02*
X158491783Y-71584285D01*
X158491783Y-71584285D02*
X158634640Y-71631904D01*
X158634640Y-71631904D02*
X159206069Y-72203332D01*
X159206069Y-72203332D02*
X159206069Y-71584285D01*
X123040655Y-88484819D02*
X123040655Y-87484819D01*
X123040655Y-87484819D02*
X123278750Y-87484819D01*
X123278750Y-87484819D02*
X123421607Y-87532438D01*
X123421607Y-87532438D02*
X123516845Y-87627676D01*
X123516845Y-87627676D02*
X123564464Y-87722914D01*
X123564464Y-87722914D02*
X123612083Y-87913390D01*
X123612083Y-87913390D02*
X123612083Y-88056247D01*
X123612083Y-88056247D02*
X123564464Y-88246723D01*
X123564464Y-88246723D02*
X123516845Y-88341961D01*
X123516845Y-88341961D02*
X123421607Y-88437200D01*
X123421607Y-88437200D02*
X123278750Y-88484819D01*
X123278750Y-88484819D02*
X123040655Y-88484819D01*
X124469226Y-87818152D02*
X124469226Y-88484819D01*
X124231131Y-87437200D02*
X123993036Y-88151485D01*
X123993036Y-88151485D02*
X124612083Y-88151485D01*
X131140830Y-141505357D02*
X131188450Y-141552976D01*
X131188450Y-141552976D02*
X131236069Y-141695833D01*
X131236069Y-141695833D02*
X131236069Y-141791071D01*
X131236069Y-141791071D02*
X131188450Y-141933928D01*
X131188450Y-141933928D02*
X131093211Y-142029166D01*
X131093211Y-142029166D02*
X130997973Y-142076785D01*
X130997973Y-142076785D02*
X130807497Y-142124404D01*
X130807497Y-142124404D02*
X130664640Y-142124404D01*
X130664640Y-142124404D02*
X130474164Y-142076785D01*
X130474164Y-142076785D02*
X130378926Y-142029166D01*
X130378926Y-142029166D02*
X130283688Y-141933928D01*
X130283688Y-141933928D02*
X130236069Y-141791071D01*
X130236069Y-141791071D02*
X130236069Y-141695833D01*
X130236069Y-141695833D02*
X130283688Y-141552976D01*
X130283688Y-141552976D02*
X130331307Y-141505357D01*
X131236069Y-140552976D02*
X131236069Y-141124404D01*
X131236069Y-140838690D02*
X130236069Y-140838690D01*
X130236069Y-140838690D02*
X130378926Y-140933928D01*
X130378926Y-140933928D02*
X130474164Y-141029166D01*
X130474164Y-141029166D02*
X130521783Y-141124404D01*
X130664640Y-139981547D02*
X130617021Y-140076785D01*
X130617021Y-140076785D02*
X130569402Y-140124404D01*
X130569402Y-140124404D02*
X130474164Y-140172023D01*
X130474164Y-140172023D02*
X130426545Y-140172023D01*
X130426545Y-140172023D02*
X130331307Y-140124404D01*
X130331307Y-140124404D02*
X130283688Y-140076785D01*
X130283688Y-140076785D02*
X130236069Y-139981547D01*
X130236069Y-139981547D02*
X130236069Y-139791071D01*
X130236069Y-139791071D02*
X130283688Y-139695833D01*
X130283688Y-139695833D02*
X130331307Y-139648214D01*
X130331307Y-139648214D02*
X130426545Y-139600595D01*
X130426545Y-139600595D02*
X130474164Y-139600595D01*
X130474164Y-139600595D02*
X130569402Y-139648214D01*
X130569402Y-139648214D02*
X130617021Y-139695833D01*
X130617021Y-139695833D02*
X130664640Y-139791071D01*
X130664640Y-139791071D02*
X130664640Y-139981547D01*
X130664640Y-139981547D02*
X130712259Y-140076785D01*
X130712259Y-140076785D02*
X130759878Y-140124404D01*
X130759878Y-140124404D02*
X130855116Y-140172023D01*
X130855116Y-140172023D02*
X131045592Y-140172023D01*
X131045592Y-140172023D02*
X131140830Y-140124404D01*
X131140830Y-140124404D02*
X131188450Y-140076785D01*
X131188450Y-140076785D02*
X131236069Y-139981547D01*
X131236069Y-139981547D02*
X131236069Y-139791071D01*
X131236069Y-139791071D02*
X131188450Y-139695833D01*
X131188450Y-139695833D02*
X131140830Y-139648214D01*
X131140830Y-139648214D02*
X131045592Y-139600595D01*
X131045592Y-139600595D02*
X130855116Y-139600595D01*
X130855116Y-139600595D02*
X130759878Y-139648214D01*
X130759878Y-139648214D02*
X130712259Y-139695833D01*
X130712259Y-139695833D02*
X130664640Y-139791071D01*
X95766430Y-65368095D02*
X94956907Y-65368095D01*
X94956907Y-65368095D02*
X94861669Y-65415714D01*
X94861669Y-65415714D02*
X94814050Y-65463333D01*
X94814050Y-65463333D02*
X94766430Y-65558571D01*
X94766430Y-65558571D02*
X94766430Y-65749047D01*
X94766430Y-65749047D02*
X94814050Y-65844285D01*
X94814050Y-65844285D02*
X94861669Y-65891904D01*
X94861669Y-65891904D02*
X94956907Y-65939523D01*
X94956907Y-65939523D02*
X95766430Y-65939523D01*
X95766430Y-66844285D02*
X95766430Y-66653809D01*
X95766430Y-66653809D02*
X95718811Y-66558571D01*
X95718811Y-66558571D02*
X95671192Y-66510952D01*
X95671192Y-66510952D02*
X95528335Y-66415714D01*
X95528335Y-66415714D02*
X95337859Y-66368095D01*
X95337859Y-66368095D02*
X94956907Y-66368095D01*
X94956907Y-66368095D02*
X94861669Y-66415714D01*
X94861669Y-66415714D02*
X94814050Y-66463333D01*
X94814050Y-66463333D02*
X94766430Y-66558571D01*
X94766430Y-66558571D02*
X94766430Y-66749047D01*
X94766430Y-66749047D02*
X94814050Y-66844285D01*
X94814050Y-66844285D02*
X94861669Y-66891904D01*
X94861669Y-66891904D02*
X94956907Y-66939523D01*
X94956907Y-66939523D02*
X95195002Y-66939523D01*
X95195002Y-66939523D02*
X95290240Y-66891904D01*
X95290240Y-66891904D02*
X95337859Y-66844285D01*
X95337859Y-66844285D02*
X95385478Y-66749047D01*
X95385478Y-66749047D02*
X95385478Y-66558571D01*
X95385478Y-66558571D02*
X95337859Y-66463333D01*
X95337859Y-66463333D02*
X95290240Y-66415714D01*
X95290240Y-66415714D02*
X95195002Y-66368095D01*
X136580830Y-141380357D02*
X136628450Y-141427976D01*
X136628450Y-141427976D02*
X136676069Y-141570833D01*
X136676069Y-141570833D02*
X136676069Y-141666071D01*
X136676069Y-141666071D02*
X136628450Y-141808928D01*
X136628450Y-141808928D02*
X136533211Y-141904166D01*
X136533211Y-141904166D02*
X136437973Y-141951785D01*
X136437973Y-141951785D02*
X136247497Y-141999404D01*
X136247497Y-141999404D02*
X136104640Y-141999404D01*
X136104640Y-141999404D02*
X135914164Y-141951785D01*
X135914164Y-141951785D02*
X135818926Y-141904166D01*
X135818926Y-141904166D02*
X135723688Y-141808928D01*
X135723688Y-141808928D02*
X135676069Y-141666071D01*
X135676069Y-141666071D02*
X135676069Y-141570833D01*
X135676069Y-141570833D02*
X135723688Y-141427976D01*
X135723688Y-141427976D02*
X135771307Y-141380357D01*
X136676069Y-140427976D02*
X136676069Y-140999404D01*
X136676069Y-140713690D02*
X135676069Y-140713690D01*
X135676069Y-140713690D02*
X135818926Y-140808928D01*
X135818926Y-140808928D02*
X135914164Y-140904166D01*
X135914164Y-140904166D02*
X135961783Y-140999404D01*
X135676069Y-139570833D02*
X135676069Y-139761309D01*
X135676069Y-139761309D02*
X135723688Y-139856547D01*
X135723688Y-139856547D02*
X135771307Y-139904166D01*
X135771307Y-139904166D02*
X135914164Y-139999404D01*
X135914164Y-139999404D02*
X136104640Y-140047023D01*
X136104640Y-140047023D02*
X136485592Y-140047023D01*
X136485592Y-140047023D02*
X136580830Y-139999404D01*
X136580830Y-139999404D02*
X136628450Y-139951785D01*
X136628450Y-139951785D02*
X136676069Y-139856547D01*
X136676069Y-139856547D02*
X136676069Y-139666071D01*
X136676069Y-139666071D02*
X136628450Y-139570833D01*
X136628450Y-139570833D02*
X136580830Y-139523214D01*
X136580830Y-139523214D02*
X136485592Y-139475595D01*
X136485592Y-139475595D02*
X136247497Y-139475595D01*
X136247497Y-139475595D02*
X136152259Y-139523214D01*
X136152259Y-139523214D02*
X136104640Y-139570833D01*
X136104640Y-139570833D02*
X136057021Y-139666071D01*
X136057021Y-139666071D02*
X136057021Y-139856547D01*
X136057021Y-139856547D02*
X136104640Y-139951785D01*
X136104640Y-139951785D02*
X136152259Y-139999404D01*
X136152259Y-139999404D02*
X136247497Y-140047023D01*
X161220830Y-131732857D02*
X161268450Y-131780476D01*
X161268450Y-131780476D02*
X161316069Y-131923333D01*
X161316069Y-131923333D02*
X161316069Y-132018571D01*
X161316069Y-132018571D02*
X161268450Y-132161428D01*
X161268450Y-132161428D02*
X161173211Y-132256666D01*
X161173211Y-132256666D02*
X161077973Y-132304285D01*
X161077973Y-132304285D02*
X160887497Y-132351904D01*
X160887497Y-132351904D02*
X160744640Y-132351904D01*
X160744640Y-132351904D02*
X160554164Y-132304285D01*
X160554164Y-132304285D02*
X160458926Y-132256666D01*
X160458926Y-132256666D02*
X160363688Y-132161428D01*
X160363688Y-132161428D02*
X160316069Y-132018571D01*
X160316069Y-132018571D02*
X160316069Y-131923333D01*
X160316069Y-131923333D02*
X160363688Y-131780476D01*
X160363688Y-131780476D02*
X160411307Y-131732857D01*
X161316069Y-130780476D02*
X161316069Y-131351904D01*
X161316069Y-131066190D02*
X160316069Y-131066190D01*
X160316069Y-131066190D02*
X160458926Y-131161428D01*
X160458926Y-131161428D02*
X160554164Y-131256666D01*
X160554164Y-131256666D02*
X160601783Y-131351904D01*
X160316069Y-130447142D02*
X160316069Y-129828095D01*
X160316069Y-129828095D02*
X160697021Y-130161428D01*
X160697021Y-130161428D02*
X160697021Y-130018571D01*
X160697021Y-130018571D02*
X160744640Y-129923333D01*
X160744640Y-129923333D02*
X160792259Y-129875714D01*
X160792259Y-129875714D02*
X160887497Y-129828095D01*
X160887497Y-129828095D02*
X161125592Y-129828095D01*
X161125592Y-129828095D02*
X161220830Y-129875714D01*
X161220830Y-129875714D02*
X161268450Y-129923333D01*
X161268450Y-129923333D02*
X161316069Y-130018571D01*
X161316069Y-130018571D02*
X161316069Y-130304285D01*
X161316069Y-130304285D02*
X161268450Y-130399523D01*
X161268450Y-130399523D02*
X161220830Y-130447142D01*
X105270830Y-131460357D02*
X105318450Y-131507976D01*
X105318450Y-131507976D02*
X105366069Y-131650833D01*
X105366069Y-131650833D02*
X105366069Y-131746071D01*
X105366069Y-131746071D02*
X105318450Y-131888928D01*
X105318450Y-131888928D02*
X105223211Y-131984166D01*
X105223211Y-131984166D02*
X105127973Y-132031785D01*
X105127973Y-132031785D02*
X104937497Y-132079404D01*
X104937497Y-132079404D02*
X104794640Y-132079404D01*
X104794640Y-132079404D02*
X104604164Y-132031785D01*
X104604164Y-132031785D02*
X104508926Y-131984166D01*
X104508926Y-131984166D02*
X104413688Y-131888928D01*
X104413688Y-131888928D02*
X104366069Y-131746071D01*
X104366069Y-131746071D02*
X104366069Y-131650833D01*
X104366069Y-131650833D02*
X104413688Y-131507976D01*
X104413688Y-131507976D02*
X104461307Y-131460357D01*
X105366069Y-130507976D02*
X105366069Y-131079404D01*
X105366069Y-130793690D02*
X104366069Y-130793690D01*
X104366069Y-130793690D02*
X104508926Y-130888928D01*
X104508926Y-130888928D02*
X104604164Y-130984166D01*
X104604164Y-130984166D02*
X104651783Y-131079404D01*
X104366069Y-130174642D02*
X104366069Y-129507976D01*
X104366069Y-129507976D02*
X105366069Y-129936547D01*
X141624583Y-84004819D02*
X141291250Y-83528628D01*
X141053155Y-84004819D02*
X141053155Y-83004819D01*
X141053155Y-83004819D02*
X141434107Y-83004819D01*
X141434107Y-83004819D02*
X141529345Y-83052438D01*
X141529345Y-83052438D02*
X141576964Y-83100057D01*
X141576964Y-83100057D02*
X141624583Y-83195295D01*
X141624583Y-83195295D02*
X141624583Y-83338152D01*
X141624583Y-83338152D02*
X141576964Y-83433390D01*
X141576964Y-83433390D02*
X141529345Y-83481009D01*
X141529345Y-83481009D02*
X141434107Y-83528628D01*
X141434107Y-83528628D02*
X141053155Y-83528628D01*
X142100774Y-84004819D02*
X142291250Y-84004819D01*
X142291250Y-84004819D02*
X142386488Y-83957200D01*
X142386488Y-83957200D02*
X142434107Y-83909580D01*
X142434107Y-83909580D02*
X142529345Y-83766723D01*
X142529345Y-83766723D02*
X142576964Y-83576247D01*
X142576964Y-83576247D02*
X142576964Y-83195295D01*
X142576964Y-83195295D02*
X142529345Y-83100057D01*
X142529345Y-83100057D02*
X142481726Y-83052438D01*
X142481726Y-83052438D02*
X142386488Y-83004819D01*
X142386488Y-83004819D02*
X142196012Y-83004819D01*
X142196012Y-83004819D02*
X142100774Y-83052438D01*
X142100774Y-83052438D02*
X142053155Y-83100057D01*
X142053155Y-83100057D02*
X142005536Y-83195295D01*
X142005536Y-83195295D02*
X142005536Y-83433390D01*
X142005536Y-83433390D02*
X142053155Y-83528628D01*
X142053155Y-83528628D02*
X142100774Y-83576247D01*
X142100774Y-83576247D02*
X142196012Y-83623866D01*
X142196012Y-83623866D02*
X142386488Y-83623866D01*
X142386488Y-83623866D02*
X142481726Y-83576247D01*
X142481726Y-83576247D02*
X142529345Y-83528628D01*
X142529345Y-83528628D02*
X142576964Y-83433390D01*
D11*
%TO.C,L3*%
X117761250Y-124940000D02*
X120761250Y-124940000D01*
X117761250Y-137540000D02*
X117761250Y-124940000D01*
X120761250Y-137540000D02*
X117761250Y-137540000D01*
X127361250Y-124940000D02*
X130361250Y-124940000D01*
X130361250Y-124940000D02*
X130361250Y-137540000D01*
X130361250Y-137540000D02*
X127361250Y-137540000D01*
%TO.C,Q4*%
X118561250Y-92440000D02*
X128781250Y-92440000D01*
X118561250Y-97060000D02*
X118561250Y-92440000D01*
X121821250Y-97060000D02*
X121821250Y-95680000D01*
X125521250Y-97060000D02*
X125521250Y-95680000D01*
X128781250Y-92440000D02*
X128781250Y-97060000D01*
X128781250Y-95680000D02*
X118561250Y-95680000D01*
X128781250Y-97060000D02*
X118561250Y-97060000D01*
%TO.C,D3*%
X107583750Y-86530000D02*
X107583750Y-89750000D01*
X107583750Y-89750000D02*
X113393750Y-89750000D01*
X113393750Y-86530000D02*
X107583750Y-86530000D01*
%TO.C,L1*%
X133861250Y-110140000D02*
X136861250Y-110140000D01*
X133861250Y-122740000D02*
X133861250Y-110140000D01*
X136861250Y-122740000D02*
X133861250Y-122740000D01*
X143461250Y-110140000D02*
X146461250Y-110140000D01*
X146461250Y-110140000D02*
X146461250Y-122740000D01*
X146461250Y-122740000D02*
X143461250Y-122740000D01*
%TO.C,C19*%
X123711250Y-140746233D02*
X123711250Y-141038767D01*
X124731250Y-140746233D02*
X124731250Y-141038767D01*
%TO.C,C7*%
X106277483Y-75020000D02*
X106570017Y-75020000D01*
X106277483Y-76040000D02*
X106570017Y-76040000D01*
%TO.C,R5*%
X110025974Y-71947500D02*
X109516526Y-71947500D01*
X110025974Y-72992500D02*
X109516526Y-72992500D01*
%TO.C,C15*%
X139411250Y-140761233D02*
X139411250Y-141053767D01*
X140431250Y-140761233D02*
X140431250Y-141053767D01*
%TO.C,R10*%
X112286526Y-84507500D02*
X112795974Y-84507500D01*
X112286526Y-85552500D02*
X112795974Y-85552500D01*
%TO.C,J2*%
X162151250Y-132510000D02*
X172891250Y-132510000D01*
X162151250Y-136130000D02*
X163391250Y-136130000D01*
X162151250Y-137130000D02*
X163391250Y-137130000D01*
X162151250Y-138430000D02*
X163391250Y-138430000D01*
X162151250Y-140550000D02*
X162151250Y-132510000D01*
X164971250Y-140550000D02*
X162151250Y-140550000D01*
X167151250Y-136130000D02*
X168459250Y-136130000D01*
X167151250Y-137130000D02*
X168459250Y-137130000D01*
X167151250Y-138430000D02*
X169728250Y-138430000D01*
X170814250Y-138430000D02*
X172891250Y-138430000D01*
X172083250Y-136130000D02*
X172891250Y-136130000D01*
X172083250Y-137130000D02*
X172891250Y-137130000D01*
X172891250Y-132510000D02*
X172891250Y-140550000D01*
X172891250Y-140550000D02*
X165571250Y-140550000D01*
X165711250Y-141160000D02*
X164831250Y-141160000D01*
X165271250Y-140550000D01*
X165711250Y-141160000D01*
G36*
X165711250Y-141160000D02*
G01*
X164831250Y-141160000D01*
X165271250Y-140550000D01*
X165711250Y-141160000D01*
G37*
%TO.C,Q2*%
X135201250Y-92020000D02*
X145421250Y-92020000D01*
X135201250Y-96640000D02*
X135201250Y-92020000D01*
X138461250Y-96640000D02*
X138461250Y-95260000D01*
X142161250Y-96640000D02*
X142161250Y-95260000D01*
X145421250Y-92020000D02*
X145421250Y-96640000D01*
X145421250Y-95260000D02*
X135201250Y-95260000D01*
X145421250Y-96640000D02*
X135201250Y-96640000D01*
%TO.C,C1*%
X178171250Y-81470000D02*
X181221250Y-81470000D01*
X178171250Y-88925563D02*
X178171250Y-81470000D01*
X179235687Y-89990000D02*
X178171250Y-88925563D01*
X179235687Y-89990000D02*
X181221250Y-89990000D01*
X179721250Y-90730000D02*
X180721250Y-90730000D01*
X180221250Y-91230000D02*
X180221250Y-90230000D01*
X185626813Y-89990000D02*
X183641250Y-89990000D01*
X185626813Y-89990000D02*
X186691250Y-88925563D01*
X186691250Y-81470000D02*
X183641250Y-81470000D01*
X186691250Y-88925563D02*
X186691250Y-81470000D01*
%TO.C,C5*%
X160350017Y-74680000D02*
X160057483Y-74680000D01*
X160350017Y-75700000D02*
X160057483Y-75700000D01*
%TO.C,D1*%
X150973750Y-86570000D02*
X150973750Y-89790000D01*
X150973750Y-89790000D02*
X156783750Y-89790000D01*
X156783750Y-86570000D02*
X150973750Y-86570000D01*
%TO.C,C4*%
X155359983Y-74870000D02*
X155652517Y-74870000D01*
X155359983Y-75890000D02*
X155652517Y-75890000D01*
%TO.C,R13*%
X121783474Y-84647500D02*
X121274026Y-84647500D01*
X121783474Y-85692500D02*
X121274026Y-85692500D01*
%TO.C,J3*%
X92791250Y-132547500D02*
X103531250Y-132547500D01*
X92791250Y-136167500D02*
X94031250Y-136167500D01*
X92791250Y-137167500D02*
X94031250Y-137167500D01*
X92791250Y-138467500D02*
X94031250Y-138467500D01*
X92791250Y-140587500D02*
X92791250Y-132547500D01*
X95611250Y-140587500D02*
X92791250Y-140587500D01*
X97791250Y-136167500D02*
X99099250Y-136167500D01*
X97791250Y-137167500D02*
X99099250Y-137167500D01*
X97791250Y-138467500D02*
X100368250Y-138467500D01*
X101454250Y-138467500D02*
X103531250Y-138467500D01*
X102723250Y-136167500D02*
X103531250Y-136167500D01*
X102723250Y-137167500D02*
X103531250Y-137167500D01*
X103531250Y-132547500D02*
X103531250Y-140587500D01*
X103531250Y-140587500D02*
X96211250Y-140587500D01*
X96351250Y-141197500D02*
X95471250Y-141197500D01*
X95911250Y-140587500D01*
X96351250Y-141197500D01*
G36*
X96351250Y-141197500D02*
G01*
X95471250Y-141197500D01*
X95911250Y-140587500D01*
X96351250Y-141197500D01*
G37*
%TO.C,R4*%
X114328474Y-74987500D02*
X113819026Y-74987500D01*
X114328474Y-76032500D02*
X113819026Y-76032500D01*
%TO.C,Q3*%
X105851250Y-92530000D02*
X116071250Y-92530000D01*
X105851250Y-97150000D02*
X105851250Y-92530000D01*
X109111250Y-97150000D02*
X109111250Y-95770000D01*
X112811250Y-97150000D02*
X112811250Y-95770000D01*
X116071250Y-92530000D02*
X116071250Y-97150000D01*
X116071250Y-95770000D02*
X105851250Y-95770000D01*
X116071250Y-97150000D02*
X105851250Y-97150000D01*
%TO.C,RV1*%
X141081250Y-59495000D02*
X150831250Y-59495000D01*
X141081250Y-69245000D02*
X141081250Y-59495000D01*
X150831250Y-59495000D02*
X150831250Y-69245000D01*
X150831250Y-69245000D02*
X141081250Y-69245000D01*
%TO.C,J4*%
X131341250Y-61130000D02*
X131841250Y-61130000D01*
X131341250Y-62330000D02*
X129341250Y-62330000D01*
X131341250Y-62330000D02*
X131341250Y-61130000D01*
X131341250Y-64930000D02*
X129341250Y-64930000D01*
X131341250Y-71430000D02*
X131341250Y-64930000D01*
X131341250Y-75830000D02*
X131341250Y-74630000D01*
X131841250Y-58630000D02*
X137041250Y-58630000D01*
X131841250Y-61130000D02*
X131841250Y-58630000D01*
X137041250Y-58630000D02*
X137041250Y-61130000D01*
X137041250Y-61130000D02*
X137541250Y-61130000D01*
X137541250Y-61130000D02*
X137541250Y-64330000D01*
X137541250Y-66930000D02*
X137541250Y-75830000D01*
X137541250Y-75830000D02*
X131341250Y-75830000D01*
%TO.C,C9*%
X171144983Y-64170000D02*
X171437517Y-64170000D01*
X171144983Y-65190000D02*
X171437517Y-65190000D01*
%TO.C,C14*%
X144541250Y-140698733D02*
X144541250Y-140991267D01*
X145561250Y-140698733D02*
X145561250Y-140991267D01*
%TO.C,L4*%
X117821250Y-110340000D02*
X120821250Y-110340000D01*
X117821250Y-122940000D02*
X117821250Y-110340000D01*
X120821250Y-122940000D02*
X117821250Y-122940000D01*
X127421250Y-110340000D02*
X130421250Y-110340000D01*
X130421250Y-110340000D02*
X130421250Y-122940000D01*
X130421250Y-122940000D02*
X127421250Y-122940000D01*
%TO.C,Q1*%
X149081250Y-92020000D02*
X159301250Y-92020000D01*
X149081250Y-96640000D02*
X149081250Y-92020000D01*
X152341250Y-96640000D02*
X152341250Y-95260000D01*
X156041250Y-96640000D02*
X156041250Y-95260000D01*
X159301250Y-92020000D02*
X159301250Y-96640000D01*
X159301250Y-95260000D02*
X149081250Y-95260000D01*
X159301250Y-96640000D02*
X149081250Y-96640000D01*
%TO.C,C10*%
X176354983Y-71280000D02*
X176647517Y-71280000D01*
X176354983Y-72300000D02*
X176647517Y-72300000D01*
%TO.C,RV2*%
X117781250Y-59555000D02*
X127531250Y-59555000D01*
X117781250Y-69305000D02*
X117781250Y-59555000D01*
X127531250Y-59555000D02*
X127531250Y-69305000D01*
X127531250Y-69305000D02*
X117781250Y-69305000D01*
%TO.C,R1*%
X170849026Y-93287500D02*
X171358474Y-93287500D01*
X170849026Y-94332500D02*
X171358474Y-94332500D01*
%TO.C,C6*%
X110119983Y-75030000D02*
X110412517Y-75030000D01*
X110119983Y-76050000D02*
X110412517Y-76050000D01*
%TO.C,R11*%
X108963474Y-84497500D02*
X108454026Y-84497500D01*
X108963474Y-85542500D02*
X108454026Y-85542500D01*
%TO.C,L2*%
X134041250Y-124820000D02*
X137041250Y-124820000D01*
X134041250Y-137420000D02*
X134041250Y-124820000D01*
X137041250Y-137420000D02*
X134041250Y-137420000D01*
X143641250Y-124820000D02*
X146641250Y-124820000D01*
X146641250Y-124820000D02*
X146641250Y-137420000D01*
X146641250Y-137420000D02*
X143641250Y-137420000D01*
%TO.C,R7*%
X152405974Y-84687500D02*
X151896526Y-84687500D01*
X152405974Y-85732500D02*
X151896526Y-85732500D01*
%TO.C,C3*%
X142221250Y-71510000D02*
X142221250Y-73860000D01*
X142221250Y-78330000D02*
X142221250Y-75980000D01*
X147976813Y-71510000D02*
X142221250Y-71510000D01*
X147976813Y-78330000D02*
X142221250Y-78330000D01*
X149041250Y-72574437D02*
X147976813Y-71510000D01*
X149041250Y-72574437D02*
X149041250Y-73860000D01*
X149041250Y-77265563D02*
X147976813Y-78330000D01*
X149041250Y-77265563D02*
X149041250Y-75980000D01*
X149675000Y-77161250D02*
X149675000Y-76373750D01*
X150068750Y-76767500D02*
X149281250Y-76767500D01*
%TO.C,R3*%
X155748474Y-71777500D02*
X155239026Y-71777500D01*
X155748474Y-72822500D02*
X155239026Y-72822500D01*
%TO.C,U4*%
X107581250Y-59560000D02*
X107581250Y-69840000D01*
X107581250Y-69840000D02*
X109231250Y-69840000D01*
X111231250Y-69840000D02*
X112881250Y-69840000D01*
X112881250Y-59560000D02*
X107581250Y-59560000D01*
X112881250Y-69840000D02*
X112881250Y-59560000D01*
X115371250Y-69900000D02*
X105091250Y-69900000D01*
X105091250Y-59500000D01*
X115371250Y-59500000D01*
X115371250Y-69900000D01*
X109231250Y-69840000D02*
G75*
G02*
X111231250Y-69840000I1000000J0D01*
G01*
%TO.C,C8*%
X117623750Y-72972500D02*
X118411250Y-72972500D01*
X118017500Y-72578750D02*
X118017500Y-73366250D01*
X118651250Y-72474437D02*
X118651250Y-73760000D01*
X118651250Y-72474437D02*
X119715687Y-71410000D01*
X118651250Y-77165563D02*
X118651250Y-75880000D01*
X118651250Y-77165563D02*
X119715687Y-78230000D01*
X119715687Y-71410000D02*
X125471250Y-71410000D01*
X119715687Y-78230000D02*
X125471250Y-78230000D01*
X125471250Y-71410000D02*
X125471250Y-73760000D01*
X125471250Y-78230000D02*
X125471250Y-75880000D01*
%TO.C,R6*%
X155556526Y-84717500D02*
X156065974Y-84717500D01*
X155556526Y-85762500D02*
X156065974Y-85762500D01*
%TO.C,C12*%
X95087517Y-59110000D02*
X94794983Y-59110000D01*
X95087517Y-60130000D02*
X94794983Y-60130000D01*
%TO.C,C20*%
X118581250Y-140768733D02*
X118581250Y-141061267D01*
X119601250Y-140768733D02*
X119601250Y-141061267D01*
%TO.C,J1*%
X179758750Y-98355000D02*
X187798750Y-98355000D01*
X179758750Y-109095000D02*
X179758750Y-98355000D01*
X183378750Y-99163000D02*
X183378750Y-98355000D01*
X183378750Y-104095000D02*
X183378750Y-102787000D01*
X183378750Y-109095000D02*
X183378750Y-107855000D01*
X184378750Y-99163000D02*
X184378750Y-98355000D01*
X184378750Y-104095000D02*
X184378750Y-102787000D01*
X184378750Y-109095000D02*
X184378750Y-107855000D01*
X185678750Y-100432000D02*
X185678750Y-98355000D01*
X185678750Y-104095000D02*
X185678750Y-101518000D01*
X185678750Y-109095000D02*
X185678750Y-107855000D01*
X187798750Y-98355000D02*
X187798750Y-105675000D01*
X187798750Y-106275000D02*
X187798750Y-109095000D01*
X187798750Y-109095000D02*
X179758750Y-109095000D01*
X188408750Y-106415000D02*
X187798750Y-105975000D01*
X188408750Y-105535000D01*
X188408750Y-106415000D01*
G36*
X188408750Y-106415000D02*
G01*
X187798750Y-105975000D01*
X188408750Y-105535000D01*
X188408750Y-106415000D01*
G37*
%TO.C,U2*%
X165131250Y-82690000D02*
X165131250Y-84340000D01*
X165131250Y-86340000D02*
X165131250Y-87990000D01*
X165131250Y-87990000D02*
X175411250Y-87990000D01*
X175411250Y-82690000D02*
X165131250Y-82690000D01*
X175411250Y-87990000D02*
X175411250Y-82690000D01*
X165071250Y-90480000D02*
X175471250Y-90480000D01*
X175471250Y-80200000D01*
X165071250Y-80200000D01*
X165071250Y-90480000D01*
X165131250Y-84340000D02*
G75*
G02*
X165131250Y-86340000I0J-1000000D01*
G01*
%TO.C,D2*%
X136861250Y-86290000D02*
X136861250Y-89510000D01*
X136861250Y-89510000D02*
X142671250Y-89510000D01*
X142671250Y-86290000D02*
X136861250Y-86290000D01*
%TO.C,U1*%
X182578250Y-111595000D02*
X187498250Y-111595000D01*
X182578250Y-122075000D02*
X182578250Y-111595000D01*
X184868250Y-111595000D02*
X184868250Y-113083000D01*
X184868250Y-115507000D02*
X184869250Y-115622000D01*
X184869250Y-118047000D02*
X184869250Y-118162000D01*
X184869250Y-120587000D02*
X184868250Y-122075000D01*
X187498250Y-111595000D02*
X187498250Y-122075000D01*
X187498250Y-114985000D02*
X185601250Y-114985000D01*
X187498250Y-118685000D02*
X185601250Y-118685000D01*
X187498250Y-122075000D02*
X182578250Y-122075000D01*
%TO.C,R12*%
X125074026Y-84607500D02*
X125583474Y-84607500D01*
X125074026Y-85652500D02*
X125583474Y-85652500D01*
%TO.C,R8*%
X138385974Y-84427500D02*
X137876526Y-84427500D01*
X138385974Y-85472500D02*
X137876526Y-85472500D01*
%TO.C,U3*%
X155161250Y-59600000D02*
X155161250Y-69880000D01*
X155161250Y-69880000D02*
X156811250Y-69880000D01*
X158811250Y-69880000D02*
X160461250Y-69880000D01*
X160461250Y-59600000D02*
X155161250Y-59600000D01*
X160461250Y-69880000D02*
X160461250Y-59600000D01*
X162951250Y-69940000D02*
X152671250Y-69940000D01*
X152671250Y-59540000D01*
X162951250Y-59540000D01*
X162951250Y-69940000D01*
X156811250Y-69880000D02*
G75*
G02*
X158811250Y-69880000I1000000J0D01*
G01*
%TO.C,C11*%
X99071250Y-65856233D02*
X99071250Y-66148767D01*
X100091250Y-65856233D02*
X100091250Y-66148767D01*
%TO.C,C2*%
X167500017Y-93360000D02*
X167207483Y-93360000D01*
X167500017Y-94380000D02*
X167207483Y-94380000D01*
D12*
%TO.C,U5*%
X173192350Y-62749100D02*
X173192350Y-66990900D01*
X178450150Y-66990900D02*
X178450150Y-62749100D01*
D11*
%TO.C,R2*%
X159618750Y-72115276D02*
X159618750Y-72624724D01*
X160663750Y-72115276D02*
X160663750Y-72624724D01*
%TO.C,D4*%
X120391250Y-86420000D02*
X120391250Y-89640000D01*
X120391250Y-89640000D02*
X126201250Y-89640000D01*
X126201250Y-86420000D02*
X120391250Y-86420000D01*
%TO.C,C18*%
X128841250Y-140716233D02*
X128841250Y-141008767D01*
X129861250Y-140716233D02*
X129861250Y-141008767D01*
D12*
%TO.C,U6*%
X92592350Y-64009100D02*
X92592350Y-68250900D01*
X97850150Y-68250900D02*
X97850150Y-64009100D01*
D11*
%TO.C,C16*%
X134281250Y-140591233D02*
X134281250Y-140883767D01*
X135301250Y-140591233D02*
X135301250Y-140883767D01*
%TO.C,C13*%
X148891250Y-125730000D02*
X152741250Y-125730000D01*
X148891250Y-135385563D02*
X148891250Y-125730000D01*
X149955687Y-136450000D02*
X148891250Y-135385563D01*
X149955687Y-136450000D02*
X152741250Y-136450000D01*
X150866250Y-137315000D02*
X152116250Y-137315000D01*
X151491250Y-137940000D02*
X151491250Y-136690000D01*
X158546813Y-136450000D02*
X155761250Y-136450000D01*
X158546813Y-136450000D02*
X159611250Y-135385563D01*
X159611250Y-125730000D02*
X155761250Y-125730000D01*
X159611250Y-135385563D02*
X159611250Y-125730000D01*
%TO.C,C17*%
X105781250Y-125510000D02*
X109631250Y-125510000D01*
X105781250Y-135165563D02*
X105781250Y-125510000D01*
X106845687Y-136230000D02*
X105781250Y-135165563D01*
X106845687Y-136230000D02*
X109631250Y-136230000D01*
X107756250Y-137095000D02*
X109006250Y-137095000D01*
X108381250Y-137720000D02*
X108381250Y-136470000D01*
X115436813Y-136230000D02*
X112651250Y-136230000D01*
X115436813Y-136230000D02*
X116501250Y-135165563D01*
X116501250Y-125510000D02*
X112651250Y-125510000D01*
X116501250Y-135165563D02*
X116501250Y-125510000D01*
%TO.C,R9*%
X141536526Y-84457500D02*
X142045974Y-84457500D01*
X141536526Y-85502500D02*
X142045974Y-85502500D01*
D13*
%TO.C,G\u002A\u002A\u002A*%
G36*
X168271005Y-101521770D02*
G01*
X168889270Y-101579650D01*
X169499209Y-101674843D01*
X170099670Y-101807005D01*
X170689501Y-101975789D01*
X171267550Y-102180851D01*
X171832665Y-102421846D01*
X172383695Y-102698430D01*
X172919489Y-103010256D01*
X173438893Y-103356981D01*
X173640167Y-103504135D01*
X173752260Y-103589745D01*
X173874925Y-103686009D01*
X173995699Y-103782994D01*
X174102121Y-103870763D01*
X174135351Y-103898901D01*
X174253502Y-104003509D01*
X174390350Y-104130641D01*
X174539111Y-104273515D01*
X174692998Y-104425343D01*
X174845228Y-104579342D01*
X174989016Y-104728728D01*
X175117576Y-104866714D01*
X175224124Y-104986517D01*
X175231097Y-104994647D01*
X175616491Y-105474929D01*
X175970620Y-105976927D01*
X176292707Y-106498718D01*
X176581975Y-107038377D01*
X176837646Y-107593980D01*
X177058943Y-108163603D01*
X177245088Y-108745322D01*
X177395303Y-109337212D01*
X177508812Y-109937349D01*
X177584837Y-110543809D01*
X177610668Y-110884100D01*
X177628449Y-111515564D01*
X177608228Y-112141005D01*
X177550348Y-112759270D01*
X177455155Y-113369209D01*
X177322994Y-113969670D01*
X177154209Y-114559501D01*
X176949147Y-115137550D01*
X176708152Y-115702665D01*
X176431568Y-116253695D01*
X176119742Y-116789489D01*
X175773017Y-117308893D01*
X175625863Y-117510167D01*
X175540253Y-117622260D01*
X175443989Y-117744925D01*
X175347004Y-117865699D01*
X175259235Y-117972121D01*
X175231097Y-118005351D01*
X175126489Y-118123502D01*
X174999357Y-118260350D01*
X174856484Y-118409111D01*
X174704655Y-118562998D01*
X174550656Y-118715228D01*
X174401270Y-118859016D01*
X174263284Y-118987576D01*
X174143481Y-119094124D01*
X174135351Y-119101097D01*
X173652528Y-119488596D01*
X173148826Y-119843956D01*
X172625947Y-120166556D01*
X172085591Y-120455777D01*
X171529459Y-120710998D01*
X170959253Y-120931597D01*
X170376673Y-121116954D01*
X169783422Y-121266448D01*
X169181199Y-121379459D01*
X168571707Y-121455365D01*
X167956646Y-121493547D01*
X167566234Y-121497946D01*
X167428367Y-121495861D01*
X167277806Y-121492055D01*
X167129871Y-121487007D01*
X166999882Y-121481198D01*
X166960045Y-121478989D01*
X166716243Y-121459774D01*
X166448249Y-121430373D01*
X166168632Y-121392634D01*
X165889962Y-121348405D01*
X165624811Y-121299533D01*
X165385747Y-121247866D01*
X165382771Y-121247161D01*
X164766235Y-121081816D01*
X164168371Y-120882555D01*
X163589440Y-120649509D01*
X163029706Y-120382812D01*
X162489430Y-120082595D01*
X161968874Y-119748990D01*
X161468302Y-119382129D01*
X161124647Y-119101097D01*
X161006496Y-118996489D01*
X160869648Y-118869357D01*
X160720887Y-118726484D01*
X160567000Y-118574655D01*
X160414770Y-118420656D01*
X160270983Y-118271270D01*
X160142422Y-118133284D01*
X160035874Y-118013481D01*
X160028901Y-118005351D01*
X159643507Y-117525069D01*
X159289378Y-117023071D01*
X158967291Y-116501280D01*
X158686680Y-115977772D01*
X167066849Y-115977772D01*
X167083450Y-116012735D01*
X167128845Y-116059375D01*
X167196421Y-116113405D01*
X167279567Y-116170538D01*
X167371671Y-116226487D01*
X167466120Y-116276968D01*
X167556302Y-116317692D01*
X167630142Y-116342944D01*
X167745075Y-116363471D01*
X167879796Y-116371618D01*
X168017259Y-116367322D01*
X168052738Y-116362482D01*
X168723178Y-116362482D01*
X168748248Y-116381319D01*
X168804999Y-116395512D01*
X168886526Y-116404822D01*
X168985923Y-116409006D01*
X169096283Y-116407823D01*
X169210700Y-116401032D01*
X169322269Y-116388392D01*
X169348577Y-116384343D01*
X169484577Y-116359563D01*
X169600616Y-116331375D01*
X169710231Y-116295390D01*
X169826958Y-116247219D01*
X169950565Y-116189197D01*
X170150895Y-116083759D01*
X170341423Y-115966128D01*
X170528463Y-115831574D01*
X170718330Y-115675366D01*
X170917337Y-115492771D01*
X171038027Y-115374324D01*
X171327298Y-115066067D01*
X171617905Y-114719791D01*
X171909371Y-114336274D01*
X172201221Y-113916292D01*
X172492981Y-113460622D01*
X172784174Y-112970041D01*
X173074327Y-112445327D01*
X173362963Y-111887256D01*
X173649608Y-111296606D01*
X173933786Y-110674153D01*
X173989164Y-110548470D01*
X174038813Y-110435331D01*
X174085910Y-110328359D01*
X174127147Y-110235041D01*
X174159218Y-110162860D01*
X174177923Y-110121253D01*
X174204668Y-110060665D01*
X174239212Y-109979724D01*
X174274877Y-109894113D01*
X174281268Y-109878516D01*
X174316281Y-109793598D01*
X174360075Y-109688523D01*
X174406153Y-109578837D01*
X174435472Y-109509556D01*
X174507954Y-109334902D01*
X174591781Y-109125460D01*
X174687214Y-108880564D01*
X174794518Y-108599546D01*
X174810221Y-108558027D01*
X174851861Y-108447904D01*
X174896348Y-108330392D01*
X174937765Y-108221115D01*
X174964671Y-108150228D01*
X175010984Y-108025839D01*
X175056468Y-107899131D01*
X175099319Y-107775619D01*
X175137729Y-107660816D01*
X175169894Y-107560236D01*
X175194008Y-107479394D01*
X175208264Y-107423804D01*
X175210856Y-107398979D01*
X175210761Y-107398808D01*
X175197119Y-107390329D01*
X175168278Y-107390111D01*
X175119603Y-107399162D01*
X175046461Y-107418490D01*
X174944222Y-107449104D01*
X174863562Y-107474394D01*
X174551816Y-107593378D01*
X174257355Y-107746950D01*
X173981736Y-107934188D01*
X173743109Y-108138270D01*
X173598837Y-108281479D01*
X173473458Y-108420469D01*
X173362110Y-108562392D01*
X173259926Y-108714402D01*
X173162044Y-108883653D01*
X173063597Y-109077297D01*
X172975660Y-109266819D01*
X172952261Y-109318448D01*
X172916103Y-109397647D01*
X172870708Y-109496725D01*
X172819600Y-109607991D01*
X172766575Y-109723164D01*
X172701470Y-109864610D01*
X172627405Y-110025858D01*
X172551469Y-110191456D01*
X172480748Y-110345952D01*
X172445890Y-110422247D01*
X172384777Y-110555772D01*
X172313392Y-110711179D01*
X172237868Y-110875147D01*
X172164341Y-111034357D01*
X172106057Y-111160167D01*
X172005061Y-111377782D01*
X171918206Y-111564986D01*
X171843268Y-111726588D01*
X171778020Y-111867400D01*
X171720237Y-111992229D01*
X171667693Y-112105887D01*
X171618163Y-112213182D01*
X171569420Y-112318925D01*
X171519238Y-112427924D01*
X171494979Y-112480657D01*
X171327002Y-112839007D01*
X171163885Y-113171972D01*
X171001000Y-113487932D01*
X170833721Y-113795266D01*
X170657419Y-114102352D01*
X170467467Y-114417570D01*
X170259237Y-114749299D01*
X170138273Y-114937155D01*
X169995792Y-115146177D01*
X169844459Y-115348871D01*
X169687621Y-115541800D01*
X169528620Y-115721529D01*
X169370803Y-115884621D01*
X169217514Y-116027639D01*
X169072098Y-116147148D01*
X168937899Y-116239711D01*
X168818263Y-116301891D01*
X168804614Y-116307313D01*
X168754862Y-116330755D01*
X168726209Y-116353024D01*
X168723178Y-116362482D01*
X168052738Y-116362482D01*
X168140418Y-116350521D01*
X168164795Y-116344915D01*
X168347191Y-116282393D01*
X168538818Y-116185665D01*
X168736015Y-116057161D01*
X168935118Y-115899310D01*
X169132466Y-115714541D01*
X169164272Y-115681982D01*
X169260376Y-115580804D01*
X169350606Y-115481989D01*
X169436723Y-115382859D01*
X169520490Y-115280735D01*
X169603670Y-115172937D01*
X169688023Y-115056786D01*
X169775313Y-114929605D01*
X169867301Y-114788714D01*
X169965749Y-114631433D01*
X170072420Y-114455085D01*
X170189075Y-114256991D01*
X170317477Y-114034470D01*
X170459387Y-113784846D01*
X170616569Y-113505438D01*
X170733525Y-113296253D01*
X170842959Y-113095246D01*
X170965429Y-112861394D01*
X171099426Y-112597868D01*
X171243446Y-112307835D01*
X171395981Y-111994466D01*
X171555525Y-111660929D01*
X171720573Y-111310392D01*
X171889616Y-110946026D01*
X172061150Y-110570998D01*
X172233668Y-110188479D01*
X172405663Y-109801637D01*
X172538091Y-109499846D01*
X172633938Y-109280012D01*
X172715293Y-109093032D01*
X172783242Y-108936186D01*
X172838871Y-108806749D01*
X172883266Y-108702001D01*
X172917514Y-108619220D01*
X172942700Y-108555682D01*
X172959911Y-108508667D01*
X172970232Y-108475451D01*
X172974750Y-108453313D01*
X172974551Y-108439531D01*
X172970720Y-108431383D01*
X172966029Y-108427270D01*
X172931099Y-108418431D01*
X172866616Y-108415483D01*
X172781308Y-108417767D01*
X172683904Y-108424622D01*
X172583132Y-108435391D01*
X172487720Y-108449412D01*
X172406398Y-108466027D01*
X172387644Y-108470969D01*
X172154109Y-108555259D01*
X171925321Y-108675725D01*
X171700765Y-108832815D01*
X171479924Y-109026977D01*
X171262282Y-109258659D01*
X171047321Y-109528307D01*
X170864060Y-109791131D01*
X170634968Y-110160063D01*
X170426571Y-110541149D01*
X170234880Y-110942332D01*
X170055905Y-111371553D01*
X170010371Y-111490290D01*
X169932730Y-111695050D01*
X169865073Y-111870382D01*
X169804360Y-112023447D01*
X169747550Y-112161405D01*
X169691604Y-112291418D01*
X169633479Y-112420646D01*
X169570136Y-112556250D01*
X169498534Y-112705390D01*
X169466168Y-112771941D01*
X169216346Y-113263334D01*
X168964227Y-113717366D01*
X168708835Y-114135491D01*
X168449196Y-114519165D01*
X168184337Y-114869841D01*
X167913283Y-115188973D01*
X167689965Y-115423904D01*
X167592399Y-115518683D01*
X167489041Y-115614600D01*
X167388612Y-115703858D01*
X167299831Y-115778663D01*
X167246475Y-115820342D01*
X167175311Y-115875046D01*
X167117477Y-115923330D01*
X167079265Y-115959678D01*
X167066849Y-115977772D01*
X158686680Y-115977772D01*
X158678023Y-115961621D01*
X158422352Y-115406018D01*
X158201055Y-114836395D01*
X158014910Y-114254676D01*
X157864695Y-113662786D01*
X157751186Y-113062649D01*
X157675161Y-112456189D01*
X157649330Y-112115898D01*
X157631549Y-111484434D01*
X157651770Y-110858993D01*
X157709650Y-110240728D01*
X157804843Y-109630789D01*
X157937005Y-109030328D01*
X158071282Y-108561086D01*
X158954326Y-108561086D01*
X158967602Y-108578556D01*
X159004946Y-108623411D01*
X159064796Y-108693858D01*
X159145588Y-108788101D01*
X159245763Y-108904345D01*
X159363756Y-109040795D01*
X159498007Y-109195658D01*
X159646953Y-109367137D01*
X159809033Y-109553438D01*
X159982684Y-109752766D01*
X160166344Y-109963326D01*
X160358452Y-110183324D01*
X160557445Y-110410964D01*
X160761762Y-110644452D01*
X160969839Y-110881993D01*
X161180116Y-111121792D01*
X161391031Y-111362054D01*
X161485860Y-111469988D01*
X161539042Y-111530577D01*
X161615476Y-111617763D01*
X161712849Y-111728905D01*
X161828851Y-111861362D01*
X161961169Y-112012494D01*
X162107492Y-112179658D01*
X162265507Y-112360214D01*
X162432903Y-112551520D01*
X162607368Y-112750936D01*
X162786590Y-112955821D01*
X162968258Y-113163532D01*
X162982431Y-113179739D01*
X163161694Y-113384319D01*
X163337161Y-113583795D01*
X163506703Y-113775788D01*
X163668189Y-113957920D01*
X163819490Y-114127814D01*
X163958477Y-114283092D01*
X164083020Y-114421374D01*
X164190989Y-114540284D01*
X164280255Y-114637443D01*
X164348688Y-114710473D01*
X164394157Y-114756996D01*
X164399752Y-114762384D01*
X164671695Y-114996325D01*
X164956565Y-115195100D01*
X165253038Y-115357987D01*
X165559789Y-115484262D01*
X165875494Y-115573203D01*
X165892002Y-115576765D01*
X166044947Y-115600552D01*
X166220236Y-115613558D01*
X166404040Y-115615745D01*
X166582530Y-115607075D01*
X166741877Y-115587511D01*
X166785274Y-115579218D01*
X167037836Y-115510559D01*
X167265382Y-115415585D01*
X167474040Y-115291183D01*
X167669937Y-115134241D01*
X167680323Y-115124732D01*
X167760057Y-115043119D01*
X167858042Y-114928590D01*
X167973539Y-114782109D01*
X168105811Y-114604641D01*
X168254120Y-114397149D01*
X168411239Y-114170106D01*
X168682843Y-113746270D01*
X168939550Y-113293892D01*
X169176947Y-112821827D01*
X169390624Y-112338928D01*
X169576168Y-111854050D01*
X169601342Y-111781574D01*
X169749330Y-111385063D01*
X169912167Y-111014837D01*
X169963270Y-110910399D01*
X170009072Y-110817516D01*
X170047083Y-110737357D01*
X170074521Y-110676042D01*
X170088606Y-110639687D01*
X170089596Y-110632480D01*
X170064572Y-110628779D01*
X170009438Y-110631539D01*
X169932169Y-110639629D01*
X169840744Y-110651919D01*
X169743140Y-110667280D01*
X169647334Y-110684579D01*
X169561304Y-110702687D01*
X169517320Y-110713571D01*
X169290683Y-110786867D01*
X169090721Y-110880040D01*
X168908204Y-110998155D01*
X168740814Y-111139733D01*
X168686033Y-111191911D01*
X168637310Y-111240261D01*
X168592739Y-111287908D01*
X168550414Y-111337975D01*
X168508427Y-111393588D01*
X168464874Y-111457872D01*
X168417847Y-111533951D01*
X168365440Y-111624951D01*
X168305747Y-111733996D01*
X168236861Y-111864210D01*
X168156876Y-112018719D01*
X168063886Y-112200648D01*
X167955984Y-112413121D01*
X167916833Y-112490366D01*
X167750629Y-112815446D01*
X167597017Y-113109885D01*
X167456470Y-113372821D01*
X167329461Y-113603394D01*
X167216464Y-113800741D01*
X167117951Y-113964001D01*
X167046663Y-114074282D01*
X166901647Y-114260602D01*
X166732715Y-114428039D01*
X166548913Y-114567957D01*
X166492973Y-114602834D01*
X166342811Y-114683983D01*
X166204586Y-114740050D01*
X166064729Y-114775245D01*
X165909673Y-114793778D01*
X165869962Y-114796150D01*
X165717933Y-114797170D01*
X165574847Y-114782916D01*
X165437064Y-114751377D01*
X165300948Y-114700541D01*
X165162862Y-114628395D01*
X165019167Y-114532927D01*
X164866226Y-114412123D01*
X164700402Y-114263972D01*
X164518057Y-114086461D01*
X164435580Y-114002574D01*
X164044085Y-113577135D01*
X163661179Y-113114880D01*
X163287564Y-112617022D01*
X162923942Y-112084773D01*
X162571014Y-111519347D01*
X162229482Y-110921954D01*
X161900049Y-110293809D01*
X161583415Y-109636124D01*
X161280283Y-108950112D01*
X160991355Y-108236985D01*
X160792887Y-107708447D01*
X160764138Y-107634502D01*
X160738167Y-107576829D01*
X160718803Y-107543529D01*
X160712514Y-107538531D01*
X160691875Y-107547882D01*
X160641589Y-107574459D01*
X160565633Y-107616051D01*
X160467983Y-107670444D01*
X160352616Y-107735426D01*
X160223509Y-107808785D01*
X160108250Y-107874744D01*
X159954943Y-107962729D01*
X159798304Y-108052585D01*
X159645100Y-108140432D01*
X159502099Y-108222391D01*
X159376067Y-108294584D01*
X159273772Y-108353130D01*
X159235901Y-108374782D01*
X159141919Y-108429907D01*
X159061480Y-108479805D01*
X158999996Y-108520896D01*
X158962879Y-108549598D01*
X158954326Y-108561086D01*
X158071282Y-108561086D01*
X158105789Y-108440497D01*
X158310851Y-107862448D01*
X158551846Y-107297333D01*
X158828430Y-106746303D01*
X159140256Y-106210509D01*
X159486981Y-105691105D01*
X159634135Y-105489831D01*
X159719745Y-105377738D01*
X159816009Y-105255073D01*
X159912994Y-105134299D01*
X160000763Y-105027877D01*
X160028901Y-104994647D01*
X160133509Y-104876496D01*
X160260641Y-104739648D01*
X160403515Y-104590887D01*
X160555343Y-104437000D01*
X160709342Y-104284770D01*
X160858728Y-104140983D01*
X160996714Y-104012422D01*
X161116517Y-103905874D01*
X161124647Y-103898901D01*
X161604929Y-103513507D01*
X162106927Y-103159378D01*
X162628718Y-102837291D01*
X163168377Y-102548023D01*
X163723980Y-102292352D01*
X164293603Y-102071055D01*
X164875322Y-101884910D01*
X165467212Y-101734695D01*
X166067349Y-101621186D01*
X166673809Y-101545161D01*
X167014100Y-101519330D01*
X167645564Y-101501549D01*
X168271005Y-101521770D01*
G37*
%TD*%
M02*
